<?xml version="1.0" standalone="no"?>
<!DOCTYPE svg PUBLIC "-//W3C//DTD SVG 1.1//EN" "http://www.w3.org/Graphics/SVG/1.1/DTD/svg11.dtd" >
<svg xmlns="http://www.w3.org/2000/svg">
<metadata></metadata>
<defs>
<font id="snell_roundhandbold" horiz-adv-x="985" >
<font-face units-per-em="2048" ascent="1638" descent="-410" />
<missing-glyph horiz-adv-x="548" />
<glyph horiz-adv-x="0" />
<glyph horiz-adv-x="0" />
<glyph unicode="&#xd;" horiz-adv-x="1024" />
<glyph unicode=" "  horiz-adv-x="548" />
<glyph unicode="&#x09;" horiz-adv-x="548" />
<glyph unicode="&#xa0;" horiz-adv-x="548" />
<glyph unicode="!" horiz-adv-x="757" d="M127 90q0 47 34 81t81 34t80.5 -34t33.5 -81t-33.5 -81t-80.5 -34t-81 34t-34 81zM334 246q43 70 85 145.5t76.5 147t63.5 137t45 115.5q57 170 103.5 242.5t105.5 72.5q37 0 64.5 -26.5t27.5 -67.5q0 -35 -17.5 -71t-52 -81t-87 -103.5t-122 -138t-142 -174 t-136.5 -204.5z" />
<glyph unicode="&#x22;" horiz-adv-x="681" d="M348 934q43 76 64.5 122t35 86t25.5 84t37 117q6 18 19.5 38t31 33t39 16.5t45.5 -9.5q25 -12 34 -32.5t7 -44t-11.5 -45t-23.5 -37.5q-49 -59 -81.5 -91t-61.5 -63t-59.5 -73t-73.5 -117zM674 934q43 76 64.5 122t33.5 86t24.5 84t37.5 117q6 18 19 38t31.5 33t40 16.5 t44.5 -9.5q25 -12 34 -32.5t8 -44t-11.5 -45t-22.5 -37.5q-49 -59 -82 -91t-62.5 -63t-60.5 -73t-74 -117z" />
<glyph unicode="#" horiz-adv-x="1099" d="M-55 0l262 393h-223l18 29h221l189 287h-224l19 28h221l221 336l170 17l-233 -353h202l222 336l159 17l-233 -353h250l-19 -28h-247l-189 -287h250l-18 -29h-248l-244 -366l-166 -27l262 393h-202l-244 -366zM381 422h203l188 287h-203z" />
<glyph unicode="$" horiz-adv-x="1099" d="M72 344q0 35 11 71t31.5 64.5t52.5 46t71 17.5q49 0 79.5 -24.5t30.5 -69.5q0 -47 -32.5 -71t-69.5 -24q-16 0 -31.5 5.5t-26.5 11.5q-18 -27 -18 -82q0 -57 40 -111.5t97 -79.5l297 484q-49 57 -89 126.5t-40 147.5q0 70 33 128t86 99t121.5 64.5t140.5 23.5 q33 0 60.5 -5t48.5 -9l82 135l32 -16l-78 -129q31 -12 65 -31.5t61.5 -47.5t46 -61.5t18.5 -74.5q0 -94 -57.5 -131t-151.5 -31q23 45 40 96.5t17 94.5q0 49 -12 85.5t-47 67.5l-250 -399q55 -74 101.5 -145.5t46.5 -163.5q0 -86 -34 -153t-93.5 -113t-140.5 -70.5 t-177 -24.5q-35 0 -61.5 3t-48.5 9l-86 -141l-31 18l82 134q-94 37 -155.5 105.5t-61.5 170.5zM342 84q20 -8 48 -11t54 -3q57 0 106.5 19.5t86.5 56t57.5 87t20.5 111.5q0 59 -23.5 110.5t-62.5 96.5zM639 905q0 -43 18.5 -86t47.5 -74l243 385q-16 8 -37.5 12.5t-50.5 4.5 q-47 0 -87 -18.5t-69.5 -51.5t-47 -77t-17.5 -95z" />
<glyph unicode="%" horiz-adv-x="1630" d="M127 748q0 88 42 165.5t109.5 136t150.5 92.5t165 34q88 0 132 -33t73.5 -72t59.5 -71.5t87 -32.5q80 0 130 35.5t85 78.5t61.5 79t57.5 36q23 0 32 -12.5t9 -26.5q0 -12 -12.5 -32.5t-29.5 -43t-35.5 -44t-31.5 -36.5l-870 -1044l-14 10l809 1049l-4 4 q-41 -41 -90.5 -59.5t-92.5 -18.5q-53 0 -84.5 21.5t-54.5 56.5l-4 -4q4 -4 4 -25q0 -94 -42 -177t-110.5 -145.5t-153.5 -98t-171 -35.5q-88 0 -147.5 52t-59.5 161zM250 651q0 -37 17.5 -64.5t66.5 -27.5q66 0 129 54.5t113.5 132t81 163.5t30.5 150q0 37 -17.5 64.5 t-66.5 27.5q-66 0 -129 -54.5t-113.5 -132t-81 -163.5t-30.5 -150zM897 188q0 88 42 166t109.5 136.5t150.5 92t165 33.5q41 0 80 -12t69.5 -34.5t49 -57.5t18.5 -80q0 -94 -42 -177t-110.5 -145.5t-153.5 -98.5t-171 -36q-88 0 -147.5 52t-59.5 161zM1020 92 q0 -37 17.5 -64.5t66.5 -27.5q66 0 129 54.5t113.5 132t81 163.5t30.5 150q0 37 -17.5 64.5t-66.5 27.5q-66 0 -129 -54.5t-113.5 -132t-81 -163.5t-30.5 -150z" />
<glyph unicode="&#x26;" horiz-adv-x="1366" d="M33 238q0 84 36.5 149.5t94 116.5t128 88t140.5 61q8 78 44 163t94.5 154.5t136 114.5t172.5 45q74 0 118.5 -32.5t44.5 -91.5q0 -74 -50 -125.5t-120.5 -88t-148.5 -61t-131 -47.5q4 -66 16.5 -132.5t36 -130t56 -118.5t75.5 -98q86 80 154.5 163t131 151.5t125 112.5 t136.5 44q57 0 87 -31t30 -72q0 -39 -24.5 -68.5t-72.5 -29.5q-41 0 -64.5 25.5t-23.5 56.5q0 20 6.5 34.5t16.5 31.5q-8 4 -21 4q-41 0 -94 -44t-112.5 -109.5t-126 -141.5t-136.5 -139q76 -82 180.5 -129.5t219.5 -47.5q158 0 273.5 83t201.5 212l18 -6 q-100 -164 -254.5 -251t-353.5 -87q-111 0 -217 29t-192 98q-74 -49 -158 -84t-176 -35q-57 0 -111.5 17.5t-95.5 51.5t-65.5 83t-24.5 111zM205 332q0 -55 16.5 -107.5t48 -92.5t77.5 -63.5t104 -23.5q51 0 97 12.5t99 48.5q-109 84 -164 214.5t-55 277.5v35 q-92 -35 -157.5 -116t-65.5 -185zM592 702q53 14 107.5 41t97.5 67t70.5 92.5t27.5 113.5q0 35 -17.5 56.5t-54.5 21.5q-41 0 -82 -33t-74.5 -88t-54 -126t-20.5 -145z" />
<glyph unicode="'" horiz-adv-x="454" d="M342 934q43 76 64.5 122t35 86t25.5 84t37 117q6 18 19.5 38t30.5 33t38.5 16.5t46.5 -9.5q25 -12 34 -32.5t7 -44t-11.5 -45t-23.5 -37.5q-49 -59 -82 -91t-61.5 -63t-59 -73t-73.5 -117z" />
<glyph unicode="(" horiz-adv-x="796" d="M150 -270q0 311 102 581.5t280.5 491.5t419 392t516.5 284l5 -15q-178 -86 -343 -216t-306.5 -291.5t-258 -352t-198.5 -398.5t-127 -428t-45 -442h-21q-10 102 -17 198.5t-7 195.5z" />
<glyph unicode=")" horiz-adv-x="796" d="M-676 -649q178 86 343 216t306.5 291.5t258 352t198.5 398.5t127 428t45 442h21q10 -102 17 -198.5t7 -195.5q0 -311 -102.5 -581.5t-280.5 -491.5t-418.5 -392t-517.5 -284z" />
<glyph unicode="*" horiz-adv-x="681" d="M336 1300q0 23 17.5 41.5t41.5 18.5q18 0 49 -11.5t64 -27.5t62.5 -33.5t43.5 -30.5l4 5q-12 23 -28.5 53.5t-30.5 62t-24.5 64.5t-10.5 59q0 25 18.5 40t41.5 15q57 0 66 -67.5t9 -218.5h5q8 16 27.5 50t45 67.5t53 60.5t50.5 27q29 0 47 -18.5t18 -49.5 q0 -23 -28.5 -48.5t-67.5 -49t-76 -41t-55 -23.5v-4q139 -2 214 -11t75 -65q0 -29 -18.5 -46t-47.5 -17q-25 0 -55.5 12t-61 29.5t-58.5 36t-46 32.5l-4 -4q10 -20 26.5 -47.5t34 -58.5t29.5 -61.5t12 -55.5q0 -33 -21.5 -50t-37.5 -17q-29 0 -44.5 16t-22.5 50t-8 87 t-1 129l-4 4q-10 -20 -29.5 -55t-45 -68.5t-54.5 -59.5t-57 -26q-23 0 -41.5 14.5t-18.5 45.5q0 25 26.5 50t63.5 47t73 38t54 27v4q-145 0 -209.5 13t-64.5 66z" />
<glyph unicode="+" horiz-adv-x="1228" d="M223 338l19 29h290l211 321l172 17l-223 -338h291l-18 -29h-289l-207 -311l-178 -27l225 338h-293z" />
<glyph unicode="," horiz-adv-x="569" d="M-184 -266q61 0 123.5 17.5t114.5 51t89 82.5t52 115q-14 -8 -29 -10q-10 -2 -33 -2q-39 0 -61.5 27.5t-22.5 62.5q0 53 35 79.5t78 26.5q59 0 98 -32.5t39 -94.5q0 -80 -46 -143.5t-118 -107.5t-156.5 -67.5t-162.5 -25.5v21z" />
<glyph unicode="-" horiz-adv-x="757" d="M41 295l88 131h481l-86 -131h-483z" />
<glyph unicode="." horiz-adv-x="569" d="M49 102q0 47 34 81t81 34t81 -33.5t34 -81.5q0 -47 -34 -80.5t-81 -33.5t-81 33.5t-34 80.5z" />
<glyph unicode="/" horiz-adv-x="569" d="M-23 -33l678 1512h105l-678 -1512h-105z" />
<glyph unicode="0" horiz-adv-x="1099" d="M16 268q0 96 37 196.5t99.5 194t146.5 175t177 142t191.5 95.5t188.5 35q133 0 203.5 -83t70.5 -212q0 -90 -36.5 -187.5t-99 -190.5t-146.5 -176t-177 -145.5t-190.5 -99.5t-189.5 -37q-133 0 -204 82t-71 211zM213 287q0 -45 9 -92.5t30.5 -85t58.5 -61t90 -23.5 q74 0 142.5 39.5t128 104t107.5 147.5t83 170t53.5 171t18.5 150q0 45 -6 92t-24.5 85t-49.5 61.5t-80 23.5q-76 -2 -146.5 -41t-133 -101.5t-114.5 -142t-89 -166t-57.5 -172.5t-20.5 -159z" />
<glyph unicode="1" horiz-adv-x="872" d="M74 0l571 883l-4 4q-123 -63 -256 -112.5t-272 -84.5l-7 19q236 53 449 156.5t403 240.5l15 -12q-82 -131 -169 -267.5t-172 -271.5t-167 -268t-154 -258l195 10l-8 -14q-211 -18 -424 -25z" />
<glyph unicode="2" horiz-adv-x="1099" d="M-150 0q0 23 48.5 58.5t122 78.5t162.5 88t172 84t146.5 70t88.5 43q55 29 105 68.5t89 89t61.5 109t22.5 128.5q0 55 -18.5 102.5t-50 80t-72.5 51t-88 18.5t-87 -18.5t-67.5 -49t-43 -69.5t-15.5 -80q0 -66 31.5 -112t99.5 -46q45 0 82 27q-45 -145 -186 -146 q-72 0 -121 46.5t-49 138.5q0 57 28.5 118.5t86 111.5t140.5 83t191 33q61 0 120.5 -17.5t108 -52.5t78 -88t29.5 -127q0 -92 -41 -162.5t-106.5 -125t-149.5 -94.5t-171 -72.5t-170 -61.5t-146 -59q-47 -23 -94.5 -45.5t-88.5 -44.5l4 -4q86 33 181 32q57 0 109 -12 t100.5 -26.5t92.5 -27t87 -12.5q53 0 97 27t82 68t67.5 88t52.5 86l10 -10q-39 -70 -83 -139.5t-100.5 -125t-127 -90.5t-160.5 -35q-61 0 -119.5 21.5t-114.5 48.5q-57 25 -109 46.5t-106 21.5q-45 0 -70.5 -21.5t-41.5 -46.5q-18 -27 -33.5 -48.5t-44.5 -21.5 q-10 0 -15.5 7.5t-5.5 17.5z" />
<glyph unicode="3" horiz-adv-x="1099" d="M-29 254q0 88 58.5 147.5t146.5 59.5q55 0 97 -24.5t81 -61.5l-8 -15q-12 4 -27.5 7.5t-33.5 3.5q-72 0 -107 -52.5t-35 -115.5q0 -96 71 -149.5t169 -53.5q82 0 148.5 31.5t113.5 84t72.5 119t25.5 134.5q0 102 -60 143t-161 41q-29 0 -52.5 -3t-45.5 -7l6 26 q80 4 172 16.5t170 46.5t130 95t52 164q0 78 -50 128t-128 50q-76 0 -123 -52t-47 -126q0 -47 31 -78t72 -31q27 0 45 8.5t30 18.5q-20 -59 -68 -94t-110 -35q-70 0 -106.5 44t-36.5 110q0 43 22.5 91t70.5 88t120 66.5t170 26.5q55 0 107.5 -11.5t93 -37t66.5 -65.5t26 -97 q0 -90 -51.5 -147.5t-127 -92t-160.5 -52t-153 -30.5v-4q51 0 103.5 -9t94.5 -32.5t68.5 -63.5t26.5 -102q0 -113 -58.5 -187.5t-143.5 -118.5t-181 -62.5t-174 -18.5q-86 0 -162 15.5t-131 49.5t-87 87t-32 127z" />
<glyph unicode="4" horiz-adv-x="1099" d="M-16 381l1040 885h109l-1065 -844v-4h518l387 631l227 26q-113 -160 -216 -325.5t-210 -331.5h244l-17 -37h-247q-53 -92 -109.5 -182t-107.5 -187l-226 -12l254 381h-581z" />
<glyph unicode="5" horiz-adv-x="1099" d="M0 254q0 98 63.5 154.5t159.5 56.5q53 0 100.5 -28.5t82.5 -63.5l-7 -13q-25 10 -44 14.5t-46 4.5q-37 0 -62.5 -15.5t-42 -40t-24.5 -55t-8 -63.5q0 -49 19.5 -88t52 -64.5t74.5 -39t88 -13.5q82 0 145 39t107 100.5t68 137t24 149.5q0 98 -51.5 151.5t-143.5 55.5 q-61 0 -127 -26.5t-119 -63.5l-16 14l467 549q53 -41 109.5 -63.5t123.5 -22.5q53 0 104.5 15.5t94.5 45.5l8 -12q-70 -68 -157 -124t-189 -56q-49 0 -98 13t-90 42l-285 -330l4 -4q66 35 128 47.5t134 12.5q66 0 120 -18.5t94 -52.5t62.5 -81t22.5 -102q0 -109 -50 -191 t-129 -137t-177 -84t-195 -29q-66 0 -135.5 13.5t-127.5 46.5t-95 86t-37 133z" />
<glyph unicode="6" horiz-adv-x="1099" d="M119 270q0 135 50 272.5t138 265.5t205 240.5t251 196.5t277.5 132t282.5 48q68 0 127 -12t102 -36.5t69 -63.5t26 -92q0 -68 -41 -106t-103 -54q4 29 6 54.5t2 53.5q0 59 -20.5 102.5t-55 72t-78.5 43t-91 14.5q-82 0 -167 -37t-169 -98.5t-163 -140t-146.5 -160.5 t-122 -161t-90.5 -142l4 -5q61 78 137 132.5t188 54.5q121 0 182.5 -72t61.5 -178q0 -113 -52 -223.5t-136 -198.5t-191.5 -142.5t-216.5 -54.5q-135 0 -200.5 81t-65.5 214zM279 193q0 -86 31.5 -139.5t111.5 -53.5q57 0 108.5 33t94.5 86t76.5 119.5t58 135t37 132 t12.5 108.5q0 35 -7 69t-23.5 61.5t-43 45t-67.5 17.5q-55 0 -123 -48t-127.5 -131t-99 -196t-39.5 -239z" />
<glyph unicode="7" horiz-adv-x="1099" d="M6 -254l1124 1258l-8 4q-70 -47 -128 -77t-144 -30q-47 0 -97.5 13.5t-99.5 30t-92 29.5t-78 13q-70 0 -99.5 -29.5t-44.5 -65.5t-26.5 -65.5t-44.5 -29.5q-10 0 -20 8t-10 20q0 31 39.5 63t80.5 68q10 8 24.5 34t32 58.5t34 66.5t30.5 59l15 -7l-86 -161l8 -2 q29 25 55.5 44t56.5 31q55 27 131 27q45 0 90.5 -13.5t90.5 -29.5t89 -29.5t87 -13.5q57 0 106 24.5t90 61.5l15 -10q-252 -328 -495 -656.5t-468 -675.5z" />
<glyph unicode="8" horiz-adv-x="1099" d="M25 324q0 111 43 183.5t113.5 119.5t158.5 72.5t180 39.5q-41 94 -41 203q0 80 37 144.5t95.5 109.5t132 69.5t147.5 24.5q72 0 134 -22.5t108.5 -63.5t74 -99t27.5 -132q0 -84 -35 -148.5t-91 -109.5t-129 -68.5t-149 -28.5l-2 17q61 6 110.5 34.5t83.5 71.5t51.5 97.5 t17.5 113.5q0 55 -11.5 110.5t-38 100.5t-70.5 74t-110 29q-51 0 -91 -23.5t-66.5 -60.5t-40 -83t-13.5 -93q0 -80 31 -160t67.5 -160t66.5 -160t30 -157q0 -195 -122 -294.5t-333 -99.5q-168 0 -267 94.5t-99 254.5zM180 336q0 -72 20.5 -133.5t54.5 -106.5t79 -70.5 t94 -25.5q63 0 109.5 29.5t77 75t45 101.5t14.5 107q0 55 -15.5 107.5t-39 103.5t-49 100.5t-46.5 98.5q-160 -20 -252 -115.5t-92 -271.5z" />
<glyph unicode="9" horiz-adv-x="1099" d="M-707 -195q0 47 29 86t88 52q12 -82 38 -150.5t68 -118t99 -77t131 -27.5q102 0 206.5 44t203 115.5t189.5 164t170 189.5t140.5 191.5t102.5 169.5l-4 5q-61 -88 -146.5 -150.5t-206.5 -62.5q-113 0 -174 72.5t-61 178.5q0 98 52 208t134 201t183.5 150.5t199.5 59.5 q125 0 203 -75t78 -232q0 -152 -59.5 -303.5t-160 -290.5t-233.5 -260t-278.5 -209t-295 -139.5t-284.5 -51.5q-88 0 -162.5 14.5t-130 45t-87.5 80t-32 120.5zM338 477q0 -33 6 -67.5t22.5 -62.5t43 -45t67.5 -17q84 0 156 61.5t125 151.5t83.5 191.5t30.5 182.5 q0 117 -37.5 163t-93.5 46q-98 0 -172.5 -64.5t-126 -158.5t-78 -197.5t-26.5 -183.5z" />
<glyph unicode=":" horiz-adv-x="569" d="M49 102q0 47 34 81t81 34t81 -33.5t34 -81.5q0 -47 -34 -80.5t-81 -33.5t-81 33.5t-34 80.5zM344 606q0 47 34 81t81 34t80.5 -34t33.5 -81t-33.5 -80.5t-80.5 -33.5t-81 33.5t-34 80.5z" />
<glyph unicode=";" horiz-adv-x="569" d="M-184 -266q61 0 123.5 17.5t114.5 51t89 82.5t52 115q-14 -8 -29 -10q-10 -2 -33 -2q-39 0 -61.5 27.5t-22.5 62.5q0 53 35 79.5t78 26.5q59 0 98 -32.5t39 -94.5q0 -80 -46 -143.5t-118 -107.5t-156.5 -67.5t-162.5 -25.5v21zM344 606q0 47 34 81t81 34t80.5 -34 t33.5 -81t-33.5 -80.5t-80.5 -33.5t-81 33.5t-34 80.5z" />
<glyph unicode="&#x3c;" horiz-adv-x="1228" d="M254 340v16q117 43 246 95.5t254 105.5t235.5 103.5t190.5 91.5l8 -19q-92 -47 -200.5 -97t-214 -96t-203 -85t-169.5 -66l531 -268l-107 -76z" />
<glyph unicode="=" horiz-adv-x="1228" d="M238 225l16 27h704l-16 -27h-704zM414 496l16 26h705l-17 -26h-704z" />
<glyph unicode="&#x3e;" horiz-adv-x="1228" d="M70 -8l876 354l-624 291l104 96l684 -330l-2 -18l-1028 -418z" />
<glyph unicode="?" d="M172 90q0 47 34 81t81 34t80.5 -34t33.5 -81t-33.5 -81t-80.5 -34t-81 34t-34 81zM303 760q0 55 31 115.5t87 111.5t135 85t177 34q162 0 249 -77t87 -187q0 -100 -40 -167t-103.5 -114t-142 -81t-156.5 -67.5t-148.5 -72.5t-116.5 -96l-12 10q39 55 94.5 97t114.5 78 t117.5 72t104.5 81t75 103t29 140q0 125 -58.5 184.5t-160.5 59.5q-41 0 -82 -16.5t-73 -47t-52.5 -74.5t-20.5 -97q0 -66 36 -109t91 -43q20 0 41 8t37 19q-14 -63 -59 -98.5t-111 -35.5q-82 0 -126 53.5t-44 131.5z" />
<glyph unicode="@" horiz-adv-x="1638" d="M60 335.5q3 145.5 69 278.5q78 156 195.5 267.5t261 184.5t302.5 107.5t318 34.5q147 0 268 -46t193 -127t83.5 -189.5t-56.5 -233.5q-57 -109 -145.5 -188.5t-185.5 -132.5t-192.5 -80t-164.5 -27q-59 0 -85 26t-26 60q0 23 7 45.5t18 46.5q-2 0 -2 1.5t-3 1.5 q-23 -25 -54.5 -54.5t-68 -56.5t-75.5 -45.5t-78 -18.5q-76 0 -103.5 60.5t-9.5 144.5q14 80 60.5 151.5t108 127t131 87.5t135.5 32q41 0 67.5 -10.5t44 -26t26.5 -37t13 -41.5h4l55 98h152q-61 -86 -118.5 -166t-101.5 -147.5t-70.5 -119.5t-26.5 -81q0 -47 45 -47 q92 0 202.5 91t221.5 272q57 94 74.5 199.5t-16.5 194.5t-126 148.5t-252 59.5q-143 0 -265 -43t-222.5 -115t-178 -167t-133.5 -202q-74 -139 -89 -286.5t29 -269.5t149.5 -200.5t273.5 -78.5q186 0 360 65.5t324.5 171t273.5 236.5t207 262l23 -8q-70 -121 -193 -255 t-283.5 -247t-351 -185.5t-395.5 -72.5q-215 0 -354.5 80t-206 202.5t-63.5 268zM664.5 290q15.5 -40 46.5 -40q35 0 93 44t114.5 109.5t97.5 144.5t41 146q-2 35 -23.5 54.5t-52.5 19.5q-41 0 -90 -31.5t-93 -81t-77 -111t-43 -122.5q-29 -92 -13.5 -132z" />
<glyph unicode="A" horiz-adv-x="1781" d="M-231 238q0 59 32.5 108t98.5 49q41 0 69.5 -25.5t28.5 -62.5q0 -55 -33 -79.5t-86 -24.5q0 -43 20.5 -78t51.5 -57.5t69.5 -35t75.5 -12.5q92 0 181.5 32t175.5 85t165.5 123t153.5 143.5t139.5 148.5t120.5 136q113 127 235 251t255 233.5t279.5 196.5t307.5 136 l15 -12q-156 -176 -298.5 -359.5t-250 -361.5t-172 -343t-64.5 -306q0 -53 18.5 -75.5t49.5 -22.5q59 0 155.5 65.5t198.5 169.5q33 35 69 75t69.5 80t61.5 74.5t46 57.5l16 -10q-47 -61 -107.5 -138t-158.5 -176q-104 -104 -207.5 -173.5t-208.5 -69.5q-51 0 -84.5 16 t-53 44t-28 62.5t-8.5 73.5q0 125 41 240.5t97 220.5h-287q-84 -98 -187.5 -211t-222.5 -208t-250 -158.5t-272 -63.5q-61 0 -117.5 14.5t-101.5 44t-71.5 74.5t-26.5 109zM1040 662h277q115 203 260 385t317 342l-4 4q-242 -127 -445.5 -315.5t-404.5 -415.5z" />
<glyph unicode="B" horiz-adv-x="2009" d="M61 231q0 59 32 102.5t97 43.5q47 0 75 -29t28 -72q0 -39 -24.5 -65.5t-49.5 -30.5q-2 -8 -2 -24q0 -84 54.5 -124t158.5 -40q139 0 244.5 75.5t193.5 197.5t170 272.5t175.5 299t208 280.5t268.5 214q-82 63 -188.5 93t-211.5 30q-145 0 -300.5 -51t-283.5 -148.5 t-210 -235.5t-82 -312q0 -49 13 -102.5t42 -97.5t72 -72.5t100 -28.5q80 0 142.5 35.5t107.5 96t68.5 139.5t23.5 163q0 49 -4 85t-8 68l22 2q4 -25 9.5 -64.5t5.5 -82.5q0 -94 -27 -181t-81 -154t-134 -105.5t-186 -38.5q-78 0 -139.5 25.5t-103.5 71.5t-64.5 109.5 t-22.5 139.5q0 113 47 213t127 184t185.5 152.5t222 115.5t238.5 73t233 26q137 0 255.5 -24.5t233.5 -72.5q80 35 163 64t171 33l4 -13q-29 0 -70 -10t-83 -26.5t-78.5 -36t-55.5 -37.5q78 -45 125 -116t47 -163q0 -88 -44 -150.5t-110.5 -104.5t-145.5 -65.5t-150 -35.5 l-2 -4q63 -8 123.5 -19.5t108.5 -38t77 -74.5t29 -128q0 -113 -48.5 -204t-128 -154.5t-180 -97.5t-205.5 -34q-43 0 -88 11.5t-80.5 34t-59.5 57t-24 82.5q0 53 37 92t90 39q61 0 109 -41q-41 -25 -60.5 -62t-19.5 -82q0 -53 28.5 -79.5t82.5 -26.5q80 0 145.5 44 t110.5 110.5t69.5 146.5t24.5 151q0 135 -70.5 198t-218.5 63l2 16q76 4 149.5 27.5t132 67.5t95.5 110.5t37 158.5q0 57 -20.5 109.5t-65.5 91.5q-102 -82 -184 -211t-163 -275.5t-169 -295t-202 -268t-263.5 -194.5t-351.5 -75q-66 0 -128.5 17.5t-111.5 51.5t-80 83 t-31 112z" />
<glyph unicode="C" horiz-adv-x="1366" d="M152 403q0 131 55 262.5t148.5 251t217 222t261 178.5t278.5 119t270 43q59 0 114.5 -12.5t98.5 -40t69 -74.5t26 -117q0 -76 -37 -136.5t-95.5 -101.5t-130 -63.5t-139.5 -22.5q-43 0 -83 10.5t-70.5 32t-50 55t-19.5 81.5q0 29 8 57.5t17 42.5l20 -6q-10 -18 -15 -45 t-5 -49q0 -66 40.5 -104t104.5 -38q66 0 126 33t106 85t73 116.5t27 128.5q0 45 -19.5 72.5t-49.5 43t-61.5 21.5t-56.5 6q-106 0 -223 -47t-230.5 -128t-216 -189.5t-180 -233.5t-124 -258t-46.5 -262q0 -76 17.5 -138.5t52.5 -108.5t86 -71.5t119 -25.5q88 0 172 39 t150.5 105.5t106.5 153.5t40 181q0 84 -35 141.5t-125 57.5q-47 0 -90 -24.5t-82 -60.5t-69.5 -76t-53.5 -73l-20 10q35 53 75.5 101.5t89 87.5t105.5 61.5t127 22.5q106 0 174 -64.5t68 -169.5q0 -125 -62.5 -221t-162 -161.5t-221.5 -100.5t-240 -35q-205 0 -317.5 117 t-112.5 319z" />
<glyph unicode="D" horiz-adv-x="1933" d="M70 59q0 23 17 31t60 8q41 0 125 -16t197 -33q117 20 208 101t169 197t151.5 253t157.5 271.5t186.5 251t235.5 190.5q-82 72 -196.5 106.5t-225.5 34.5q-162 0 -310.5 -53t-260 -151.5t-178 -237t-66.5 -307.5q0 -55 14.5 -108.5t43 -96.5t74.5 -68.5t108 -25.5 q96 0 168.5 54t122 140t75 191.5t27.5 207.5h24q-6 -166 -49 -287.5t-112.5 -202.5t-157.5 -121t-184 -40q-74 0 -132.5 29t-99.5 77t-63.5 110.5t-22.5 131.5q0 109 39 210.5t106.5 188.5t158.5 157.5t195.5 120.5t217.5 78t221 28q78 0 142.5 -7.5t124 -23.5t116.5 -44 t121 -69q100 63 215 99t231 53v-17q-113 -10 -209 -59t-182 -121q205 -190 205 -475q0 -205 -85 -361.5t-227.5 -262t-327.5 -158.5t-386 -53q-94 0 -197.5 14t-185.5 31q-45 -6 -101.5 -15.5t-144.5 -9.5q-86 0 -119.5 19.5t-33.5 39.5zM516 37q25 -6 115 -19.5t213 -13.5 h9q181 0 336 82q159 84 275.5 221t183 310.5t66.5 349.5q0 78 -16.5 153.5t-67.5 134.5q-111 -119 -187.5 -240.5t-140 -240.5t-128 -229.5t-150.5 -206.5t-207 -172t-301 -125v-4z" />
<glyph unicode="E" horiz-adv-x="1402" d="M111 322q0 100 41 166.5t103 113.5t135 82t136.5 72t106.5 82t47 112q8 147 52 248.5t116 163t166 89.5t198 28q55 0 114.5 -10.5t108 -37t79 -71.5t30.5 -113q0 -74 -33.5 -128t-87 -91t-119 -55.5t-130.5 -18.5q-39 0 -77 5.5t-75 17.5l2 18q45 -16 94 -16 q129 0 204 67.5t75 202.5q0 96 -51.5 150.5t-149.5 54.5q-59 0 -107.5 -23.5t-83 -62.5t-56 -90t-29.5 -104q-12 -72 -23.5 -125.5t-35 -95.5t-64.5 -75.5t-113 -68.5q-82 -39 -149.5 -79t-114.5 -92t-74 -124t-27 -174q0 -82 34 -144.5t89.5 -105.5t126 -64.5t146.5 -21.5 q80 0 151.5 23.5t127 69.5t88 114t32.5 154t-44 135t-130 49q-76 0 -136.5 -39t-109.5 -92l-14 10q74 76 154.5 117t189.5 41q55 0 102.5 -15.5t83 -45t56 -73.5t20.5 -100q0 -106 -73.5 -180t-181 -120t-226.5 -65.5t-209 -19.5q-84 0 -171 17.5t-156.5 58.5t-113.5 108.5 t-44 170.5z" />
<glyph unicode="F" horiz-adv-x="1630" d="M-29 258q0 57 35 101t90 44q45 0 76 -25.5t31 -72.5q0 -31 -18.5 -58.5t-57.5 -31.5q4 -57 25.5 -98t57.5 -65.5t83 -36t98 -11.5q137 0 241.5 66.5t187.5 166t149.5 216t128.5 215.5h-90v24h102q59 117 130 215.5t159 175t195.5 130t240.5 79.5v4q-135 0 -267 4.5 t-268 4.5q-96 0 -210.5 -7.5t-231.5 -26t-224.5 -49t-191.5 -77.5t-134 -111.5t-50 -152.5q0 -59 33 -102.5t82 -71t107.5 -40t109.5 -12.5q106 0 196.5 27t155 79t100 127t35.5 173v35t-2 22h25q0 -16 1 -30.5t1 -28.5q0 -104 -42 -195.5t-114 -158t-165 -105.5t-197 -39 q-63 0 -126 19.5t-113 56.5t-81 92t-31 125q0 117 56.5 193.5t140.5 134.5q125 86 265.5 138t287.5 79.5t298 37t292 9.5q84 0 174 -4t173 -9.5t151.5 -9.5t111.5 -6q55 -2 79 -18.5t24 -57.5q0 -35 -40 -55t-128 -20q-63 0 -126 5t-128 5q-63 0 -120.5 -29.5t-111 -79 t-99.5 -112t-86 -127t-73 -127t-57 -109.5q39 4 83 5t84 11.5t72.5 33t49.5 65.5q55 4 111.5 6t111.5 2q-68 -51 -136.5 -105.5t-130 -116t-111.5 -131t-83 -149.5h-16q33 100 78 193.5t100 179.5q-20 -4 -50 -7t-62 -5t-61.5 -4t-49.5 -2q-82 -133 -169 -258t-194.5 -220.5 t-243 -152.5t-313.5 -57q-61 0 -134 15t-135.5 48t-104.5 86t-42 129z" />
<glyph unicode="G" horiz-adv-x="1290" d="M20 227q0 66 30 117t100 51q39 0 71.5 -22.5t32.5 -79.5q0 -66 -74 -82q-2 -14 -5 -28.5t-3 -30.5q0 -53 19.5 -85t52 -48.5t74.5 -21.5t88 -5q111 0 200.5 56t163.5 140t134.5 180.5t111.5 174.5l-4 4q-41 -37 -89.5 -70t-100.5 -57.5t-108.5 -39.5t-113.5 -15 q-135 0 -209 81.5t-74 212.5q0 115 46.5 214.5t120 182.5t164.5 150.5t183 118.5q-6 23 -11 43.5t-5 50.5q0 78 42 134.5t114 76.5v-16q-57 -14 -94 -65.5t-37 -110.5q0 -27 3 -54.5t13 -50.5q55 29 123 55.5t141.5 46t149.5 32t145 12.5q158 0 243 -45t85 -144 q0 -72 -44 -118t-108.5 -72.5t-136.5 -36.5t-125 -10q-141 0 -249.5 43t-198.5 149q-63 -49 -127 -116.5t-115 -146.5t-82 -166t-31 -173q0 -47 9.5 -89t32 -72.5t58.5 -49t87 -18.5q43 0 94 18.5t99 49t87 68.5t58 77q23 45 42 84t44.5 68.5t62.5 46t92 16.5q63 0 64 -23 q0 -27 -19.5 -62.5t-44 -72.5t-48 -68.5t-32.5 -54.5q-18 -49 -56 -112.5t-91 -129t-124 -129t-156 -112.5t-185 -80t-215 -31q-61 0 -126.5 13.5t-118 44t-86.5 81t-34 121.5zM897 1257q72 -86 157 -126.5t199 -40.5q76 0 141.5 18t113.5 50t76 74t28 89q0 61 -44 97 t-165 36q-57 0 -127 -16.5t-140.5 -44t-133 -63.5t-105.5 -73z" />
<glyph unicode="H" horiz-adv-x="1933" d="M-131 223q0 29 7 58.5t22.5 53t39 38t58.5 14.5q41 0 69.5 -27.5t28.5 -68.5q0 -86 -78 -92q0 -100 50.5 -147.5t146.5 -47.5q115 0 200 36t169 120q121 121 195.5 240.5t135 236.5t121 227.5t150.5 211t226 190.5t347 164v4q-115 0 -257 -9.5t-289.5 -32t-287 -61.5 t-248 -101.5t-175 -148.5t-66.5 -204q0 -86 47 -142.5t131 -56.5q59 0 111.5 22.5t92.5 63.5t63.5 96t23.5 121q0 33 -8 64.5t-18 54.5l20 4q12 -23 21.5 -57.5t9.5 -65.5q0 -88 -35 -153.5t-91.5 -109.5t-130 -66.5t-153.5 -22.5q-113 0 -184.5 69.5t-71.5 184.5t64.5 203 t174 151t251 106t295 69t308 36t287.5 10q86 0 141.5 3t92.5 7.5t60.5 7.5t43.5 3q16 0 25.5 -6.5t9.5 -12.5q0 -16 -19.5 -23t-86.5 -7q-23 0 -42.5 2t-43.5 2q-125 -35 -219.5 -107t-168 -165t-135 -202.5t-122.5 -218.5h307q74 143 182.5 271.5t238.5 224.5t277.5 152.5 t298.5 56.5q37 0 79 -7t76 -23.5t56.5 -42t22.5 -62.5t-26 -55.5t-60 -18.5q-37 0 -59.5 26.5t-44 59.5t-48.5 59.5t-74 26.5q-76 0 -142.5 -26.5t-122.5 -66.5t-104 -86t-87 -87q-76 -82 -152 -197t-134 -243t-95 -258t-37 -244q0 -27 5 -54.5t17.5 -50t33 -37t50.5 -14.5 q39 0 86 29.5t98.5 78t103.5 105.5t97 113.5t82 103.5t58 74l18 -14q-51 -66 -126 -163.5t-163 -187.5t-182 -153.5t-184 -63.5q-55 0 -92 20.5t-58.5 54.5t-31 78t-9.5 93q0 129 41 261t96 243h-305q-74 -147 -162 -280.5t-198.5 -235t-250.5 -161.5t-321 -60 q-51 0 -114.5 13t-119.5 43t-93 76t-37 111z" />
<glyph unicode="I" horiz-adv-x="1251" d="M-109 240q0 57 33 102t94 45q47 0 76 -27.5t29 -72.5q0 -41 -18.5 -62.5t-65.5 -31.5q0 -98 59.5 -143.5t161.5 -45.5q141 0 251 68.5t200 180.5t171 253t162 287q61 109 126 198.5t151 167.5t206 144.5t292 126.5v4q-92 0 -231.5 -5.5t-294 -24t-310.5 -54t-279.5 -99 t-201.5 -160t-78 -235.5q0 -92 52 -146.5t142 -54.5q53 0 104.5 21.5t91.5 60.5t64.5 92.5t24.5 116.5q0 31 -8 60.5t-21 56.5l21 4q12 -25 22.5 -55.5t10.5 -65.5q0 -80 -33 -143.5t-87 -107.5t-126 -66.5t-150 -22.5q-59 0 -110 18.5t-89 53.5t-59.5 84t-21.5 110 q0 125 71.5 217.5t190.5 158t270.5 106.5t311 64.5t314.5 31.5t278 8q139 0 220 10.5t124 10.5q23 0 42 -8.5t19 -24.5q0 -18 -21.5 -25.5t-46.5 -7.5q-6 0 -25.5 1t-46 3l-53 4t-45.5 4q-129 -53 -221 -127.5t-163.5 -164t-128 -187.5t-111.5 -200.5t-115.5 -205 t-140.5 -198.5q-133 -160 -302 -261t-376 -101q-59 0 -130 12t-132.5 41.5t-102.5 80t-41 126.5z" />
<glyph unicode="J" horiz-adv-x="1251" d="M-428 -360q0 92 57.5 156.5t150.5 106.5t211 67.5t237.5 44t231 31.5t193.5 32q86 145 160 286.5t148.5 272.5t155.5 250t182.5 220t228.5 183t295 140v4q-100 0 -241.5 -5.5t-296.5 -25t-306.5 -56t-272 -99t-195.5 -155t-75 -223.5q0 -102 49.5 -158.5t147.5 -56.5 q53 0 102 21.5t89 60.5t63.5 91.5t23.5 115.5q0 29 -6 57.5t-18 55.5l20 6q12 -25 20.5 -56.5t8.5 -66.5q0 -68 -28.5 -129t-79 -106.5t-120 -72t-153.5 -26.5q-63 0 -116.5 20.5t-92.5 55.5t-60.5 84t-21.5 106q0 104 53.5 184.5t141.5 140.5t202.5 103t238.5 72t246 46.5 t226.5 26.5t180 11t106.5 2q141 0 233.5 10.5t155.5 10.5q16 0 29.5 -7.5t13.5 -23.5t-17.5 -23.5t-68.5 -7.5q-33 0 -64.5 2t-64.5 4q-113 -23 -214 -105.5t-193.5 -200.5t-175.5 -258t-155.5 -276.5t-137 -255t-119.5 -196.5l2 2l4 -4q106 31 186 69t146.5 87t128 113.5 t131.5 150.5l14 -14q-70 -88 -132.5 -156t-133 -118t-155.5 -89t-202 -72q-82 -135 -178 -263t-211.5 -226t-257 -157.5t-315.5 -59.5q-57 0 -116.5 13t-109 42t-80 76t-30.5 115zM-256 -373q0 -98 60.5 -153.5t158.5 -55.5q84 0 157 31t134 82t114.5 116.5t100.5 136.5 t90 141.5t82 129.5q-51 -14 -138 -26.5t-186.5 -28.5t-202 -42t-184.5 -68t-134 -106.5t-52 -156.5z" />
<glyph unicode="K" horiz-adv-x="1857" d="M-115 240q0 55 31 101t92 46q43 0 74 -29.5t31 -72.5q0 -39 -22.5 -59.5t-57.5 -26.5q2 -109 55 -152t154 -43q102 0 189 41t160 109.5t135 154.5t114.5 176t97.5 176.5t86 151.5q78 127 149.5 221t158.5 167t196.5 129t261.5 108v4q-98 0 -235.5 -7.5t-286 -28t-295 -58 t-262 -100t-187 -153.5t-71.5 -216q0 -86 48 -142.5t134 -56.5q57 0 108.5 25.5t91 67.5t63.5 94.5t24 105.5q0 31 -8.5 59.5t-22.5 57.5l20 8q10 -23 22.5 -54.5t12.5 -74.5q0 -74 -32.5 -136.5t-88 -107.5t-127 -69.5t-147.5 -24.5q-57 0 -106.5 18.5t-86 52t-57 81.5 t-20.5 108q0 125 79.5 216t206.5 154.5t286 103.5t316.5 62.5t300 30.5t234.5 8q115 0 195.5 6.5t113.5 6.5q16 0 37 -4.5t21 -18.5q0 -20 -20.5 -27.5t-39.5 -7.5q-49 0 -95 4.5t-81 8.5q-33 -6 -96.5 -36t-114.5 -73q-104 -90 -179 -183t-136.5 -194.5t-121 -213 t-132.5 -236.5q-57 -96 -132 -189.5t-172.5 -166t-220 -117.5t-276.5 -45q-61 0 -126 12t-119 43t-89 81t-35 124zM1245 745q0 10 13.5 14.5t23.5 4.5q23 0 44.5 -3t43.5 -3q102 0 187 52t165 130t161 168t173 168t204 130t251 52q41 0 79 -8t66.5 -26.5t47 -47t18.5 -67.5 q0 -45 -16.5 -76t-44 -49.5t-64.5 -24.5t-76 -6q16 43 30.5 87t14.5 91q0 49 -21.5 76t-72.5 27q-59 0 -116.5 -51.5t-122 -128t-143.5 -167t-181.5 -167t-232.5 -128t-298 -51.5v-4q92 -37 136.5 -96t44.5 -154q0 -51 -19.5 -110.5t-43 -115.5t-43 -106.5t-19.5 -84.5 q0 -66 51 -66q23 0 63.5 18.5t97 58.5t126 103.5t149.5 155.5q55 66 93 115t73 94l14 -14q-29 -41 -74 -99.5t-99 -122t-116.5 -127t-128 -112.5t-131.5 -79q-62 -28 -121 -28h-8q-72 0 -116.5 46t-44.5 116q0 66 27.5 130.5t62.5 129.5q33 63 60.5 121.5t27.5 105.5 q0 66 -32 93.5t-91 27.5q-10 0 -22.5 -2t-24.5 -2q-6 0 -15.5 1t-9.5 11z" />
<glyph unicode="L" horiz-adv-x="1175" d="M-332 -12q0 20 14.5 32.5t60.5 19.5t131 10t228 3q96 0 182.5 68.5t169.5 185.5t165.5 269.5t173.5 320.5q-55 14 -112.5 36.5t-106 59.5t-79 91.5t-30.5 127.5q0 104 62.5 169t179.5 65q31 0 59.5 -5t48.5 -18l-8 -18q-23 8 -46.5 12t-51.5 4q-57 0 -99.5 -17.5t-69 -47 t-39 -67.5t-12.5 -79q0 -57 26 -105t70 -85t101 -62.5t121 -37.5q55 111 142 211t195.5 177.5t233.5 124t256 46.5q43 0 87 -8.5t80 -28t59.5 -53t23.5 -84.5q0 -82 -49 -145.5t-129 -112t-179.5 -81t-199.5 -54t-190 -31t-154 -9.5q-70 -137 -143.5 -264t-167.5 -235.5 t-213 -191.5t-277 -132v-4q61 0 141 -3t152 -24.5t123 -66.5t57 -127q80 86 173.5 180t190.5 187.5t192.5 180.5t179.5 158l12 -14q-80 -72 -181.5 -164t-204 -189t-197.5 -193.5t-165 -174.5q-8 -37 -24.5 -70.5t-41 -58t-54 -40t-62.5 -15.5q-10 0 -27.5 2t-17.5 18 q0 12 8 19.5t19.5 20t19.5 35t8 65.5q0 82 -33.5 132t-84 77.5t-108.5 36t-110 8.5q-27 0 -71.5 -12.5t-97 -27t-106.5 -26.5t-101 -12q-37 0 -70 5t-33 36zM993 897q59 0 137 8t160 27.5t161 53.5t140.5 84t99.5 120t38 162q0 41 -28 71.5t-95 30.5q-92 0 -183.5 -58.5 t-173.5 -143.5t-147.5 -181t-108.5 -174z" />
<glyph unicode="M" horiz-adv-x="2048" d="M-281 215q0 63 32 108.5t99 45.5q39 0 66 -25t27 -63q0 -94 -93 -101q2 -90 59.5 -127t141.5 -37q111 0 241 62.5t269 208.5q104 109 199.5 229.5t192 242.5t197.5 237.5t219 214t256 173t306 111.5l13 -16q-129 -45 -221.5 -137.5t-166 -211t-137 -257t-135.5 -276.5 t-160 -267t-209 -232l5 -4q145 94 265 220t230.5 262.5t216 273.5t221.5 254q90 92 188.5 161.5t196 117t189.5 72t172 24.5q78 0 109.5 -8.5t31.5 -30.5q0 -23 -26.5 -26t-42.5 -3q-27 0 -50.5 5t-46 9.5t-38 8.5t-25.5 4q-119 -53 -205 -161t-159.5 -244t-145.5 -287.5 t-161 -290t-205.5 -252t-282.5 -174.5v-4h18q215 0 360.5 49t247 124.5t169 167t122.5 177.5l17 -11q-57 -98 -131 -193t-178.5 -170t-251 -122t-349.5 -47q-33 0 -66.5 2t-47.5 2q-12 0 -45 -2t-68 -2q-55 0 -55 25q0 29 43 28q33 0 70.5 -8t84.5 -16q51 10 108.5 64 t116 135t112.5 180.5t100 197.5q51 113 117.5 229.5t153.5 226t195.5 204t241.5 161.5l-4 5q-154 -39 -278.5 -117t-233.5 -179.5t-204 -218t-188 -236.5t-190.5 -235.5t-208.5 -212.5q-82 -72 -174 -138t-192 -111l-19 16q94 92 159 205.5t120 238.5t112.5 255t138.5 257 t197.5 244t288.5 215l-4 4q-150 -55 -272.5 -146t-227 -196.5t-193.5 -217t-167 -210.5q-84 -104 -176 -221t-199.5 -217t-230.5 -165.5t-268 -65.5q-53 0 -106.5 15t-97.5 45t-72 74t-28 101z" />
<glyph unicode="N" horiz-adv-x="1630" d="M-305 236q0 61 33.5 102t91.5 41q45 0 73.5 -25.5t28.5 -62.5q0 -80 -80 -96q-1 -13 -1 -25q0 -70 39 -108q46 -46 132 -46q111 0 210.5 52.5t187.5 138.5t164.5 195.5t141 223t118 222t94.5 192.5l73 156q12 84 36 138.5t50.5 87t52 45t40.5 12.5q20 0 20 -17 q0 -8 -5 -16t-10 -24.5t-10.5 -47.5t-5.5 -82q0 -104 18.5 -211.5t41 -220t40 -229.5t17.5 -242q0 -45 -6 -88h4q33 82 85 197.5t121 243.5t150.5 254t174 225.5t192.5 162t207 62.5q88 0 143.5 -45t55.5 -127q0 -51 -23 -93t-59.5 -73t-81.5 -47.5t-88 -18.5v13 q53 12 91 49t38 104q0 53 -41 92t-119 39q-125 0 -252 -112.5t-250 -303t-239.5 -441.5t-223.5 -527l-28 4q4 35 7 72t3 71q0 133 -20.5 264.5t-47 260.5t-48 259t-25.5 261h-5q-47 -96 -105 -221t-128 -255t-154 -254t-182 -221.5t-212 -156.5t-245 -59q-55 0 -106 17 t-89 51t-61.5 81t-23.5 107z" />
<glyph unicode="O" horiz-adv-x="1517" d="M158 340q0 113 35.5 231.5t100 230t153 213t190.5 179.5t216 129t228 61q66 61 120 78t104 17q123 0 181 -92.5t58 -235.5q0 -90 -25.5 -187.5t-66.5 -190.5t-92 -180t-103 -157q35 -16 73 -20t79 -4q49 0 97 12t93.5 32.5t83 45t64.5 49.5l12 -14q-80 -72 -171 -111 t-175 -39q-96 0 -174 29q-66 -82 -145.5 -163t-171 -144.5t-193.5 -102.5t-213 -39q-102 0 -171 31t-110.5 83t-59 118.5t-17.5 140.5zM367 322q0 -61 10 -119t33.5 -102t63.5 -70.5t99 -26.5q90 0 178.5 44t167 109.5t141 144.5t101.5 149q-63 35 -114.5 85t-87 112.5 t-55 133t-19.5 144.5q0 119 46 230.5t126 197.5l-4 4q-102 -20 -192.5 -78.5t-167.5 -141.5t-137 -185.5t-102 -211t-64.5 -216t-22.5 -203.5zM967 975q0 -68 10 -141.5t34.5 -142t64.5 -126t102 -92.5q45 74 82.5 161t64.5 178t41 182t14 175q0 53 -8 100.5t-26.5 83.5 t-49 56.5t-75.5 20.5q-37 0 -64 -12.5t-47 -33.5q45 -2 76 -16t49 -37.5t26.5 -54.5t8.5 -62q0 -25 -3 -42t-7 -33l-23 2q4 12 6 34.5t2 41.5q0 29 -8 56t-27 47q-18 18 -48 30q-25 10 -62 10h-13q-31 -33 -53 -79t-37.5 -98.5t-22.5 -106.5t-7 -101z" />
<glyph unicode="P" horiz-adv-x="1669" d="M-106 70q0 49 102 49q68 0 136.5 -11.5t130 -23.5t109.5 -23.5t74 -11.5q119 16 208 101.5t169 210t160 276t181.5 301t232.5 282t311 220.5v4q-47 12 -109.5 19t-148.5 7q-98 0 -212 -24.5t-228.5 -71.5t-221 -115.5t-189.5 -156.5t-132 -194.5t-49 -229.5q0 -41 8 -82 t27.5 -75t52.5 -54.5t80 -20.5q78 0 139 43t104 104.5t66 129.5t23 119v43q0 27 -5 49h25q2 -20 3 -38.5t1 -47.5q0 -70 -28.5 -150t-84 -146.5t-137.5 -110.5t-190 -44q-57 0 -103.5 23.5t-79 63.5t-49 90.5t-16.5 105.5q0 109 56.5 211t150.5 193.5t217 166t256 129 t268 85t252 30.5q90 0 157.5 -9t139.5 -26q63 25 143 48.5t146 29.5l2 -16q-61 -10 -120.5 -31t-115.5 -49q106 -45 173 -127t67 -203q0 -88 -44 -158.5t-112.5 -120t-152.5 -76t-162 -26.5t-129 37t-51 90q0 41 29.5 70.5t82.5 29.5q31 0 51.5 -6t36.5 -16 q-39 -20 -60.5 -49t-21.5 -64t20.5 -51t47.5 -16q55 0 107.5 44t94.5 108.5t66.5 139t24.5 138.5q0 78 -23.5 136t-83.5 93q-119 -82 -212 -203.5t-176 -261t-166 -283t-182 -268.5t-222 -219t-289 -133v-4q31 -6 73 -13t85 -13.5t85 -9.5t75 -3q319 0 584.5 128t461.5 403 l14 -9q-84 -125 -176 -228t-202.5 -177t-243.5 -114t-303 -40q-53 0 -116.5 5t-129 14.5t-128 20.5t-114.5 26q-33 -10 -76.5 -20.5t-90 -17.5t-91.5 -11t-82 -4q-43 0 -88 6t-81.5 17t-59 28.5t-22.5 38.5z" />
<glyph unicode="Q" horiz-adv-x="1478" d="M-162 72q0 33 33 56.5t83 38.5t107.5 22.5t106.5 7.5q98 0 199.5 -20.5t173.5 -35.5q90 41 189 98.5t196.5 128t184.5 151.5t153.5 170t106.5 184.5t40 193.5q0 74 -16.5 141.5t-53 119.5t-94 83t-141.5 31q-94 0 -177 -36t-142.5 -98.5t-94.5 -146.5t-35 -180 q0 -55 14.5 -105.5t43 -89t74 -61.5t106.5 -23q96 0 175 51.5t136 129.5l17 -9q-68 -98 -172.5 -159.5t-227.5 -61.5q-63 0 -118.5 20.5t-96.5 59.5t-65.5 92.5t-24.5 116.5q0 117 64.5 215t162 170t213 112t220.5 40q92 0 170.5 -23.5t136 -71t90.5 -120t33 -168.5 q0 -111 -56.5 -216.5t-146.5 -202.5t-205 -182t-230.5 -155t-222 -121t-182.5 -80v-4q57 -10 102.5 -20.5t89.5 -17.5t91 -11t106 -4q143 0 246 35t185.5 97t156.5 148.5t160 186.5l14 -12q-82 -104 -173 -210t-196.5 -192t-227.5 -139t-267 -53q-57 0 -114.5 11t-113 29.5 t-108.5 40t-106 42.5q-84 -39 -175.5 -62.5t-183.5 -23.5q-20 0 -56 3t-71 13t-60.5 27.5t-25.5 48.5zM-35 90q0 -25 14.5 -39t36 -22.5t45 -10.5t43.5 -2q74 0 148 14.5t141 43.5q-27 12 -66.5 29.5t-82.5 33t-84 25.5t-70 10q-20 0 -41.5 -3t-40 -11t-31 -24.5 t-12.5 -43.5z" />
<glyph unicode="R" horiz-adv-x="1857" d="M-109 242q0 57 32 101t81 44q41 0 74 -24.5t33 -67.5q0 -41 -20.5 -64.5t-59.5 -27.5q0 -109 58 -154t159 -45q115 0 205 49t167.5 132t145.5 191.5t135.5 227.5t139 240t155.5 229.5t185.5 195.5t228.5 138q-51 27 -109.5 43t-115 24.5t-106.5 10.5t-87 2 q-160 0 -328 -53.5t-305 -150.5t-225 -233.5t-88 -301.5q0 -111 63.5 -179.5t175.5 -68.5q88 0 161 47t126 119.5t83 159.5t30 169q0 18 -1 45t-3 56l22 2q2 -20 4 -43t2 -45q0 -104 -32.5 -202.5t-95 -175.5t-152.5 -123t-203 -46q-70 0 -130 20.5t-106.5 60.5t-73 97 t-26.5 129q0 117 52.5 217t139.5 183t199.5 146.5t232.5 106.5t240.5 65.5t221.5 22.5q72 0 135 -2t124.5 -10t123 -23.5t131.5 -39.5q68 25 135 42t127 17v-16q-55 -8 -109.5 -23.5t-103.5 -42.5q76 -45 130 -116.5t54 -163.5q0 -102 -49 -174t-126 -117t-169 -66.5 t-178 -25.5v-5q61 -27 109.5 -78t48.5 -128q0 -63 -19.5 -127t-42 -124.5t-42 -115.5t-19.5 -104q0 -63 47 -64q59 0 141 51t174 144q45 45 87 94t80 95t67.5 87t50.5 68l16 -15q-51 -72 -120.5 -159.5t-147.5 -169.5q-102 -104 -200.5 -168t-207.5 -64q-78 0 -123 43 t-45 115q0 66 26 137.5t56.5 141t56 129t25.5 96.5q0 39 -10 60.5t-29.5 33.5t-46 17t-59.5 10l4 16q31 -2 61.5 0t75.5 8q86 12 148.5 58.5t102.5 104.5t58.5 120.5t18.5 107.5q0 66 -18.5 111t-65.5 90q-133 -96 -231.5 -236.5t-185.5 -295t-174 -307t-199.5 -274.5 t-261 -197.5t-359.5 -75.5q-57 0 -121 14t-116 46t-86 82t-34 120z" />
<glyph unicode="S" horiz-adv-x="1138" d="M-119 358q0 39 10.5 76t32 66.5t53 47t74.5 17.5q41 0 75 -23.5t34 -68.5q0 -55 -40 -85t-91 -32q-10 -29 -13.5 -57.5t-3.5 -56.5q0 -70 34 -118t86 -77t115.5 -42t121.5 -13q102 0 177 37t128 99t87 142t53.5 168t27.5 177.5t12 166.5q6 141 39 268.5t97.5 222.5 t161.5 150.5t232 55.5q57 0 111.5 -11.5t95.5 -38t66.5 -66.5t25.5 -99q0 -49 -19 -83t-51 -53.5t-74 -28.5t-87 -9q29 47 44 92t15 102q0 78 -42 124t-109 46q-80 0 -132 -39t-87 -105.5t-53.5 -155.5t-31 -188.5t-20.5 -204t-20 -204.5q-10 -88 -47 -190.5t-113 -191.5 t-197.5 -148.5t-302.5 -59.5q-88 0 -174 23.5t-152.5 73t-107.5 123t-41 171.5z" />
<glyph unicode="T" horiz-adv-x="1630" d="M90 256q0 57 36 98t95 41q51 0 77 -24.5t26 -67.5q0 -41 -21.5 -63.5t-56.5 -32.5q8 -102 72.5 -152.5t201.5 -50.5q133 0 235.5 64.5t185.5 164t151.5 220t132.5 231.5q72 125 136 220t139 167t169 124t225 91v4q-31 4 -76.5 7t-100 5.5t-112 3.5t-106.5 1 q-127 0 -260 -9.5t-258 -29t-234.5 -53t-192.5 -82t-130 -113t-47 -148.5q0 -55 30.5 -98t77.5 -70.5t104.5 -42t112.5 -14.5q82 0 169 23.5t160 69.5t119 118t46 166q0 45 -6 90l22 2q6 -29 7.5 -56.5t1.5 -55.5q0 -88 -44 -169t-118 -142.5t-171 -98.5t-204 -37 q-61 0 -121.5 18.5t-106.5 55.5t-75 93t-29 132q0 121 72 212t187.5 156.5t262 108.5t294 67.5t282.5 35t231 10.5q90 0 183.5 -3t176.5 -7t151.5 -8.5t109.5 -6.5q55 -2 78.5 -22.5t23.5 -50.5q0 -33 -38.5 -55.5t-122.5 -22.5q-78 0 -142.5 4t-118.5 4q-100 0 -183 -67.5 t-157.5 -174t-145.5 -237.5t-146 -258q-78 -131 -165 -234.5t-188.5 -176.5t-220.5 -111.5t-262 -38.5q-63 0 -137 13t-137.5 45t-106.5 85t-43 133z" />
<glyph unicode="U" horiz-adv-x="1705" d="M188 918q0 119 71 223t181.5 183t246.5 125t265 46q92 0 155.5 -49t63.5 -148q0 -61 -47 -155t-118.5 -206t-153.5 -230.5t-153.5 -229t-119 -205t-47.5 -153.5q0 -41 23 -61.5t61 -20.5q68 0 162 57.5t192.5 147.5t189.5 199.5t155 211.5l475 772l225 9l-532 -828 q-70 -111 -119 -191.5t-78 -140t-42 -103.5t-13 -81q0 -35 13 -54.5t44 -19.5q61 0 141 50.5t166 128t172 171t160 179.5l19 -15q-18 -23 -50 -59.5t-70 -78.5t-79 -85t-78 -80q-123 -121 -221 -184t-199 -63q-102 0 -142 46t-40 115q0 70 33 140.5t69 128.5l-4 4 q-63 -76 -141 -154t-163 -140.5t-175 -101t-180 -38.5q-74 0 -110 40.5t-36 112.5q0 66 47.5 165t119 214t153.5 236.5t153.5 236.5t118.5 212t47 161q0 47 -35.5 73.5t-97.5 26.5q-98 0 -202.5 -46t-188.5 -120.5t-138 -173t-54 -203.5q0 -55 32.5 -101t92.5 -46 q82 0 147.5 50t118.5 118l16 -12q-59 -78 -137 -135.5t-178 -57.5q-86 0 -136.5 50t-50.5 137z" />
<glyph unicode="V" horiz-adv-x="1554" d="M256 874q0 92 51 158t138 116t200 87t234.5 70.5t244.5 66.5t230 74l10 -16q-90 -53 -149.5 -144.5t-103.5 -205t-81 -244.5t-80 -265.5t-100 -264.5t-141 -243l4 -4q102 61 220 138t235.5 166.5t228 189.5t200 212t148.5 233.5t74 250.5q-35 16 -48.5 39t-13.5 60 q0 43 35 70.5t76 27.5q31 0 53.5 -13.5t36.5 -35t21.5 -49t7.5 -54.5q0 -102 -47.5 -205.5t-129 -206t-188 -200.5t-226.5 -190.5t-244 -175.5t-237.5 -153.5t-212 -128t-165.5 -95.5l-19 14q74 113 121 237.5t85 254.5t75 259.5t89 250t128 228t190 191.5v6 q-49 -20 -129 -42.5t-173 -51.5t-187 -66.5t-170 -88t-124 -115t-48 -148.5q0 -66 31.5 -111.5t105.5 -45.5q51 0 88 24.5t61.5 63.5t36 87t11.5 97h24q0 -61 -14 -117.5t-46 -98.5t-81 -67.5t-117 -25.5q-94 0 -156.5 50t-62.5 150z" />
<glyph unicode="W" horiz-adv-x="2048" d="M205 862q0 90 43 154.5t120.5 114t182 87t227.5 74.5t259.5 76t273.5 90l8 -16q-84 -41 -145.5 -125t-109.5 -193.5t-88 -236.5t-82 -254t-91 -245t-115 -210l4 -4q113 98 221.5 201.5t202.5 203t171 188.5t126 155q31 41 55.5 96t47.5 96q39 74 94 134.5t111.5 104.5 t102.5 68.5t66 24.5q31 0 31 -31q0 -14 -18.5 -32.5t-45 -40t-56 -46t-52.5 -53.5q-53 -66 -87 -149.5t-60.5 -178t-52 -199t-60.5 -211t-84 -214t-127 -209.5l4 -4q98 53 212 128t226.5 165t218 194.5t187.5 217t133 230t57 234.5q-27 12 -44 35t-17 51q0 47 29.5 80 t76.5 33q66 0 94.5 -47t28.5 -107q0 -127 -78.5 -266t-204.5 -275.5t-282 -264.5t-309.5 -232t-288.5 -180t-219 -107l-19 13q72 102 120 215.5t85 230.5t66.5 233.5t66.5 227.5l-4 4q-63 -86 -151 -184.5t-188.5 -199.5t-206 -200.5t-205.5 -185.5q-35 -31 -61.5 -56.5 t-51.5 -45t-48.5 -29.5t-53.5 -10q-10 0 -19.5 7t-9.5 19q0 18 16.5 28.5t40 26t51 45t50.5 87.5q63 164 104 329.5t92 319t129 289t215 237.5l-4 4q-59 -20 -141 -43.5t-170 -54.5t-174 -69t-154.5 -89t-110.5 -115.5t-42 -146.5q0 -59 37.5 -106.5t101.5 -47.5 q104 0 150 79t46 208h25q0 -63 -12.5 -121.5t-43 -103.5t-80.5 -71.5t-124 -26.5q-43 0 -82 14t-69.5 39.5t-49 62.5t-18.5 82z" />
<glyph unicode="X" horiz-adv-x="1781" d="M-41 137q0 53 33 85t80 32q43 0 69.5 -27.5t26.5 -66.5q0 -25 -9 -44.5t-24 -29.5q14 -41 44 -61.5t87 -20.5q100 0 210 50t215.5 137.5t199.5 202t164.5 244.5t112.5 267t42 269q0 53 -13 102t-42 86t-73 58.5t-103 21.5q-104 0 -193.5 -55.5t-153 -140.5t-99 -184 t-35.5 -188q0 -45 12 -93t36.5 -86t64.5 -62.5t96 -24.5q59 0 109 29t92 73t75 97t55 102l17 -4q-29 -68 -70 -131t-94 -110.5t-119.5 -76t-146.5 -28.5q-59 0 -105.5 23.5t-77 63.5t-47 90t-16.5 106q0 119 58.5 233.5t151.5 203.5t212 144.5t239 55.5q172 0 257 -92.5 t85 -245.5v-51q0 -23 -4 -39l4 -4q68 82 157 159.5t192.5 138t218 97.5t233.5 37q33 0 68 -9.5t63.5 -28t47 -48t18.5 -70.5q0 -53 -33 -77.5t-82 -24.5q-12 0 -38.5 7t-26.5 23q0 14 4 26.5t4 29.5q0 72 -41 97.5t-101 25.5q-70 0 -148.5 -29t-157.5 -79t-153.5 -118.5 t-136.5 -150.5q-57 -74 -110 -168t-94 -197.5t-66.5 -207t-25.5 -195.5q0 -45 9 -91.5t31.5 -83t59.5 -59t92 -22.5q90 0 182 55t176 135t157 169t124 157l14 -15q-51 -72 -114.5 -151.5t-135.5 -151.5q-53 -53 -111.5 -100t-120.5 -83t-131 -56.5t-142 -20.5 q-135 0 -207 80t-72 213q0 37 2 73t6 70l-4 5q-68 -92 -160 -173t-193 -140.5t-206.5 -93.5t-202.5 -34q-123 0 -195.5 42t-72.5 128z" />
<glyph unicode="Y" horiz-adv-x="1593" d="M-190 -350q0 45 18 87t51 74.5t74 52t88 19.5q66 0 121 -16.5t112 -44.5l-2 -17q-29 10 -58.5 19.5t-59.5 9.5q-43 0 -75 -18.5t-53.5 -47t-32.5 -66.5t-11 -77q0 -43 12 -85t39.5 -75.5t73 -54t108.5 -20.5q102 0 195.5 46t181.5 127t171 189.5t165 235.5l282 434l-4 4 q-59 -74 -137 -152.5t-167 -144.5t-187.5 -107.5t-200.5 -41.5q-66 0 -103.5 35.5t-37.5 101.5q0 70 48 169t118.5 213.5t154.5 235.5t155 233.5t119 208t48 156.5q0 121 -109 121q-104 0 -207.5 -45t-187.5 -120t-136 -172t-52 -202q0 -27 7 -54t20.5 -48.5t35 -36 t49.5 -14.5q41 0 76 13t64.5 34.5t56 48.5t53.5 55l14 -10q-29 -33 -61.5 -64.5t-70.5 -57t-80 -41t-91 -15.5q-82 0 -137 43t-55 133q0 106 64.5 209.5t170 185.5t239.5 132.5t275 50.5q41 0 82 -8.5t75 -28t55.5 -51t21.5 -80.5q0 -72 -48 -173.5t-119 -216t-155 -235.5 t-154.5 -229.5t-118.5 -199.5t-48 -146q0 -82 82 -82q61 0 140 42t159 104.5t152.5 137t121.5 140t108.5 154.5t121 185.5t121 193.5t110.5 181t89 149.5t56 98.5l228 10l-944 -1491q-80 -117 -174.5 -220t-205 -181t-236.5 -123t-265 -45q-80 0 -152.5 14.5t-127 48t-87 88 t-32.5 134.5z" />
<glyph unicode="Z" horiz-adv-x="1441" d="M39 -10q0 23 18.5 40t49 36.5t69.5 44t78 61.5q152 141 317.5 286.5t332.5 287t331 276.5t313 256l-4 4q-84 -47 -168 -79t-182 -32q-72 0 -138.5 26t-132 54.5t-131 52t-137.5 23.5q-57 0 -103 -22.5t-79 -58.5t-50 -82t-17 -93q0 -35 13 -68.5t37.5 -61.5t60.5 -44 t81 -16q100 0 160.5 47t109.5 114l15 -8q-45 -72 -116 -125t-175 -53q-94 0 -152.5 58.5t-58.5 158.5q0 78 38 146.5t96 119t129 79t138 28.5q92 0 178.5 -24.5t167.5 -53.5q80 -29 156 -53.5t148 -24.5q90 0 141 30t83 64.5t52.5 64.5t50.5 30q14 0 26.5 -9.5t12.5 -27.5 q0 -20 -23.5 -39t-58.5 -40.5t-78 -47t-84 -62.5q-315 -285 -638.5 -560t-661.5 -541l4 -5q74 33 148.5 64t158.5 31q70 0 139.5 -22.5t137.5 -49.5q70 -27 133 -51.5t123 -24.5q66 0 116 16.5t92 45t79.5 66.5t80.5 81q57 57 102.5 116.5t94.5 119.5l10 -9 q-59 -80 -141 -177t-178.5 -183t-201.5 -144.5t-214 -58.5q-84 0 -155.5 30t-137 64.5t-127 64.5t-125.5 30q-51 0 -89 -11.5t-67.5 -31t-57 -49t-58.5 -66.5q-14 -12 -25.5 -21.5t-27.5 -9.5q-10 0 -19.5 5t-9.5 18z" />
<glyph unicode="[" horiz-adv-x="796" d="M-434 -635l1362 2093h528l-37 -57h-366l-1272 -1979h366l-36 -57h-545z" />
<glyph unicode="\" horiz-adv-x="716" d="M-2 1358h84l631 -1358h-84z" />
<glyph unicode="]" horiz-adv-x="796" d="M-666 -635l37 57h367l1272 1979h-367l37 57h545l-1362 -2093h-529z" />
<glyph unicode="^" horiz-adv-x="1228" d="M186 360l377 746h111l377 -746h-121l-312 615l-311 -615h-121z" />
<glyph unicode="_" horiz-adv-x="1024" d="M0 -154h1024v-102h-1024v102z" />
<glyph unicode="`" horiz-adv-x="530" d="M162 1143q0 29 17.5 47t47.5 18q16 0 27.5 -13t20 -31.5t14.5 -40t10 -38.5q10 -45 40 -81.5t60.5 -66.5t54 -49.5t23.5 -29.5q0 -14 -12 -14q-20 0 -70.5 28.5t-102.5 73.5t-91 97.5t-39 99.5z" />
<glyph unicode="a" horiz-adv-x="1062" d="M-4 190q0 100 55 201t139 181.5t187.5 131t197.5 50.5q72 0 113 -31t68 -96l51 82l213 12q-18 -37 -53 -89t-76 -112.5t-83 -125t-77 -125t-56.5 -113t-21.5 -88.5q0 -51 52 -52q49 0 133 57.5t176 151.5q39 39 79 84t76.5 89t67.5 82t49 63l14 -8q-53 -72 -122.5 -159 t-168 -185.5t-193.5 -161t-189 -62.5q-66 0 -102 34t-36 83q0 16 2.5 30.5t6.5 22.5h-4q-63 -72 -143.5 -121t-172.5 -49q-49 0 -84 18.5t-56.5 50.5t-31.5 71.5t-10 82.5zM193 184q0 -59 19 -103t83 -44q43 2 90 35.5t91 85t84 114t69.5 126t47 119.5t17.5 95 q0 55 -20.5 86t-79.5 31q-47 0 -95 -28.5t-92.5 -75.5t-84 -105.5t-68.5 -120t-45 -118t-16 -97.5z" />
<glyph unicode="b" d="M-33 186q0 33 11.5 72t41 96.5t81 142.5t132 209.5t195.5 299t270 409.5l232 10q-147 -225 -265 -400t-208 -307t-153.5 -229.5t-103.5 -170t-58.5 -126t-18.5 -98.5q0 -41 22.5 -71.5t65.5 -30.5q55 0 109.5 32.5t103.5 85t91 116t72.5 126t48 116.5t17.5 85 q0 10 -3 17.5t-7 16.5t-7 23.5t-3 38.5q0 39 25.5 72t66.5 33q35 0 57.5 -15.5t35.5 -40t18.5 -54.5t5.5 -58q0 -45 -13 -99q25 -25 68 -46t90 -21q70 0 124 32.5t95 86.5l15 -13q-41 -59 -103.5 -95t-130.5 -36q-49 0 -89 18.5t-75 47.5q-31 -106 -92 -196.5t-144 -156 t-183.5 -103.5t-208.5 -38q-115 0 -171.5 59.5t-56.5 159.5z" />
<glyph unicode="c" horiz-adv-x="833" d="M6 229q0 98 57.5 192.5t147.5 168.5t198.5 119t211.5 45q94 0 149 -38t55 -93q0 -39 -15 -71t-40 -53.5t-55.5 -32.5t-61.5 -11q-27 0 -47 4q14 47 30.5 96t16.5 98q0 35 -16 55.5t-45 20.5q-53 0 -121 -42t-127 -112.5t-100 -161.5t-41 -190q0 -78 47 -132t131 -54 q100 0 199.5 55t188.5 134t163 164t125 147l18 -9q-76 -92 -164 -191t-189 -181t-217 -135.5t-245 -53.5q-123 0 -188.5 66.5t-65.5 195.5z" />
<glyph unicode="d" horiz-adv-x="1062" d="M0 190q0 102 53 204t137 181.5t186.5 129t203.5 49.5q137 0 184 -131l481 790l230 12q-68 -111 -155 -244.5t-178 -273t-179.5 -275.5t-157 -252t-110.5 -202t-42 -125q0 -23 10.5 -36t32.5 -13q43 0 118 43t167 139q76 78 145.5 161t151.5 192l20 -11 q-23 -31 -54.5 -71.5t-68 -85.5t-76.5 -91.5t-79 -86.5q-98 -102 -188.5 -164t-192.5 -62q-47 0 -77 15.5t-47 40t-21.5 53t2.5 55.5l-4 4q-63 -66 -139.5 -110.5t-174.5 -44.5q-49 0 -83 17t-55.5 47t-30.5 68t-9 78zM197 176q0 -49 22.5 -88t77.5 -39q66 0 136.5 62.5 t129 151.5t95 185.5t36.5 165.5q0 59 -30.5 87t-77.5 28q-63 0 -132 -58.5t-126.5 -142.5t-94 -180t-36.5 -172z" />
<glyph unicode="e" horiz-adv-x="833" d="M-2 217q0 98 59.5 194.5t149.5 172t197.5 123t203.5 47.5q88 0 137.5 -34t49.5 -95q0 -49 -34 -90t-87 -74t-120 -57.5t-132.5 -43t-122.5 -31t-94 -20.5q-10 -41 -10 -73q0 -88 49 -143.5t137 -55.5q86 0 189.5 51t207.5 150q80 76 154 158.5t129 154.5l14 -14 q-63 -86 -136 -170t-173 -177q-141 -127 -271 -175t-245 -48q-117 0 -184.5 69.5t-67.5 180.5zM209 330q84 16 159.5 54t134 86t93.5 102.5t35 103.5q0 29 -15.5 41t-40.5 12q-51 0 -110 -43t-111.5 -105.5t-92.5 -131t-52 -119.5z" />
<glyph unicode="f" horiz-adv-x="569" d="M-1268 -367q0 59 25.5 104.5t67.5 76t95.5 47t108.5 16.5q29 0 52.5 -2t41.5 -6v-16q-98 -6 -158.5 -70t-60.5 -162q0 -106 59.5 -168.5t192.5 -62.5q121 0 231.5 66.5t212 175t192.5 246.5t174 282.5t159 282t143 241.5h-196l20 37h201q59 102 140 225t182.5 229.5 t222 178t258.5 71.5q43 0 83 -10t71.5 -30.5t51 -52.5t19.5 -75q0 -74 -53.5 -110.5t-124.5 -36.5q-16 0 -37 4q18 37 30.5 78t12.5 88q0 59 -24.5 90t-65.5 31q-51 0 -108.5 -40t-113 -103.5t-109.5 -141.5t-99 -153.5t-81 -140t-59 -101.5h529l-23 -37h-528 q-80 -129 -159 -277.5t-168 -295t-190.5 -281.5t-224 -238.5t-271 -165t-331.5 -61.5q-61 0 -130.5 13.5t-127 44t-95.5 82t-38 128.5z" />
<glyph unicode="g" horiz-adv-x="1062" d="M-705 -373q0 55 24 99.5t62.5 74t89 45t101.5 15.5q18 0 55 -4t58 -7v-14q-109 -2 -163 -59.5t-54 -159.5q0 -49 16 -91t46 -73t72 -48t95 -17q96 0 182 38.5t163 104.5t145.5 148.5t129 170t113.5 173.5t100 153l-4 4q-33 -39 -72.5 -74.5t-83.5 -63.5t-94.5 -45 t-105.5 -17q-84 0 -128 58t-44 136q0 100 51 203.5t133 186.5t184.5 136.5t202.5 53.5q78 0 123 -29t70 -104l47 88l209 12q-111 -188 -217.5 -381t-225.5 -383q115 33 214.5 94.5t186.5 140t164 170t146 183.5l12 -6q-68 -98 -148.5 -193.5t-172.5 -177.5t-196.5 -144.5 t-221.5 -95.5q-74 -127 -167 -231.5t-203.5 -178t-239.5 -114.5t-277 -41q-76 0 -143.5 13.5t-119.5 45t-83 82t-31 123.5zM195 190q0 -59 20.5 -100t89.5 -41q43 0 88 31t88 79t82 109.5t67.5 123t45 117.5t16.5 95q0 23 -3 44.5t-11 40t-24.5 29.5t-45.5 11 q-76 0 -149.5 -58.5t-132 -143.5t-95 -177t-36.5 -160z" />
<glyph unicode="h" d="M-170 0l858 1415l223 10l-680 -1073l5 -4q45 53 101 124t122.5 133.5t140.5 105.5t154 43q66 0 102.5 -34t36.5 -102q0 -55 -45 -129.5t-98.5 -152.5t-98.5 -149.5t-45 -120.5t43 -50q31 0 78 30t101.5 77t110.5 106.5t108.5 118t93.5 109.5t63 82l13 -13 q-53 -70 -128 -160t-157 -173q-111 -115 -188.5 -164t-159.5 -49q-74 0 -108 43t-34 98q0 72 45 144.5t98.5 142t98.5 131t45 106.5q0 29 -16.5 44.5t-36.5 15.5q-45 0 -101.5 -38t-119 -98.5t-125 -137.5t-118.5 -153.5t-100 -148.5t-71 -123z" />
<glyph unicode="i" horiz-adv-x="530" d="M-33 113q0 41 15.5 85t52.5 109.5t98.5 162.5t153.5 241l211 10q-96 -152 -166 -259.5t-114 -183t-65.5 -124t-21.5 -78.5q0 -25 9.5 -40.5t27.5 -15.5q41 0 115.5 47.5t187.5 161.5q45 47 88 93.5t81 89.5t67.5 77.5t48.5 55.5l18 -13q-25 -33 -60.5 -74.5t-76.5 -87.5 t-84 -91.5t-84 -85.5q-119 -119 -204 -166t-156 -47q-68 0 -105 36.5t-37 96.5zM498 1065q0 47 35.5 79t82.5 32q39 0 69 -29t30 -68q0 -41 -33 -74.5t-74 -33.5q-45 0 -77.5 23.5t-32.5 70.5z" />
<glyph unicode="j" horiz-adv-x="530" d="M-1239 -371q0 61 25.5 105.5t66.5 74t94.5 43t106.5 13.5q25 0 49.5 -3t48.5 -7v-15q-47 0 -87 -15t-68.5 -43t-46 -66t-17.5 -81q0 -111 62.5 -178t179.5 -67t229.5 73.5t217 192.5t199.5 266.5t178 295t151.5 280.5t117.5 219l211 10q-113 -193 -220 -385t-222 -381 q113 35 213 96.5t187 138t164 165t140 178.5l19 -13q-61 -84 -132 -170t-158 -164.5t-195.5 -146.5t-249.5 -117q-78 -119 -168 -222t-199 -179t-238 -119t-280 -43q-61 0 -129 12.5t-123 43t-91 82t-36 126.5zM481 1065q0 47 36 79t83 32q39 0 68.5 -29t29.5 -68 q0 -41 -32.5 -74.5t-73.5 -33.5q-45 0 -78 23.5t-33 70.5z" />
<glyph unicode="k" d="M-168 0l862 1425l226 13q-174 -276 -344 -548t-353 -540l4 -4q47 55 108.5 125t132.5 133.5t147.5 106.5t156.5 43q63 0 97 -35t34 -88t-23.5 -89t-68.5 -62.5t-109.5 -48t-144.5 -44.5v-4q35 -6 60.5 -42t25.5 -73q0 -59 -20.5 -113.5t-20.5 -101.5q0 -37 33 -37 q53 0 127 54.5t152.5 133.5t153.5 168t128 158l18 -10q-63 -80 -141 -176t-164 -180t-178 -140.5t-184 -56.5q-66 0 -97.5 36t-31.5 91q0 49 29.5 118t76.5 167q-35 -10 -73.5 -21.5t-63.5 -11.5q-37 0 -37 31q0 16 14.5 26.5t55.5 10.5q29 0 65.5 -6.5t51.5 -6.5 q14 0 44.5 12.5t61.5 37t53.5 60.5t22.5 85q0 37 -17.5 60.5t-46.5 23.5q-45 0 -101 -38t-118.5 -98.5t-125 -136t-117 -150.5t-97.5 -141.5t-65 -109.5z" />
<glyph unicode="l" horiz-adv-x="530" d="M-37 102q0 57 42 144.5t130 234.5l572 938l227 13l-633 -1008q-80 -129 -127 -214t-47 -138q0 -55 45 -56q43 0 116.5 47.5t157.5 131.5q78 78 154 166t148 182l18 -6q-25 -33 -56.5 -74t-66.5 -83t-70.5 -84t-70.5 -77q-119 -121 -210 -180t-190 -59q-139 0 -139 122z " />
<glyph unicode="m" horiz-adv-x="1478" d="M-188 0q113 180 223 359.5t217 365.5l240 12l-273 -372l4 -5q43 49 97.5 117t118 129.5t136 104.5t154.5 43q57 0 97 -31t40 -92q0 -29 -10 -61.5t-25.5 -64.5t-35 -63.5t-35.5 -56.5l4 -4q39 49 92 113.5t115.5 122t131 97.5t136.5 40q66 0 105.5 -41t39.5 -95 q0 -70 -45 -142.5t-100 -144t-100 -139t-45 -122.5q0 -23 10 -38.5t33 -15.5q84 0 274 191q78 78 152.5 165t130.5 158l16 -8q-25 -31 -56.5 -69.5t-68.5 -82.5t-79 -91.5t-85 -90.5q-57 -57 -104 -97t-87 -64.5t-76 -35.5t-73 -11q-72 0 -111.5 39.5t-39.5 101.5 q0 66 45 141.5t100 147t100.5 134t45.5 101.5q0 29 -16.5 44.5t-39.5 15.5q-43 0 -99 -40t-117.5 -103.5t-122 -141.5t-115 -156t-96.5 -145.5t-66 -110.5l-217 -8q70 111 136.5 210t118.5 182t83.5 146.5t31.5 100.5q0 25 -14 45.5t-45 20.5q-43 0 -99.5 -40t-117.5 -103.5 t-123.5 -141.5t-118 -156t-98.5 -145.5t-68 -110.5z" />
<glyph unicode="n" d="M-172 0q109 180 218.5 357.5t215.5 363.5l234 8l-267 -373l4 -4q29 37 83.5 104.5t124 133t149.5 115t160 49.5q68 0 102.5 -38t34.5 -93q0 -70 -44 -142.5t-97.5 -145.5t-97.5 -139.5t-44 -123.5q0 -25 12.5 -40.5t40.5 -15.5q29 0 95.5 44t179.5 163q88 94 161.5 183.5 t110.5 134.5l21 -11q-53 -63 -131 -157t-166 -187q-106 -113 -181 -159.5t-155 -46.5q-78 0 -115 43t-37 98q0 70 44 143.5t97.5 144t97.5 134t44 110.5q0 23 -14.5 37.5t-42.5 14.5q-41 0 -96.5 -38t-117 -98.5t-125 -137.5t-119.5 -153.5t-101.5 -148.5t-71.5 -123z" />
<glyph unicode="o" d="M8 209q0 109 55.5 208t143.5 174t194.5 119t208.5 44q111 0 174.5 -59.5t77.5 -143.5q10 -61 46 -98t93 -37q55 0 104.5 32.5t104.5 98.5l13 -17q-41 -53 -97.5 -96t-124.5 -43q-47 0 -81.5 20.5t-63.5 57.5q-25 -102 -81 -193.5t-136 -160t-178.5 -108.5t-204.5 -40 q-113 0 -180.5 64.5t-67.5 177.5zM180 100q0 -51 21.5 -79.5t68.5 -28.5q51 0 102.5 34.5t98.5 90t87 125t69.5 139.5t46 133.5t16.5 106.5q0 51 -21.5 79.5t-68.5 28.5q-51 0 -102.5 -35t-98.5 -90t-87 -124.5t-69.5 -139.5t-46 -133.5t-16.5 -106.5z" />
<glyph unicode="p" d="M-582 -664q274 442 548 891t546 893l221 10l-473 -720l4 -4q43 51 91 112.5t104.5 113.5t121 87t140.5 35q74 0 119 -48.5t45 -125.5q0 -100 -43 -190.5t-105 -156.5l4 -4q70 14 136.5 46t128 76t115 96.5t96.5 105.5l14 -14q-39 -49 -92.5 -102.5t-118 -101.5t-141 -84 t-162.5 -50q-41 -37 -92.5 -78t-108.5 -76t-116.5 -57.5t-116.5 -22.5q-43 0 -75 17.5t-32 58.5q0 43 42 70.5t101.5 45t124 28t107.5 16.5q18 25 41.5 62.5t45 84.5t36 101.5t14.5 111.5q0 23 -3 44.5t-12 39t-25.5 27.5t-43.5 10q-61 0 -143 -80t-174 -206t-187.5 -280.5 t-183.5 -303t-160.5 -274.5t-120.5 -195zM254 49q0 -45 57 -45q29 0 60.5 18.5t62.5 44t57.5 55.5t45.5 54q-27 -4 -75 -12t-94 -21.5t-80 -36t-34 -57.5z" />
<glyph unicode="q" horiz-adv-x="1062" d="M-4 188q0 100 52 200.5t134 181.5t183.5 132.5t199.5 51.5q86 0 132 -36t65 -120h4l53 115l213 12l-459 -764q111 33 209.5 91.5t186.5 135t166.5 167.5t148.5 188l14 -13q-63 -84 -135.5 -173t-162 -171t-198 -149.5t-243.5 -106.5l-336 -585l-225 -9q129 211 254 418 t260 410l-4 4q-68 -76 -150 -132t-188 -56q-47 0 -80 17t-54.5 46t-30.5 66.5t-9 78.5zM193 199q0 -25 4 -51.5t14 -48t28.5 -36t47.5 -14.5q47 0 95 31t93 80t85 111.5t68.5 127t46 123t17.5 101.5q0 47 -20.5 76.5t-67.5 29.5q-74 0 -146.5 -57.5t-132 -140t-96 -173.5 t-36.5 -159z" />
<glyph unicode="r" horiz-adv-x="796" d="M-168 0q104 180 212 358.5t214 362.5l234 8l-271 -381l4 -4q78 96 138.5 154.5t105.5 95.5t75.5 56.5t45.5 33.5q23 23 42 36t46 20.5t64.5 9.5t95.5 4q-39 -55 -72 -115.5t-33 -130.5q0 -88 88 -88q29 0 56.5 12t52 30.5t47 40t41.5 40.5l8 -11q-57 -72 -135 -116.5 t-170 -44.5q-82 0 -129 43t-47 127q0 53 30 100l-4 4q-86 -57 -163.5 -133t-144 -160t-123 -173t-101.5 -173z" />
<glyph unicode="s" horiz-adv-x="757" d="M-123 186q0 33 9.5 66t27.5 59.5t46 44t65 17.5q47 0 72.5 -27t25.5 -61q0 -43 -24.5 -65.5t-57.5 -22.5q-27 0 -45 10q-10 -18 -17.5 -40t-7.5 -44q0 -57 44 -94t104 -37q37 0 74.5 12t67.5 35.5t48.5 56.5t18.5 72q0 53 -26 97t-56.5 85t-56 83t-25.5 89 q0 57 26.5 100.5t69.5 73t96.5 44t108.5 14.5q98 0 164.5 -42t66.5 -120q0 -59 -39 -97t-98 -38q-18 0 -33.5 3t-25.5 7q23 41 32 81t9 79q0 41 -23.5 71.5t-71.5 30.5q-57 0 -87.5 -36t-30.5 -89q0 -57 25.5 -101t56 -85t56.5 -86t26 -107q0 -39 -13.5 -75.5t-36 -65.5 t-50 -48.5t-58.5 -25.5v-4q104 23 193 77t167 127t146.5 158t134.5 171l16 -13q-82 -106 -164 -207.5t-179 -179.5t-213 -125t-265 -47q-53 0 -105.5 11.5t-94.5 37t-67.5 67.5t-25.5 103z" />
<glyph unicode="t" horiz-adv-x="569" d="M-39 113q0 53 22.5 109.5t62.5 124t93.5 149.5t114.5 188h-154l15 37h157l154 258l221 8l-170 -266h260l-18 -37h-264q-92 -152 -155.5 -255t-101.5 -172t-55.5 -110t-17.5 -71q0 -27 14.5 -43.5t40.5 -16.5q51 0 135 52.5t181 144.5q66 66 143.5 154t144.5 178l13 -10 q-47 -61 -119 -149.5t-158 -174.5q-47 -47 -97 -89t-101.5 -74t-100.5 -50t-96 -18q-66 0 -115 29.5t-49 103.5z" />
<glyph unicode="u" d="M-68 113q0 78 84 225t228 383l217 8q-162 -248 -263.5 -406.5t-101.5 -236.5q0 -25 13.5 -41t35.5 -16q39 0 93.5 32.5t114 88t117.5 127t105 149.5l177 287l211 16q-80 -133 -149 -237.5t-118 -185.5t-76.5 -140.5t-27.5 -104.5t39 -45q25 0 59.5 17.5t73.5 45t80 64.5 t78 74q45 47 89 95t81.5 93.5t68.5 83t51 64.5l17 -12q-49 -66 -125 -157t-162 -179q-104 -106 -192 -165.5t-175 -59.5q-61 0 -98 36.5t-37 92.5q0 39 7.5 69.5t17.5 46.5l-4 4q-37 -39 -80 -83t-92 -80.5t-105.5 -61t-122.5 -24.5q-63 0 -96 39.5t-33 93.5z" />
<glyph unicode="v" d="M-8 180q0 53 18.5 105.5t53 115t87 140t119.5 180.5l224 8q-35 -53 -95.5 -135t-118 -172t-99.5 -177t-42 -149q0 -45 20.5 -68.5t71.5 -23.5q78 0 155 59.5t139.5 147.5t101.5 188.5t41 182.5q-16 37 -17 80q0 35 24.5 63.5t69.5 28.5q51 0 79 -44q24 -38 25 -113 q0 -11 -1 -22q0 -27 -2 -52t-6 -44q41 -35 79.5 -47t81.5 -12q72 0 121 38t84 85l17 -11q-35 -59 -95.5 -98t-130.5 -39q-43 0 -85 15.5t-78 42.5q-25 -96 -83.5 -182.5t-140.5 -151t-180 -102t-203 -37.5q-100 0 -167.5 45t-67.5 155z" />
<glyph unicode="w" horiz-adv-x="1441" d="M-49 152q0 66 33.5 142.5t81 153t98.5 148.5t86 125l217 8q-37 -55 -96.5 -134t-115.5 -165t-98 -169t-42 -148q0 -35 15 -59.5t52 -24.5q76 0 160 83t188 248q35 57 69 112.5t62.5 103t52 85t38.5 60.5l219 8q-35 -55 -94.5 -138t-118 -173t-100.5 -176t-42 -150 q0 -39 18.5 -63.5t57.5 -24.5q53 0 106.5 28.5t102.5 75t92 105.5t76 120.5t53.5 121t22.5 106.5q-12 18 -21.5 41t-9.5 51q0 41 22.5 71t69.5 30q35 0 56.5 -15.5t34 -39t16.5 -53.5t4 -58q0 -23 -3 -54.5t-7 -60.5q68 -55 143 -55q70 0 122 39t91 90l14 -10 q-41 -57 -99 -100.5t-128 -43.5q-45 0 -82 15.5t-65 37.5q-31 -98 -93.5 -184t-145.5 -148.5t-181.5 -98t-200.5 -35.5q-111 0 -162 55t-51 141q0 18 2 34.5t6 27.5l-4 4q-33 -49 -73 -96.5t-86 -84t-99 -59t-115 -22.5q-78 0 -113.5 50t-35.5 122z" />
<glyph unicode="x" horiz-adv-x="1214" d="M-164 156q0 49 31 91t92 42q41 0 67.5 -24.5t26.5 -65.5t-27.5 -68t-62.5 -27q0 -47 28.5 -73.5t76.5 -26.5q86 0 173 60.5t156.5 147.5t112.5 186.5t43 179.5q0 51 -22.5 84.5t-77.5 33.5q-33 0 -66 -16t-61.5 -41t-53 -54.5t-43.5 -56.5l-14 11q27 37 58.5 74.5 t69.5 69.5t84 51.5t99 19.5q86 0 137.5 -49.5t67.5 -126.5q70 68 158 117.5t188 49.5q33 0 68 -6t63.5 -22.5t47 -42t18.5 -66.5q0 -63 -50 -95t-106 -32q-23 0 -41 6q10 35 17.5 67t7.5 75t-17.5 67.5t-52.5 24.5q-53 0 -120.5 -47t-127 -121t-100.5 -167t-41 -185 q0 -80 45 -118t119 -38q82 0 173 54.5t176 132t157.5 162.5t118.5 145l12 -11q-66 -86 -151 -185t-184 -182t-211 -138.5t-228 -55.5q-94 0 -148.5 50.5t-62.5 129.5q-39 -33 -84 -63.5t-95.5 -53t-104.5 -36.5t-112 -14q-111 0 -169 47t-58 129z" />
<glyph unicode="y" d="M-766 -365q0 61 25.5 104.5t67.5 71t96.5 41t111.5 13.5q25 0 50.5 -2t41.5 -6v-19q-10 2 -37 2q-88 0 -136 -63.5t-48 -155.5q0 -109 66.5 -170t165.5 -61q104 0 196 44t172 116.5t150.5 166t131 191.5t114 192.5t98.5 169.5l-4 4q-31 -37 -77 -87t-103.5 -96 t-121 -78.5t-128.5 -32.5q-68 0 -97.5 38.5t-29.5 92.5q0 51 28.5 116.5t72.5 144.5t99.5 167t110.5 182l217 8q-172 -268 -268.5 -423.5t-96.5 -221.5q0 -25 15.5 -40t38.5 -15q37 0 94 37.5t121.5 101t130 146.5t119.5 171q45 74 79.5 135.5t51.5 100.5l200 8 q-111 -190 -214 -379.5t-216 -376.5q98 29 194.5 89.5t185.5 140.5t166 170t138 176l17 -14q-70 -100 -154 -195.5t-177 -174.5t-191.5 -136.5t-196.5 -81.5q-74 -125 -166 -231.5t-202.5 -184.5t-239.5 -122t-277 -44q-74 0 -143.5 13.5t-122.5 45t-86 84t-33 127.5z" />
<glyph unicode="z" d="M-47 4q0 23 43 43.5t121 65.5q45 25 115.5 76t156.5 114.5t183.5 132t195.5 125.5l-4 4q-23 -8 -47.5 -10t-46.5 -2q-45 0 -85 9t-78 21.5t-74 21.5t-71 9q-39 0 -70.5 -24.5t-64.5 -69.5l-18 12q27 37 59.5 77t71.5 72t85 52.5t99 20.5q47 0 90 -12.5t86 -28t85 -28.5 t85 -13t63.5 14t33 32.5t22.5 33t31 14.5q12 0 20.5 -9t8.5 -20q0 -12 -12.5 -24.5t-31 -24.5t-41 -24.5t-42.5 -26.5q-162 -117 -321 -231.5t-331 -217.5l4 -4q10 4 21 4h29q47 0 91 -16t86 -34.5t82 -35t76 -16.5q72 0 148 50t147.5 122t134 148.5t109.5 132.5l16 -13 q-39 -49 -88 -109.5t-106 -122t-120.5 -120.5t-130.5 -105t-133.5 -74t-131.5 -28q-43 0 -88 18.5t-89 41t-87 41t-82 18.5q-31 0 -56.5 -16.5t-49 -37t-42 -36.5t-33.5 -16q-10 0 -17 7t-7 17z" />
<glyph unicode="{" horiz-adv-x="796" d="M-283 -522q0 37 20.5 90t67.5 127l277 436q41 61 63.5 107.5t22.5 80.5q0 61 -64 91q57 18 102.5 41.5t84.5 56.5t73.5 77t71.5 101l277 434q70 109 143.5 175.5t146 102.5t141 48t128.5 12l-19 -28q-119 -27 -199.5 -100t-162.5 -200l-260 -409q-41 -66 -80 -116 t-82 -87t-92 -63.5t-113 -42.5l-2 -6q70 -25 70 -78q0 -78 -103 -236l-264 -407q-92 -139 -92 -213q0 -59 72 -78l-19 -29q-39 0 -76.5 5t-66.5 17.5t-47.5 34t-18.5 56.5z" />
<glyph unicode="|" horiz-adv-x="454" d="M-68 0l947 1458h133l-946 -1458h-134z" />
<glyph unicode="}" horiz-adv-x="796" d="M-481 -635l18 29q119 27 200 99.5t163 199.5l260 409q41 66 80 116t82 87t92 63.5t112 43.5l2 6q-70 25 -69 78q0 78 102 235l264 408q92 139 93 213q0 59 -72 78l18 28q39 0 77 -5t66.5 -17.5t47 -34t18.5 -55.5q0 -37 -20.5 -90.5t-67.5 -127.5l-276 -436 q-41 -61 -63.5 -107t-22.5 -81q0 -61 63 -90q-57 -18 -102 -42t-83 -56.5t-74 -75.5t-73 -103l-276 -434q-70 -109 -143.5 -175.5t-146.5 -102t-141.5 -48t-127.5 -12.5z" />
<glyph unicode="~" horiz-adv-x="1228" d="M139 313q49 53 103 95q47 35 107.5 64.5t127.5 29.5q63 0 126 -25.5t122 -56.5t116.5 -56.5t112.5 -25.5q39 0 74 19.5t64 43.5q33 27 61 64l16 -12q-49 -61 -104 -111q-47 -41 -111.5 -75t-136.5 -34q-55 0 -113.5 25t-118 54.5t-122 54t-127.5 24.5q-41 0 -73 -14.5 t-56 -30.5q-29 -20 -51 -45z" />
<glyph unicode="&#xa1;" horiz-adv-x="757" d="M-98 -283q0 35 17.5 71t52 81t87 103.5t122 138t142 174t136.5 204.5l14 -6q-43 -70 -85 -144.5t-77 -147t-63.5 -138t-44.5 -114.5q-57 -170 -103.5 -243t-105.5 -73q-37 0 -64.5 26.5t-27.5 67.5zM451 639q0 47 33.5 81t80.5 34t81 -34t34 -81t-34 -81t-81 -34 t-80.5 34t-33.5 81z" />
<glyph unicode="&#xa2;" horiz-adv-x="1099" d="M117 279q0 90 53 183t139 171t194.5 129t219.5 55l111 205l32 -12l-102 -195q90 -4 135 -46t45 -95q0 -51 -23.5 -83t-58.5 -49.5t-74.5 -23.5t-74.5 -6q10 20 20 47t19.5 53.5t14.5 52t5 46.5q0 45 -31 65l-344 -643q43 -31 109 -31q53 0 103 15.5t92 37t76 46t57 43.5 l10 -15q-98 -90 -217 -147t-277 -57q-6 0 -10 2l-135 -254l-37 16l131 242q-78 16 -130 84.5t-52 163.5zM326 293q0 -84 43 -133l333 620q-76 -4 -144.5 -55t-120.5 -124t-81.5 -156t-29.5 -152z" />
<glyph unicode="&#xa3;" horiz-adv-x="1705" d="M-111 178q0 66 67 108t165 42q147 0 278 -37t267 -94q92 86 154.5 191.5t109.5 221.5h-588l12 37h590q37 84 76 168t80 170q-66 16 -130.5 47t-116.5 78t-84 108.5t-32 135.5q0 55 21.5 102t59.5 80t88 51.5t106 18.5q33 0 65.5 -9.5t58 -29t41 -49t15.5 -68.5 q0 -16 -6 -43t-17 -45l-18 6q8 23 12 40t4 38q2 25 -8 46t-28.5 38.5t-44 28t-54.5 10.5q-45 0 -78.5 -22.5t-55 -57.5t-32 -80t-10.5 -92q0 -57 19.5 -108.5t53.5 -93.5t80 -70.5t101 -45.5q47 98 120 193.5t163 170.5t195.5 122t217.5 47q45 0 88 -9.5t76 -29.5t52.5 -52 t19.5 -79q0 -72 -33 -131.5t-86 -106.5t-122.5 -81.5t-142.5 -58t-144.5 -35t-131.5 -11.5q-51 0 -104 6q-37 -74 -70.5 -149.5t-72.5 -147.5h434l-17 -37h-436q-66 -135 -167 -242.5t-224 -189.5q104 -41 207.5 -66.5t216.5 -25.5q188 0 314 89t159 284h16 q-20 -117 -75.5 -207t-135 -150.5t-182 -91t-217.5 -30.5q-66 0 -132.5 15t-124.5 35.5t-104 42t-69 31.5q-98 -49 -195.5 -76.5t-207.5 -27.5q-61 0 -116.5 11.5t-97.5 33t-67 55t-25 78.5zM-57 203q0 -33 24.5 -65t65.5 -57.5t93 -40.5t107 -15q86 0 170 26.5t156 73.5 q-49 25 -112.5 53.5t-131 53t-134 42t-122.5 17.5q-57 0 -86.5 -26.5t-29.5 -61.5zM1286 967q16 -4 35 -4h35q84 0 179 20.5t176 67.5t134 121.5t53 185.5q0 61 -29.5 105t-88.5 44t-114.5 -30.5t-106 -78.5t-93.5 -108.5t-77.5 -121t-60 -114t-42.5 -87.5z" />
<glyph unicode="&#xa4;" horiz-adv-x="1099" d="M88 70l182 153q-49 61 -49 160q0 113 44 208t116 167l-100 133l125 96l73 -145q66 45 134.5 68.5t129.5 23.5q72 0 118 -23.5t73 -66.5l182 153l14 -22l-184 -158q25 -59 25 -141q0 -90 -50.5 -193.5t-136.5 -185.5l90 -123l-116 -96l-76 137q-53 -33 -112.5 -51.5 t-123.5 -18.5q-96 0 -157 58l-187 -160zM354 414q0 -43 6.5 -86t22.5 -77t48 -55.5t81 -21.5q59 0 117.5 39t103.5 105.5t73 155.5t28 192q0 39 -5.5 80.5t-20.5 77.5t-44 58.5t-78 22.5q-59 0 -118.5 -41t-106.5 -108.5t-77 -156.5t-30 -185z" />
<glyph unicode="&#xa5;" horiz-adv-x="1099" d="M47 1087q0 80 43 145.5t107.5 113t143.5 74t148 26.5q145 0 232.5 -88t87.5 -240q0 -49 -7 -108.5t-28 -137.5l4 -4q115 150 214.5 258.5t190.5 179t178 105.5t177 35q68 0 114 -13.5t73.5 -35t39 -48t11.5 -51.5q0 -43 -32 -74.5t-89 -31.5q-33 0 -63.5 11t-71.5 34 q51 4 71.5 27.5t20.5 54.5q0 29 -24.5 57.5t-80.5 28.5q-78 0 -156.5 -42t-162.5 -121t-177 -189.5t-202 -249.5h356l-16 -37h-363q-18 -29 -36.5 -58.5t-36.5 -60.5h366l-16 -37h-373q-98 -152 -188 -304t-170 -306h-238q43 68 94.5 144.5t103.5 157.5t103 160t94 148h-344 l17 37h350q20 35 37.5 64.5t30.5 54.5h-349l17 37h352q37 53 57.5 147t20.5 193q0 78 -22.5 129t-59.5 81.5t-83 43t-93 12.5t-89 -15.5t-73 -44t-49.5 -68.5t-18.5 -89q0 -61 32 -109.5t100 -48.5q45 0 81 27q-23 -76 -67.5 -111t-124.5 -35q-33 0 -63.5 14.5t-52 39 t-35 55.5t-13.5 63z" />
<glyph unicode="&#xa6;" horiz-adv-x="454" d="M-45 0l344 530h121l-344 -530h-121zM555 928l346 530h121l-346 -530h-121z" />
<glyph unicode="&#xa7;" horiz-adv-x="1024" d="M-145 129q0 39 13 79t38.5 72.5t64.5 53t88 20.5q57 0 117 -28q-66 -23 -112 -79.5t-46 -127.5q0 -106 66 -170t174 -64q51 0 96 20.5t78 55.5t51.5 81t18.5 95q0 92 -41 168t-91.5 148.5t-91 149.5t-40.5 169q0 78 32.5 137.5t86 99.5t121 60.5t138.5 15.5 q-4 29 -8 57.5t-4 57.5q0 72 25.5 132.5t74 103.5t117 67.5t152.5 24.5q70 0 133 -16.5t111.5 -47t77 -77t28.5 -105.5q0 -45 -19.5 -78t-51 -51t-71.5 -24.5t-79 1.5q33 45 51 88.5t18 94.5q0 88 -56 139t-130 51q-55 0 -96 -21.5t-68.5 -58.5t-42 -85t-14.5 -99 q0 -72 42 -147.5t93 -151.5t93 -151.5t42 -147.5q0 -78 -31.5 -138.5t-84 -103.5t-120 -69.5t-136.5 -34.5q4 -25 8 -47.5t4 -46.5q0 -94 -41 -159t-105.5 -104.5t-142.5 -58t-152 -18.5q-66 0 -133 15t-121.5 48t-89 84t-34.5 121zM401 823q0 -68 29 -130t68 -122.5 t81 -119t68 -117.5q92 20 153.5 84.5t61.5 163.5q0 68 -26.5 126t-63.5 114.5t-77 111.5t-64 115q-100 0 -165 -64t-65 -162z" />
<glyph unicode="&#xa8;" horiz-adv-x="530" d="M203 1047q0 39 26.5 68.5t65.5 29.5t65.5 -30t26.5 -68q0 -39 -26.5 -69t-65.5 -30t-65.5 30t-26.5 69zM571 1047q0 39 27 68.5t66 29.5t65.5 -30t26.5 -68q0 -39 -27 -69t-65 -30q-39 0 -66 30t-27 69z" />
<glyph unicode="&#xa9;" horiz-adv-x="1638" d="M200.5 377.5q-14.5 101.5 3 204t64.5 194.5q86 170 214 294t282 206t326 121t346 39q186 0 324 -50.5t212 -139.5t75 -208.5t-83 -261.5q-78 -131 -205 -225t-264 -155.5t-267 -90.5t-216 -29q-96 0 -160 26t-97.5 69t-38.5 100t17 123q23 92 90.5 172t155.5 138.5 t184.5 91t175.5 32.5q104 0 154.5 -43t22.5 -115q-8 -33 -36 -60.5t-65 -48t-79 -31.5t-79 -11q-47 0 -79.5 21.5t-34.5 74.5v14q0 10 2 17h14q-2 -6 -2 -15v-14q0 -51 31 -67.5t63 -16.5q49 0 95.5 41t60.5 100q23 55 13.5 98.5t-77.5 43.5q-66 0 -134 -27.5t-128.5 -79 t-107.5 -122t-68 -158.5q-23 -47 -33 -105.5t2.5 -108.5t55.5 -84t127 -34q70 0 162 26.5t188 83t188.5 142.5t163.5 205q72 119 87.5 237.5t-29.5 211.5t-154 151.5t-283 58.5q-139 0 -266 -43t-238.5 -121t-206 -187.5t-167.5 -242.5q-53 -98 -80 -205.5t-26 -211 t32 -196.5t90.5 -163t149.5 -111t211 -41q205 0 400.5 73t366.5 188.5t308 262t225 294.5l16 -9q-74 -133 -205.5 -280.5t-307 -270t-384 -202.5t-434.5 -80q-158 0 -276.5 42t-199.5 112.5t-127 162.5t-60.5 193.5z" />
<glyph unicode="&#xaa;" horiz-adv-x="636" d="M160 793q0 59 35.5 119.5t91 108.5t122 78.5t128.5 30.5q47 0 73.5 -18t42.5 -57l33 49l139 6q-18 -33 -57 -86t-79 -109.5t-70.5 -109.5t-30.5 -86q0 -29 33 -29q16 0 37.5 12.5t43.5 34.5l13 -12q-29 -31 -67 -49.5t-79 -18.5t-64.5 20.5t-23.5 49.5q0 10 2 20.5 t6 20.5l-4 2q-39 -41 -93 -77t-113 -36q-66 0 -92.5 41t-26.5 95zM291 788q0 -35 13 -58t52 -23q43 0 88 39.5t82 94t61.5 111.5t24.5 92t-12 52.5t-51 17.5q-45 0 -91 -37t-83 -88t-60.5 -107.5t-23.5 -93.5z" />
<glyph unicode="&#xab;" horiz-adv-x="909" d="M98 354l477 346l15 -16l-320 -334l125 -317l-18 -13zM434 354l479 346l15 -16l-322 -334l127 -317l-18 -13z" />
<glyph unicode="&#xac;" horiz-adv-x="1228" d="M319 471l19 27h733l-215 -328l-174 -25l211 326h-574z" />
<glyph unicode="&#xad;" horiz-adv-x="757" d="M41 295l88 131h481l-86 -131h-483z" />
<glyph unicode="&#xae;" horiz-adv-x="1638" d="M177 462q3 161 81 314q92 180 222 305t285 204t326 115t345 36q201 0 339 -64.5t207.5 -169t67.5 -233.5t-78 -258q-45 -78 -125 -148.5t-174 -124t-190 -86.5t-172 -33q-74 0 -105.5 30t-23.5 79q6 45 27.5 91t27.5 99q12 74 -51 82q0 2 1 4.5t1 4.5q10 0 21.5 -3.5 t21.5 -0.5q41 2 75.5 19t60.5 46t40 64.5t14 76.5q0 27 -8 52.5t-29 42.5q-41 -23 -82.5 -83.5t-88 -136t-95.5 -158.5t-106.5 -151.5t-123 -113t-140.5 -44.5q-16 0 -38 2.5t-41.5 11.5t-32.5 25.5t-13 44.5q0 27 16 43.5t45 16.5q16 0 30.5 -15.5t14.5 -31.5t-11 -33.5 t-34 -15.5q16 -35 61 -35q31 0 66 43t77 110.5t91 148.5t106.5 157.5t126 138t148.5 90.5q-37 12 -68.5 17t-72.5 5q-72 0 -143.5 -18t-134 -54t-110 -89.5t-67.5 -122.5q-10 -29 -16.5 -60.5t-3 -59.5t18.5 -46.5t46 -18.5q37 0 63.5 17.5t44 46.5t25.5 64.5t8 72.5h13 q0 -43 -9.5 -82t-30 -68.5t-50 -48t-70.5 -18.5q-78 0 -121 42t-43 101q0 80 53 144.5t138 112t188.5 73t204.5 25.5q43 0 80.5 -5.5t72.5 -21.5q16 8 56.5 18.5t62.5 10.5q0 -2 1 -4t1 -4q-23 -4 -46.5 -12.5t-45.5 -18.5q27 -12 52.5 -29.5t45 -41t27.5 -51.5t-2 -60 q-10 -41 -40 -69t-71 -44t-87 -22.5t-89 -6.5q43 -18 74 -48t31 -64q0 -25 -6.5 -49.5t-20.5 -59.5q-10 -23 -14.5 -45t0 -40.5t18.5 -31t45 -12.5q43 0 95.5 21.5t108.5 64.5t112.5 107.5t105.5 150.5q39 68 59.5 149t15.5 161.5t-35 155.5t-88.5 132t-148.5 92t-213 35 q-166 0 -306 -48t-253.5 -130t-202 -189.5t-149.5 -226.5q-53 -100 -76.5 -207.5t-19.5 -211t37.5 -195.5t97 -163t156 -112t215.5 -41q205 0 400.5 73t366.5 189.5t308 263t225 294.5l16 -9q-74 -133 -205.5 -280.5t-307 -270t-384 -202.5t-434.5 -80q-238 0 -390 85 t-226 217t-71 293z" />
<glyph unicode="&#xaf;" horiz-adv-x="530" d="M197 981v94h544v-94h-544z" />
<glyph unicode="&#xb0;" horiz-adv-x="819" d="M244 838q0 61 22.5 114.5t62.5 93t93 62t115 22.5q61 0 114.5 -22.5t93 -62t62 -93t22.5 -114.5t-22.5 -114.5t-62 -93.5t-93 -62.5t-114.5 -22.5t-114.5 22.5t-93.5 62.5t-62.5 93.5t-22.5 114.5zM330 842q0 -43 16 -82t44 -68.5t66 -47t81 -17.5t80.5 17.5t65.5 47 t44 68.5t16 82t-16 82t-44 68.5t-65.5 47t-80.5 17.5t-81 -17.5t-66 -47t-44 -68.5t-16 -82z" />
<glyph unicode="&#xb1;" horiz-adv-x="1228" d="M131 0l25 29h653l-27 -29h-651zM360 440l21 29h272l176 268l162 17l-188 -285h282l-20 -29h-281l-174 -264l-168 -26l193 290h-275z" />
<glyph unicode="&#xb2;" horiz-adv-x="659" d="M-14 449q0 14 20.5 29.5t73.5 41t146 67.5t239 107q86 39 133 94.5t47 143.5q0 25 -7 51.5t-23.5 48t-40 35.5t-58.5 14q-59 0 -96 -35.5t-37 -91.5q0 -39 15.5 -67.5t54.5 -28.5q12 0 27.5 4t25.5 12q-12 -39 -42 -62.5t-77 -23.5q-49 0 -84 27t-35 80q0 49 29 88 t73 66.5t95 42t96 14.5q47 0 88 -10.5t74 -31t51.5 -51t18.5 -71.5q0 -76 -54.5 -132t-141.5 -101t-196.5 -83t-220.5 -77l4 -4q20 6 45 9t45 3q68 0 134.5 -19.5t113.5 -19.5q35 0 63.5 14.5t53.5 37t44 48t34 50.5l12 -6q-25 -41 -55.5 -83t-67.5 -76t-83 -54.5 t-103 -20.5q-33 0 -73 12.5t-81 27.5t-76.5 26.5t-58.5 9.5q-33 -2 -51.5 -14.5t-30.5 -26.5t-21.5 -24.5t-23.5 -10.5q-18 0 -18 21z" />
<glyph unicode="&#xb3;" horiz-adv-x="659" d="M72 594q0 53 41 91t98 38q37 0 64.5 -16.5t52.5 -38.5l-6 -11q-12 4 -22.5 6.5t-20.5 2.5q-33 0 -54.5 -25t-21.5 -66q0 -53 40 -87.5t117 -34.5q94 0 150.5 60t52.5 151q0 66 -33.5 86t-99.5 20q-29 0 -57 -6l4 22q51 0 108.5 8.5t104.5 29t78.5 57.5t31.5 96 q0 47 -20.5 75.5t-73.5 28.5t-78.5 -32.5t-25.5 -71.5q0 -29 15 -47.5t46 -18.5q6 0 22.5 5.5t20.5 11.5q-12 -35 -43 -56.5t-71 -21.5q-47 0 -74 25.5t-27 66.5q0 72 74 118t190 46q33 0 66 -7t60.5 -22.5t45 -39t17.5 -58.5q0 -55 -35 -89t-85 -54.5t-106.5 -30.5 t-99.5 -17v-4q33 0 68 -5t63.5 -19.5t47 -39t18.5 -61.5q0 -68 -39 -111.5t-95.5 -70t-119 -38t-109.5 -11.5q-51 0 -101 8t-90 28.5t-64.5 52.5t-24.5 77z" />
<glyph unicode="&#xb4;" horiz-adv-x="530" d="M371 858q0 10 23.5 29.5t54 49.5t60.5 66.5t40 81.5q4 16 10 38t14.5 40.5t20.5 31.5t27 13q31 0 48 -18t17 -47q0 -47 -39 -99.5t-91 -97.5t-101 -73.5t-72 -28.5q-12 0 -12 14z" />
<glyph unicode="&#xb5;" d="M-541 -664l785 1385l217 8q-162 -248 -263.5 -406.5t-101.5 -236.5q0 -25 13.5 -41t35.5 -16q39 0 93.5 32.5t114 88t117.5 127t105 149.5l177 287l211 16q-80 -133 -149 -237.5t-118 -185.5t-76.5 -140.5t-27.5 -104.5t39 -45q25 0 59.5 17.5t73.5 45t80 64.5t78 74 q45 47 89 95t81.5 93.5t68.5 83t51 64.5l17 -12q-49 -66 -125 -157t-162 -179q-104 -106 -192 -165.5t-175 -59.5q-61 0 -98 36.5t-37 92.5q0 39 7.5 69.5t17.5 46.5l-4 4q-37 -39 -80 -83t-92 -80.5t-105.5 -61t-122.5 -24.5q-16 0 -36 4l-369 -639z" />
<glyph unicode="&#xb6;" horiz-adv-x="1228" d="M43 -319l569 923q-135 0 -193.5 62.5t-58.5 148.5q0 96 53.5 207t149.5 205t231.5 156.5t299.5 62.5h536l-28 -45q-57 -4 -94.5 -9.5t-63 -16.5t-44 -30.5t-40.5 -54.5l-991 -1609h-103l1049 1703h-121l-1049 -1703h-102z" />
<glyph unicode="&#xb7;" horiz-adv-x="569" d="M141 360q0 47 34 81t81 34t81 -33.5t34 -81.5q0 -47 -34 -80.5t-81 -33.5t-81 33.5t-34 80.5z" />
<glyph unicode="&#xb8;" horiz-adv-x="530" d="M-274 -326q0 12 6 15.5t14 3.5q6 0 25.5 -8.5t47 -17.5t61.5 -16t71 -7q25 0 52.5 3t49 14t35.5 30.5t14 50.5q0 47 -29.5 62.5t-60.5 15.5q-29 0 -51 -4t-39 -4q-14 0 -14 14q0 8 13 30.5t29.5 49t32 50.5t21.5 34h51q-20 -31 -40.5 -61.5t-34.5 -65.5q14 4 36.5 5 t36.5 1q59 0 101.5 -28.5t42.5 -96.5q0 -43 -19.5 -71.5t-51.5 -46t-73 -25t-86 -7.5q-27 0 -67.5 6.5t-79.5 17.5t-66.5 25.5t-27.5 30.5z" />
<glyph unicode="&#xb9;" horiz-adv-x="659" d="M211 438l364 523l-4 4q-70 -33 -153.5 -60.5t-175.5 -48.5l-4 12q154 31 293 93.5t262 144.5l30 -8q-109 -158 -221.5 -323t-208.5 -314l105 4l-4 -14q-139 -10 -283 -13z" />
<glyph unicode="&#xba;" horiz-adv-x="591" d="M188 803q0 66 36 125t93.5 104t127 71.5t137.5 26.5q72 0 115.5 -38.5t43.5 -106.5q0 -66 -35.5 -125t-93 -104t-126 -72t-136.5 -27q-74 0 -118 39t-44 107zM299 737q0 -23 11.5 -43t39.5 -20q55 0 106.5 44t89.5 105.5t61.5 125t23.5 102.5q0 23 -10.5 43t-38.5 20 q-55 0 -106.5 -44t-90.5 -105.5t-62.5 -125t-23.5 -102.5z" />
<glyph unicode="&#xbb;" horiz-adv-x="909" d="M14 37l322 334l-127 317l18 12l279 -333l-477 -347zM16 37l322 334l-127 317l18 12l281 -333l-479 -347zM354 37l320 334l-125 317l18 12l279 -333l-477 -347z" />
<glyph unicode="&#xbc;" horiz-adv-x="1648" d="M272 438l365 523l-4 4q-70 -33 -154 -60.5t-176 -48.5l-4 12q154 31 293 93.5t262 144.5l31 -8q-109 -158 -221.5 -323t-208.5 -314l104 4l-4 -14q-139 -10 -283 -13zM315 -25l920 1155h94l-915 -1155h-99zM721 225l680 535h80l-670 -494v-4h322l245 367l176 16 q-72 -96 -138 -193.5t-130 -189.5h125l-10 -37h-137q-35 -53 -71 -106t-69 -111l-178 -8l160 225h-385z" />
<glyph unicode="&#xbd;" horiz-adv-x="1648" d="M223 438l365 523l-4 4q-70 -33 -154 -60.5t-176 -48.5l-4 12q154 31 293 93.5t262 144.5l31 -8q-109 -158 -221.5 -323t-208.5 -314l104 4l-4 -14q-139 -10 -283 -13zM281 -25l919 1155h94l-915 -1155h-98zM655 4q0 14 20.5 29.5t74 41t146.5 67.5t239 108q86 39 133 94 t47 143q0 25 -7.5 51.5t-23.5 48t-39.5 36t-58.5 14.5q-59 0 -96 -36t-37 -91q0 -39 15 -67.5t54 -28.5q12 0 27.5 4t26.5 12q-12 -39 -42 -62.5t-77 -23.5q-49 0 -84 26.5t-35 80.5q0 49 28.5 88t72.5 66.5t95.5 42t96.5 14.5q47 0 88 -10.5t73.5 -31t51 -51t18.5 -71.5 q0 -76 -54 -132.5t-141 -101.5t-196.5 -83t-220.5 -77l4 -4q20 6 45 9.5t45 3.5q68 0 134.5 -19.5t113.5 -19.5q35 0 63.5 14t53 36.5t44 48.5t33.5 50l13 -6q-25 -41 -55.5 -83t-67.5 -75.5t-83 -54t-103 -20.5q-33 0 -73 12t-81 27.5t-77 26.5t-58 9q-33 -2 -51.5 -14 t-30.5 -26.5t-21.5 -24.5t-23.5 -10q-18 0 -19 20z" />
<glyph unicode="&#xbe;" horiz-adv-x="1648" d="M133 594q0 53 41 91t98 38q37 0 65 -16.5t52 -38.5l-6 -11q-12 4 -22.5 6.5t-20.5 2.5q-33 0 -54.5 -25t-21.5 -66q0 -53 40 -87.5t118 -34.5q94 0 150.5 60t52.5 151q0 66 -34 86t-99 20q-29 0 -58 -6l4 22q51 0 108.5 8.5t104.5 29t79 57.5t32 96q0 47 -20.5 75.5 t-73.5 28.5t-79 -32.5t-26 -71.5q0 -29 15.5 -47.5t46.5 -18.5q6 0 22.5 5.5t20.5 11.5q-12 -35 -43 -56.5t-72 -21.5q-47 0 -73.5 25.5t-26.5 66.5q0 72 73.5 118t190.5 46q33 0 65.5 -7t60 -22.5t45 -39t17.5 -58.5q0 -55 -34.5 -89t-85 -54.5t-106.5 -30.5t-99 -17v-4 q33 0 67.5 -5t63 -19.5t47 -39t18.5 -61.5q0 -68 -39 -111.5t-95 -70t-118.5 -38t-109.5 -11.5q-51 0 -101.5 8t-90.5 28.5t-64.5 52.5t-24.5 77zM397 -25l920 1155h94l-915 -1155h-99zM803 225l680 535h80l-670 -494v-4h321l246 367l176 16q-72 -96 -138 -193.5 t-130 -189.5h125l-10 -37h-137q-35 -53 -71 -106t-69 -111l-178 -8l160 225h-385z" />
<glyph unicode="&#xbf;" d="M-57 -113q0 100 40 167t103.5 114t142 81t156.5 67.5t148.5 72.5t115.5 96l13 -10q-39 -55 -94.5 -97t-115 -78t-118 -71.5t-104.5 -81t-74.5 -103.5t-28.5 -140q0 -125 58.5 -184.5t160.5 -59.5q41 0 82 16.5t72.5 47t52 74.5t20.5 98q0 66 -35.5 108.5t-91.5 42.5 q-20 0 -40.5 -8t-36.5 -19q14 63 59 98.5t111 35.5q82 0 126 -53.5t44 -131.5q0 -55 -31 -115.5t-87 -111.5t-135 -85t-177 -34q-162 0 -249 77t-87 187zM610 639q0 47 34 81t81 34t81 -34t34 -81t-34 -81t-81 -34t-81 34t-34 81z" />
<glyph unicode="&#xc0;" horiz-adv-x="1781" d="M-231 238q0 59 32.5 108t98.5 49q41 0 69.5 -25.5t28.5 -62.5q0 -55 -33 -79.5t-86 -24.5q0 -43 20.5 -78t51.5 -57.5t69.5 -35t75.5 -12.5q92 0 181.5 32t175.5 85t165.5 123t153.5 143.5t139.5 148.5t120.5 136q113 127 235 251t255 233.5t279.5 196.5t307.5 136 l15 -12q-156 -176 -298.5 -359.5t-250 -361.5t-172 -343t-64.5 -306q0 -53 18.5 -75.5t49.5 -22.5q59 0 155.5 65.5t198.5 169.5q33 35 69 75t69.5 80t61.5 74.5t46 57.5l16 -10q-47 -61 -107.5 -138t-158.5 -176q-104 -104 -207.5 -173.5t-208.5 -69.5q-51 0 -84.5 16 t-53 44t-28 62.5t-8.5 73.5q0 125 41 240.5t97 220.5h-287q-84 -98 -187.5 -211t-222.5 -208t-250 -158.5t-272 -63.5q-61 0 -117.5 14.5t-101.5 44t-71.5 74.5t-26.5 109zM1040 662h277q115 203 260 385t317 342l-4 4q-242 -127 -445.5 -315.5t-404.5 -415.5zM1761 1821 q0 29 17.5 47t48.5 18q16 0 27.5 -13t19.5 -31.5t14 -40t10 -38.5q10 -45 40 -81.5t61 -66.5t54.5 -49.5t23.5 -29.5q0 -14 -13 -14q-20 0 -70 28.5t-102.5 73.5t-91.5 97.5t-39 99.5z" />
<glyph unicode="&#xc1;" horiz-adv-x="1781" d="M-231 238q0 59 32.5 108t98.5 49q41 0 69.5 -25.5t28.5 -62.5q0 -55 -33 -79.5t-86 -24.5q0 -43 20.5 -78t51.5 -57.5t69.5 -35t75.5 -12.5q92 0 181.5 32t175.5 85t165.5 123t153.5 143.5t139.5 148.5t120.5 136q113 127 235 251t255 233.5t279.5 196.5t307.5 136 l15 -12q-156 -176 -298.5 -359.5t-250 -361.5t-172 -343t-64.5 -306q0 -53 18.5 -75.5t49.5 -22.5q59 0 155.5 65.5t198.5 169.5q33 35 69 75t69.5 80t61.5 74.5t46 57.5l16 -10q-47 -61 -107.5 -138t-158.5 -176q-104 -104 -207.5 -173.5t-208.5 -69.5q-51 0 -84.5 16 t-53 44t-28 62.5t-8.5 73.5q0 125 41 240.5t97 220.5h-287q-84 -98 -187.5 -211t-222.5 -208t-250 -158.5t-272 -63.5q-61 0 -117.5 14.5t-101.5 44t-71.5 74.5t-26.5 109zM1040 662h277q115 203 260 385t317 342l-4 4q-242 -127 -445.5 -315.5t-404.5 -415.5zM1970 1536 q0 10 23.5 29.5t54.5 49.5t60.5 66.5t39.5 81.5q4 16 10.5 38t14.5 40.5t20.5 31.5t26.5 13q31 0 48.5 -18t17.5 -47q0 -47 -39 -99.5t-91.5 -97.5t-101.5 -73.5t-72 -28.5q-12 0 -12 14z" />
<glyph unicode="&#xc2;" horiz-adv-x="1781" d="M-231 238q0 59 32.5 108t98.5 49q41 0 69.5 -25.5t28.5 -62.5q0 -55 -33 -79.5t-86 -24.5q0 -43 20.5 -78t51.5 -57.5t69.5 -35t75.5 -12.5q92 0 181.5 32t175.5 85t165.5 123t153.5 143.5t139.5 148.5t120.5 136q113 127 235 251t255 233.5t279.5 196.5t307.5 136 l15 -12q-156 -176 -298.5 -359.5t-250 -361.5t-172 -343t-64.5 -306q0 -53 18.5 -75.5t49.5 -22.5q59 0 155.5 65.5t198.5 169.5q33 35 69 75t69.5 80t61.5 74.5t46 57.5l16 -10q-47 -61 -107.5 -138t-158.5 -176q-104 -104 -207.5 -173.5t-208.5 -69.5q-51 0 -84.5 16 t-53 44t-28 62.5t-8.5 73.5q0 125 41 240.5t97 220.5h-287q-84 -98 -187.5 -211t-222.5 -208t-250 -158.5t-272 -63.5q-61 0 -117.5 14.5t-101.5 44t-71.5 74.5t-26.5 109zM1040 662h277q115 203 260 385t317 342l-4 4q-242 -127 -445.5 -315.5t-404.5 -415.5zM1776 1550 q0 10 27.5 31t73.5 59.5t104.5 99t117.5 146.5h37q20 -82 49 -141t55.5 -100t45 -65t18.5 -34q0 -16 -18 -16q-10 0 -38 26.5t-59.5 62.5t-59.5 68.5t-36 45.5q-27 -20 -73 -54t-92 -66t-86 -54.5t-58 -22.5q-8 0 -8 14z" />
<glyph unicode="&#xc3;" horiz-adv-x="1781" d="M-231 238q0 59 32.5 108t98.5 49q41 0 69.5 -25.5t28.5 -62.5q0 -55 -33 -79.5t-86 -24.5q0 -43 20.5 -78t51.5 -57.5t69.5 -35t75.5 -12.5q92 0 181.5 32t175.5 85t165.5 123t153.5 143.5t139.5 148.5t120.5 136q113 127 235 251t255 233.5t279.5 196.5t307.5 136 l15 -12q-156 -176 -298.5 -359.5t-250 -361.5t-172 -343t-64.5 -306q0 -53 18.5 -75.5t49.5 -22.5q59 0 155.5 65.5t198.5 169.5q33 35 69 75t69.5 80t61.5 74.5t46 57.5l16 -10q-47 -61 -107.5 -138t-158.5 -176q-104 -104 -207.5 -173.5t-208.5 -69.5q-51 0 -84.5 16 t-53 44t-28 62.5t-8.5 73.5q0 125 41 240.5t97 220.5h-287q-84 -98 -187.5 -211t-222.5 -208t-250 -158.5t-272 -63.5q-61 0 -117.5 14.5t-101.5 44t-71.5 74.5t-26.5 109zM1040 662h277q115 203 260 385t317 342l-4 4q-242 -127 -445.5 -315.5t-404.5 -415.5zM1782 1608 q4 33 16 67.5t33.5 63t51.5 47t67 18.5q47 0 85 -12t72.5 -26.5t66.5 -27t62 -12.5q53 0 82 26t47 73h35q-6 -35 -20.5 -70t-38 -63.5t-54 -46t-69.5 -17.5q-41 0 -78 11.5t-71.5 27.5t-69.5 27.5t-70 11.5q-47 0 -74.5 -28.5t-44.5 -69.5h-28z" />
<glyph unicode="&#xc4;" horiz-adv-x="1781" d="M-231 238q0 59 32.5 108t98.5 49q41 0 69.5 -25.5t28.5 -62.5q0 -55 -33 -79.5t-86 -24.5q0 -43 20.5 -78t51.5 -57.5t69.5 -35t75.5 -12.5q92 0 181.5 32t175.5 85t165.5 123t153.5 143.5t139.5 148.5t120.5 136q113 127 235 251t255 233.5t279.5 196.5t307.5 136 l15 -12q-156 -176 -298.5 -359.5t-250 -361.5t-172 -343t-64.5 -306q0 -53 18.5 -75.5t49.5 -22.5q59 0 155.5 65.5t198.5 169.5q33 35 69 75t69.5 80t61.5 74.5t46 57.5l16 -10q-47 -61 -107.5 -138t-158.5 -176q-104 -104 -207.5 -173.5t-208.5 -69.5q-51 0 -84.5 16 t-53 44t-28 62.5t-8.5 73.5q0 125 41 240.5t97 220.5h-287q-84 -98 -187.5 -211t-222.5 -208t-250 -158.5t-272 -63.5q-61 0 -117.5 14.5t-101.5 44t-71.5 74.5t-26.5 109zM1040 662h277q115 203 260 385t317 342l-4 4q-242 -127 -445.5 -315.5t-404.5 -415.5zM1802 1724 q0 39 26.5 69t65.5 30t66 -30t27 -69t-27 -68.5t-66 -29.5t-65.5 30t-26.5 68zM2171 1724q0 39 26.5 69t65.5 30t65.5 -30t26.5 -69t-26.5 -68.5t-65.5 -29.5t-65.5 30t-26.5 68z" />
<glyph unicode="&#xc5;" horiz-adv-x="1781" d="M-231 238q0 59 32.5 108t98.5 49q41 0 69.5 -25.5t28.5 -62.5q0 -55 -33 -79.5t-86 -24.5q0 -43 20.5 -78t51.5 -57.5t69.5 -35t75.5 -12.5q92 0 181.5 32t175.5 85t165.5 123t153.5 143.5t139.5 148.5t120.5 136q113 127 235 251t255 233.5t279.5 196.5t307.5 136 l15 -12q-156 -176 -298.5 -359.5t-250 -361.5t-172 -343t-64.5 -306q0 -53 18.5 -75.5t49.5 -22.5q59 0 155.5 65.5t198.5 169.5q33 35 69 75t69.5 80t61.5 74.5t46 57.5l16 -10q-47 -61 -107.5 -138t-158.5 -176q-104 -104 -207.5 -173.5t-208.5 -69.5q-51 0 -84.5 16 t-53 44t-28 62.5t-8.5 73.5q0 125 41 240.5t97 220.5h-287q-84 -98 -187.5 -211t-222.5 -208t-250 -158.5t-272 -63.5q-61 0 -117.5 14.5t-101.5 44t-71.5 74.5t-26.5 109zM1040 662h277q115 203 260 385t317 342l-4 4q-242 -127 -445.5 -315.5t-404.5 -415.5zM1917 1669 q0 53 23.5 98t61.5 79t88 53.5t101 19.5q31 0 62 -8t55.5 -25.5t39.5 -44t15 -61.5q0 -53 -23.5 -98.5t-61 -79t-87 -53t-102.5 -19.5q-31 0 -61.5 8t-55 25.5t-40 44t-15.5 61.5zM2007 1630q0 -33 14.5 -56.5t51.5 -23.5q41 0 76.5 30t63.5 71t44 88t16 80t-14 56t-51 23 q-39 0 -76 -29.5t-64.5 -70.5t-44 -87t-16.5 -81z" />
<glyph unicode="&#xc6;" horiz-adv-x="2048" d="M-37 135q0 49 27.5 81t81.5 32q41 0 68.5 -24.5t27.5 -65.5q0 -25 -13.5 -45.5t-35.5 -28.5q8 -35 43 -51.5t65 -16.5q72 0 140.5 31t132 81t121 112.5t106.5 125t90 120t72 96.5q35 43 92 120.5t140 171t193.5 193.5t250.5 188v5q-92 8 -189.5 14t-197.5 6 q-129 0 -264.5 -21.5t-256 -68.5t-217 -123t-145.5 -184q-14 -31 -23.5 -64t-9.5 -67q0 -88 54.5 -133.5t138.5 -45.5q72 0 139.5 30t119.5 77t84.5 108.5t32.5 122.5q0 43 -7 77t-13 63l18 4q10 -23 18.5 -68t8.5 -80q0 -86 -30.5 -160.5t-85 -130t-129 -86t-165.5 -30.5 q-43 0 -81.5 17.5t-66.5 47t-44 68.5t-16 82q0 66 19 125t53 112.5t78 99.5t93 85q84 68 191.5 117t227.5 80.5t245 48t241 16.5q96 0 179.5 -5t183.5 -12q35 16 84 42t110.5 50.5t134 42t150.5 17.5q86 -2 145.5 -30.5t59.5 -94.5q0 -63 -44 -103t-105.5 -62.5t-129 -30 t-116.5 -7.5q-25 0 -55.5 3t-47.5 3q-86 -45 -150.5 -123.5t-108.5 -161.5t-71.5 -155t-39.5 -100q12 -2 46 3t72.5 12t73.5 16.5t49 17.5q6 14 17.5 33.5t26 36t33 28.5t38.5 12q78 0 152 -12q-129 -92 -230.5 -217t-134.5 -285l-25 5q10 94 35 185t72 175 q-57 -12 -114.5 -21.5t-116.5 -13.5q-66 -154 -168.5 -288t-249.5 -220v-4q88 -8 174 -22.5t176 -14.5q139 0 242.5 26t192.5 80t171 138t176 201l13 -8q-78 -94 -165 -196.5t-187.5 -187.5t-215 -140.5t-245.5 -55.5q-51 0 -108.5 11t-115 26.5t-114 35t-103.5 33.5 q-29 -16 -53.5 -31.5t-52 -26.5t-63.5 -17t-89 -6q-41 0 -66.5 16t-25.5 45q0 39 39 60.5t92 31.5t107.5 12t87.5 2q41 0 84 -6q51 53 88 113.5t67.5 125t57 132.5t55.5 131q-43 -4 -88 -4h-88q-37 0 -97.5 4t-105.5 12q-76 -92 -159 -208.5t-179 -221t-211 -175t-256 -70.5 q-37 0 -75 8t-68.5 26.5t-50 48t-19.5 72.5zM707 43q0 -29 26.5 -34t63.5 -5q43 0 103.5 15.5t107.5 50.5q-47 10 -93.5 19t-95.5 9q-14 0 -33.5 -2t-37 -8t-29.5 -16.5t-12 -28.5zM995 676q49 -4 96.5 -8t96.5 -4q45 0 90 -1t90 5q76 186 209 330.5t324 215.5v5 q-66 6 -138.5 16t-158.5 20q-68 -41 -145 -100t-156.5 -134t-158.5 -162t-149 -183zM1790 1376q131 -14 241 -28.5t169 -14.5q27 0 62.5 1t68 9.5t55 27t22.5 50.5q0 35 -51 61.5t-141 26.5q-115 0 -219.5 -38.5t-206.5 -90.5v-4z" />
<glyph unicode="&#xc7;" horiz-adv-x="1366" d="M152 403q0 131 55 262.5t148.5 251t217 222t261 178.5t278.5 119t270 43q59 0 114.5 -12.5t98.5 -40t69 -74.5t26 -117q0 -76 -37 -136.5t-95.5 -101.5t-130 -63.5t-139.5 -22.5q-43 0 -83 10.5t-70.5 32t-50 55t-19.5 81.5q0 29 8 57.5t17 42.5l20 -6q-10 -18 -15 -45 t-5 -49q0 -66 40.5 -104t104.5 -38q66 0 126 33t106 85t73 116.5t27 128.5q0 45 -19.5 72.5t-49.5 43t-61.5 21.5t-56.5 6q-106 0 -223 -47t-230.5 -128t-216 -189.5t-180 -233.5t-124 -258t-46.5 -262q0 -76 17.5 -138.5t52.5 -108.5t86 -71.5t119 -25.5q88 0 172 39 t150.5 105.5t106.5 153.5t40 181q0 84 -35 141.5t-125 57.5q-47 0 -90 -24.5t-82 -60.5t-69.5 -76t-53.5 -73l-20 10q35 53 75.5 101.5t89 87.5t105.5 61.5t127 22.5q106 0 174 -64.5t68 -169.5q0 -125 -62.5 -221t-162 -161.5t-221.5 -100.5t-240 -35q-205 0 -317.5 117 t-112.5 319zM238 -326q0 12 6 15.5t14 3.5q6 0 25.5 -8.5t47 -17.5t61.5 -16t71 -7q25 0 52.5 3t49 14t35.5 30.5t14 50.5q0 47 -29.5 62.5t-60.5 15.5q-29 0 -51 -4t-39 -4q-14 0 -14 14q0 8 13 30.5t29.5 49t32 50.5t21.5 34h51q-20 -31 -40.5 -61.5t-34.5 -65.5 q14 4 36.5 5t36.5 1q59 0 101.5 -28.5t42.5 -96.5q0 -43 -19.5 -71.5t-51.5 -46t-73 -25t-86 -7.5q-27 0 -67.5 6.5t-79.5 17.5t-66.5 25.5t-27.5 30.5z" />
<glyph unicode="&#xc8;" horiz-adv-x="1402" d="M111 322q0 100 41 166.5t103 113.5t135 82t136.5 72t106.5 82t47 112q8 147 52 248.5t116 163t166 89.5t198 28q55 0 114.5 -10.5t108 -37t79 -71.5t30.5 -113q0 -74 -33.5 -128t-87 -91t-119 -55.5t-130.5 -18.5q-39 0 -77 5.5t-75 17.5l2 18q45 -16 94 -16 q129 0 204 67.5t75 202.5q0 96 -51.5 150.5t-149.5 54.5q-59 0 -107.5 -23.5t-83 -62.5t-56 -90t-29.5 -104q-12 -72 -23.5 -125.5t-35 -95.5t-64.5 -75.5t-113 -68.5q-82 -39 -149.5 -79t-114.5 -92t-74 -124t-27 -174q0 -82 34 -144.5t89.5 -105.5t126 -64.5t146.5 -21.5 q80 0 151.5 23.5t127 69.5t88 114t32.5 154t-44 135t-130 49q-76 0 -136.5 -39t-109.5 -92l-14 10q74 76 154.5 117t189.5 41q55 0 102.5 -15.5t83 -45t56 -73.5t20.5 -100q0 -106 -73.5 -180t-181 -120t-226.5 -65.5t-209 -19.5q-84 0 -171 17.5t-156.5 58.5t-113.5 108.5 t-44 170.5zM995 1821q0 29 17.5 47t48.5 18q16 0 27.5 -13t19.5 -31.5t14 -40t11 -38.5q10 -45 39.5 -81.5t60.5 -66.5t54.5 -49.5t23.5 -29.5q0 -14 -13 -14q-20 0 -70 28.5t-102.5 73.5t-91.5 97.5t-39 99.5z" />
<glyph unicode="&#xc9;" horiz-adv-x="1402" d="M111 322q0 100 41 166.5t103 113.5t135 82t136.5 72t106.5 82t47 112q8 147 52 248.5t116 163t166 89.5t198 28q55 0 114.5 -10.5t108 -37t79 -71.5t30.5 -113q0 -74 -33.5 -128t-87 -91t-119 -55.5t-130.5 -18.5q-39 0 -77 5.5t-75 17.5l2 18q45 -16 94 -16 q129 0 204 67.5t75 202.5q0 96 -51.5 150.5t-149.5 54.5q-59 0 -107.5 -23.5t-83 -62.5t-56 -90t-29.5 -104q-12 -72 -23.5 -125.5t-35 -95.5t-64.5 -75.5t-113 -68.5q-82 -39 -149.5 -79t-114.5 -92t-74 -124t-27 -174q0 -82 34 -144.5t89.5 -105.5t126 -64.5t146.5 -21.5 q80 0 151.5 23.5t127 69.5t88 114t32.5 154t-44 135t-130 49q-76 0 -136.5 -39t-109.5 -92l-14 10q74 76 154.5 117t189.5 41q55 0 102.5 -15.5t83 -45t56 -73.5t20.5 -100q0 -106 -73.5 -180t-181 -120t-226.5 -65.5t-209 -19.5q-84 0 -171 17.5t-156.5 58.5t-113.5 108.5 t-44 170.5zM1204 1536q0 10 23.5 29.5t54.5 49.5t60.5 66.5t39.5 81.5q4 16 10.5 38t14.5 40.5t20.5 31.5t26.5 13q31 0 48.5 -18t17.5 -47q0 -47 -39 -99.5t-91.5 -97.5t-101.5 -73.5t-71 -28.5q-12 0 -13 14z" />
<glyph unicode="&#xca;" horiz-adv-x="1402" d="M111 322q0 100 41 166.5t103 113.5t135 82t136.5 72t106.5 82t47 112q8 147 52 248.5t116 163t166 89.5t198 28q55 0 114.5 -10.5t108 -37t79 -71.5t30.5 -113q0 -74 -33.5 -128t-87 -91t-119 -55.5t-130.5 -18.5q-39 0 -77 5.5t-75 17.5l2 18q45 -16 94 -16 q129 0 204 67.5t75 202.5q0 96 -51.5 150.5t-149.5 54.5q-59 0 -107.5 -23.5t-83 -62.5t-56 -90t-29.5 -104q-12 -72 -23.5 -125.5t-35 -95.5t-64.5 -75.5t-113 -68.5q-82 -39 -149.5 -79t-114.5 -92t-74 -124t-27 -174q0 -82 34 -144.5t89.5 -105.5t126 -64.5t146.5 -21.5 q80 0 151.5 23.5t127 69.5t88 114t32.5 154t-44 135t-130 49q-76 0 -136.5 -39t-109.5 -92l-14 10q74 76 154.5 117t189.5 41q55 0 102.5 -15.5t83 -45t56 -73.5t20.5 -100q0 -106 -73.5 -180t-181 -120t-226.5 -65.5t-209 -19.5q-84 0 -171 17.5t-156.5 58.5t-113.5 108.5 t-44 170.5zM1010 1550q0 10 27.5 31t73.5 59.5t104.5 99t117.5 146.5h37q20 -82 49 -141t55.5 -100t45 -65t18.5 -34q0 -16 -18 -16q-10 0 -38 26.5t-59.5 62.5t-59.5 68.5t-36 45.5q-27 -20 -73 -54t-92 -66t-86 -54.5t-58 -22.5q-8 0 -8 14z" />
<glyph unicode="&#xcb;" horiz-adv-x="1402" d="M111 322q0 100 41 166.5t103 113.5t135 82t136.5 72t106.5 82t47 112q8 147 52 248.5t116 163t166 89.5t198 28q55 0 114.5 -10.5t108 -37t79 -71.5t30.5 -113q0 -74 -33.5 -128t-87 -91t-119 -55.5t-130.5 -18.5q-39 0 -77 5.5t-75 17.5l2 18q45 -16 94 -16 q129 0 204 67.5t75 202.5q0 96 -51.5 150.5t-149.5 54.5q-59 0 -107.5 -23.5t-83 -62.5t-56 -90t-29.5 -104q-12 -72 -23.5 -125.5t-35 -95.5t-64.5 -75.5t-113 -68.5q-82 -39 -149.5 -79t-114.5 -92t-74 -124t-27 -174q0 -82 34 -144.5t89.5 -105.5t126 -64.5t146.5 -21.5 q80 0 151.5 23.5t127 69.5t88 114t32.5 154t-44 135t-130 49q-76 0 -136.5 -39t-109.5 -92l-14 10q74 76 154.5 117t189.5 41q55 0 102.5 -15.5t83 -45t56 -73.5t20.5 -100q0 -106 -73.5 -180t-181 -120t-226.5 -65.5t-209 -19.5q-84 0 -171 17.5t-156.5 58.5t-113.5 108.5 t-44 170.5zM1036 1724q0 39 26.5 69t65.5 30t66 -30t27 -69t-27 -68.5t-66 -29.5t-65.5 30t-26.5 68zM1405 1724q0 39 26.5 69t65.5 30t65.5 -30t26.5 -69t-26.5 -68.5t-65.5 -29.5t-65.5 30t-26.5 68z" />
<glyph unicode="&#xcc;" horiz-adv-x="1251" d="M-109 240q0 57 33 102t94 45q47 0 76 -27.5t29 -72.5q0 -41 -18.5 -62.5t-65.5 -31.5q0 -98 59.5 -143.5t161.5 -45.5q141 0 251 68.5t200 180.5t171 253t162 287q61 109 126 198.5t151 167.5t206 144.5t292 126.5v4q-92 0 -231.5 -5.5t-294 -24t-310.5 -54t-279.5 -99 t-201.5 -160t-78 -235.5q0 -92 52 -146.5t142 -54.5q53 0 104.5 21.5t91.5 60.5t64.5 92.5t24.5 116.5q0 31 -8 60.5t-21 56.5l21 4q12 -25 22.5 -55.5t10.5 -65.5q0 -80 -33 -143.5t-87 -107.5t-126 -66.5t-150 -22.5q-59 0 -110 18.5t-89 53.5t-59.5 84t-21.5 110 q0 125 71.5 217.5t190.5 158t270.5 106.5t311 64.5t314.5 31.5t278 8q139 0 220 10.5t124 10.5q23 0 42 -8.5t19 -24.5q0 -18 -21.5 -25.5t-46.5 -7.5q-6 0 -25.5 1t-46 3l-53 4t-45.5 4q-129 -53 -221 -127.5t-163.5 -164t-128 -187.5t-111.5 -200.5t-115.5 -205 t-140.5 -198.5q-133 -160 -302 -261t-376 -101q-59 0 -130 12t-132.5 41.5t-102.5 80t-41 126.5zM1495 1821q0 29 17.5 47t48.5 18q16 0 27 -13t19.5 -31.5t14.5 -40t10 -38.5q10 -45 40 -81.5t60.5 -66.5t54 -49.5t23.5 -29.5q0 -14 -12 -14q-20 0 -70.5 28.5t-102.5 73.5 t-91 97.5t-39 99.5z" />
<glyph unicode="&#xcd;" horiz-adv-x="1251" d="M-109 240q0 57 33 102t94 45q47 0 76 -27.5t29 -72.5q0 -41 -18.5 -62.5t-65.5 -31.5q0 -98 59.5 -143.5t161.5 -45.5q141 0 251 68.5t200 180.5t171 253t162 287q61 109 126 198.5t151 167.5t206 144.5t292 126.5v4q-92 0 -231.5 -5.5t-294 -24t-310.5 -54t-279.5 -99 t-201.5 -160t-78 -235.5q0 -92 52 -146.5t142 -54.5q53 0 104.5 21.5t91.5 60.5t64.5 92.5t24.5 116.5q0 31 -8 60.5t-21 56.5l21 4q12 -25 22.5 -55.5t10.5 -65.5q0 -80 -33 -143.5t-87 -107.5t-126 -66.5t-150 -22.5q-59 0 -110 18.5t-89 53.5t-59.5 84t-21.5 110 q0 125 71.5 217.5t190.5 158t270.5 106.5t311 64.5t314.5 31.5t278 8q139 0 220 10.5t124 10.5q23 0 42 -8.5t19 -24.5q0 -18 -21.5 -25.5t-46.5 -7.5q-6 0 -25.5 1t-46 3l-53 4t-45.5 4q-129 -53 -221 -127.5t-163.5 -164t-128 -187.5t-111.5 -200.5t-115.5 -205 t-140.5 -198.5q-133 -160 -302 -261t-376 -101q-59 0 -130 12t-132.5 41.5t-102.5 80t-41 126.5zM1704 1536q0 10 23.5 29.5t54 49.5t60.5 66.5t40 81.5q4 16 10 38t14.5 40.5t20.5 31.5t27 13q31 0 48 -18t17 -47q0 -47 -38.5 -99.5t-91 -97.5t-101.5 -73.5t-72 -28.5 q-12 0 -12 14z" />
<glyph unicode="&#xce;" horiz-adv-x="1251" d="M-109 240q0 57 33 102t94 45q47 0 76 -27.5t29 -72.5q0 -41 -18.5 -62.5t-65.5 -31.5q0 -98 59.5 -143.5t161.5 -45.5q141 0 251 68.5t200 180.5t171 253t162 287q61 109 126 198.5t151 167.5t206 144.5t292 126.5v4q-92 0 -231.5 -5.5t-294 -24t-310.5 -54t-279.5 -99 t-201.5 -160t-78 -235.5q0 -92 52 -146.5t142 -54.5q53 0 104.5 21.5t91.5 60.5t64.5 92.5t24.5 116.5q0 31 -8 60.5t-21 56.5l21 4q12 -25 22.5 -55.5t10.5 -65.5q0 -80 -33 -143.5t-87 -107.5t-126 -66.5t-150 -22.5q-59 0 -110 18.5t-89 53.5t-59.5 84t-21.5 110 q0 125 71.5 217.5t190.5 158t270.5 106.5t311 64.5t314.5 31.5t278 8q139 0 220 10.5t124 10.5q23 0 42 -8.5t19 -24.5q0 -18 -21.5 -25.5t-46.5 -7.5q-6 0 -25.5 1t-46 3l-53 4t-45.5 4q-129 -53 -221 -127.5t-163.5 -164t-128 -187.5t-111.5 -200.5t-115.5 -205 t-140.5 -198.5q-133 -160 -302 -261t-376 -101q-59 0 -130 12t-132.5 41.5t-102.5 80t-41 126.5zM1509 1550q0 10 28 31t74 59.5t104.5 99t117.5 146.5h37q20 -82 49 -141t55.5 -100t45 -65t18.5 -34q0 -16 -19 -16q-10 0 -37.5 26.5t-59.5 62.5t-59.5 68.5t-35.5 45.5 q-27 -20 -73 -54t-92 -66t-86 -54.5t-58 -22.5q-8 0 -9 14z" />
<glyph unicode="&#xcf;" horiz-adv-x="1251" d="M-109 240q0 57 33 102t94 45q47 0 76 -27.5t29 -72.5q0 -41 -18.5 -62.5t-65.5 -31.5q0 -98 59.5 -143.5t161.5 -45.5q141 0 251 68.5t200 180.5t171 253t162 287q61 109 126 198.5t151 167.5t206 144.5t292 126.5v4q-92 0 -231.5 -5.5t-294 -24t-310.5 -54t-279.5 -99 t-201.5 -160t-78 -235.5q0 -92 52 -146.5t142 -54.5q53 0 104.5 21.5t91.5 60.5t64.5 92.5t24.5 116.5q0 31 -8 60.5t-21 56.5l21 4q12 -25 22.5 -55.5t10.5 -65.5q0 -80 -33 -143.5t-87 -107.5t-126 -66.5t-150 -22.5q-59 0 -110 18.5t-89 53.5t-59.5 84t-21.5 110 q0 125 71.5 217.5t190.5 158t270.5 106.5t311 64.5t314.5 31.5t278 8q139 0 220 10.5t124 10.5q23 0 42 -8.5t19 -24.5q0 -18 -21.5 -25.5t-46.5 -7.5q-6 0 -25.5 1t-46 3l-53 4t-45.5 4q-129 -53 -221 -127.5t-163.5 -164t-128 -187.5t-111.5 -200.5t-115.5 -205 t-140.5 -198.5q-133 -160 -302 -261t-376 -101q-59 0 -130 12t-132.5 41.5t-102.5 80t-41 126.5zM1536 1724q0 39 26.5 69t65.5 30t65.5 -30t26.5 -69t-26.5 -68.5t-65.5 -29.5t-65.5 30t-26.5 68zM1905 1724q0 39 26.5 69t65.5 30t65.5 -30t26.5 -69t-26.5 -68.5 t-65.5 -29.5t-65.5 30t-26.5 68z" />
<glyph unicode="&#xd0;" horiz-adv-x="1933" d="M53 696q0 109 42 210.5t116 188.5t173 157.5t212 120.5t235.5 78t241.5 28q90 0 163 -7.5t136.5 -23.5t122.5 -44t123 -69q100 63 215 99t231 53v-17q-113 -10 -209 -59t-182 -121q205 -190 205 -475q0 -205 -85 -361.5t-227.5 -262t-327.5 -158.5t-386 -53 q-94 0 -197.5 14t-185.5 31q-45 -6 -101.5 -15.5t-144.5 -9.5q-86 0 -119.5 19.5t-33.5 39.5q0 23 17 31t60 8q41 0 125 -16t197 -33q100 18 181 81t150.5 154t133 203.5t131.5 229.5h-135q-25 0 -33 3t-8 9t8 9t33 3h149q47 84 100.5 167t114 158t131 138.5t152.5 108.5 q-82 72 -205 106.5t-258 34.5q-178 0 -341 -53t-285.5 -151.5t-196.5 -237t-74 -307.5q0 -55 14.5 -108.5t43 -96.5t74.5 -68.5t108 -25.5q96 0 168.5 54t122 140t75 191.5t27.5 207.5h24q-6 -166 -49 -287.5t-112.5 -202.5t-157.5 -121t-184 -40q-74 0 -132.5 29t-99.5 77 t-63.5 110.5t-22.5 131.5zM516 37q25 -6 115 -19.5t213 -13.5q186 -2 345 82t275.5 221t183 310.5t66.5 349.5q0 78 -16.5 153.5t-67.5 134.5q-121 -129 -199.5 -259t-144.5 -255h127q25 0 33 -3t8 -9t-8 -9t-33 -3h-141q-59 -111 -122 -213.5t-147.5 -189.5t-201.5 -156.5 t-285 -116.5v-4z" />
<glyph unicode="&#xd1;" horiz-adv-x="1630" d="M-305 236q0 61 33.5 102t91.5 41q45 0 73.5 -25.5t28.5 -62.5q0 -80 -80 -96q-8 -88 38 -133.5t132 -45.5q111 0 210.5 52.5t187.5 138.5t164.5 195.5t141 223t118 222t94.5 192.5l73 156q12 84 36 138.5t50.5 87t52 45t40.5 12.5q20 0 20 -17q0 -8 -5 -16t-10 -24.5 t-10.5 -47.5t-5.5 -82q0 -104 18.5 -211.5t41 -220t40 -229.5t17.5 -242q0 -45 -6 -88h4q33 82 85 197.5t121 243.5t150.5 254t174 225.5t192.5 162t207 62.5q88 0 143.5 -45t55.5 -127q0 -51 -23 -93t-59.5 -73t-81.5 -47.5t-88 -18.5v13q53 12 91 49t38 104q0 53 -41 92 t-119 39q-125 0 -252 -112.5t-250 -303t-239.5 -441.5t-223.5 -527l-28 4q4 35 7 72t3 71q0 133 -20.5 264.5t-47 260.5t-48 259t-25.5 261h-5q-47 -96 -105 -221t-128 -255t-154 -254t-182 -221.5t-212 -156.5t-245 -59q-55 0 -106 17t-89 51t-61.5 81t-23.5 107z M1337 1608q4 33 16.5 67.5t34 63t51 47t66.5 18.5q47 0 85 -12t73 -26.5t66.5 -27t62.5 -12.5q53 0 82 26t47 73h35q-6 -35 -20.5 -70t-38 -63.5t-54.5 -46t-69 -17.5q-41 0 -78 11.5t-72 27.5t-69.5 27.5t-69.5 11.5q-47 0 -75 -28.5t-44 -69.5h-29z" />
<glyph unicode="&#xd2;" horiz-adv-x="1517" d="M158 340q0 113 35.5 231.5t100 230t153 213t190.5 179.5t216 129t228 61q66 61 120 78t104 17q123 0 181 -92.5t58 -235.5q0 -90 -25.5 -187.5t-66.5 -190.5t-92 -180t-103 -157q35 -16 73 -20t79 -4q49 0 97 12t93.5 32.5t83 45t64.5 49.5l12 -14q-80 -72 -171 -111 t-175 -39q-96 0 -174 29q-66 -82 -145.5 -163t-171 -144.5t-193.5 -102.5t-213 -39q-102 0 -171 31t-110.5 83t-59 118.5t-17.5 140.5zM367 322q0 -61 10 -119t33.5 -102t63.5 -70.5t99 -26.5q90 0 178.5 44t167 109.5t141 144.5t101.5 149q-63 35 -114.5 85t-87 112.5 t-55 133t-19.5 144.5q0 119 46 230.5t126 197.5l-4 4q-102 -20 -192.5 -78.5t-167.5 -141.5t-137 -185.5t-102 -211t-64.5 -216t-22.5 -203.5zM967 975q0 -68 10 -141.5t34.5 -142t64.5 -126t102 -92.5q45 74 82.5 161t64.5 178t41 182t14 175q0 53 -8 100.5t-26.5 83.5 t-49 56.5t-75.5 20.5q-37 0 -64 -12.5t-47 -33.5q45 -2 76 -16t49 -37.5t26.5 -54.5t8.5 -62q0 -25 -3 -42t-7 -33l-23 2q4 12 6 34.5t2 41.5q0 29 -8 56t-26.5 46.5t-48 31t-75.5 9.5q-31 -33 -53 -79t-37.5 -98.5t-22.5 -106.5t-7 -101zM1053 1821q0 29 17 47t48 18 q16 0 27.5 -13t20 -31.5t14.5 -40t10 -38.5q10 -45 40 -81.5t60.5 -66.5t54 -49.5t23.5 -29.5q0 -14 -12 -14q-20 0 -70.5 28.5t-103 73.5t-91 97.5t-38.5 99.5z" />
<glyph unicode="&#xd3;" horiz-adv-x="1517" d="M158 340q0 113 35.5 231.5t100 230t153 213t190.5 179.5t216 129t228 61q66 61 120 78t104 17q123 0 181 -92.5t58 -235.5q0 -90 -25.5 -187.5t-66.5 -190.5t-92 -180t-103 -157q35 -16 73 -20t79 -4q49 0 97 12t93.5 32.5t83 45t64.5 49.5l12 -14q-80 -72 -171 -111 t-175 -39q-96 0 -174 29q-66 -82 -145.5 -163t-171 -144.5t-193.5 -102.5t-213 -39q-102 0 -171 31t-110.5 83t-59 118.5t-17.5 140.5zM367 322q0 -61 10 -119t33.5 -102t63.5 -70.5t99 -26.5q90 0 178.5 44t167 109.5t141 144.5t101.5 149q-63 35 -114.5 85t-87 112.5 t-55 133t-19.5 144.5q0 119 46 230.5t126 197.5l-4 4q-102 -20 -192.5 -78.5t-167.5 -141.5t-137 -185.5t-102 -211t-64.5 -216t-22.5 -203.5zM967 975q0 -68 10 -141.5t34.5 -142t64.5 -126t102 -92.5q45 74 82.5 161t64.5 178t41 182t14 175q0 53 -8 100.5t-26.5 83.5 t-49 56.5t-75.5 20.5q-37 0 -64 -12.5t-47 -33.5q45 -2 76 -16t49 -37.5t26.5 -54.5t8.5 -62q0 -25 -3 -42t-7 -33l-23 2q4 12 6 34.5t2 41.5q0 29 -8 56t-26.5 46.5t-48 31t-75.5 9.5q-31 -33 -53 -79t-37.5 -98.5t-22.5 -106.5t-7 -101zM1262 1536q0 10 23.5 29.5t54 49.5 t60.5 66.5t40 81.5q4 16 10 38t14.5 40.5t20.5 31.5t26 13q31 0 48.5 -18t17.5 -47q0 -47 -39 -99.5t-91 -97.5t-101.5 -73.5t-71.5 -28.5q-12 0 -12 14z" />
<glyph unicode="&#xd4;" horiz-adv-x="1517" d="M158 340q0 113 35.5 231.5t100 230t153 213t190.5 179.5t216 129t228 61q66 61 120 78t104 17q123 0 181 -92.5t58 -235.5q0 -90 -25.5 -187.5t-66.5 -190.5t-92 -180t-103 -157q35 -16 73 -20t79 -4q49 0 97 12t93.5 32.5t83 45t64.5 49.5l12 -14q-80 -72 -171 -111 t-175 -39q-96 0 -174 29q-66 -82 -145.5 -163t-171 -144.5t-193.5 -102.5t-213 -39q-102 0 -171 31t-110.5 83t-59 118.5t-17.5 140.5zM367 322q0 -61 10 -119t33.5 -102t63.5 -70.5t99 -26.5q90 0 178.5 44t167 109.5t141 144.5t101.5 149q-63 35 -114.5 85t-87 112.5 t-55 133t-19.5 144.5q0 119 46 230.5t126 197.5l-4 4q-102 -20 -192.5 -78.5t-167.5 -141.5t-137 -185.5t-102 -211t-64.5 -216t-22.5 -203.5zM967 975q0 -68 10 -141.5t34.5 -142t64.5 -126t102 -92.5q45 74 82.5 161t64.5 178t41 182t14 175q0 53 -8 100.5t-26.5 83.5 t-49 56.5t-75.5 20.5q-37 0 -64 -12.5t-47 -33.5q45 -2 76 -16t49 -37.5t26.5 -54.5t8.5 -62q0 -25 -3 -42t-7 -33l-23 2q4 12 6 34.5t2 41.5q0 29 -8 56t-26.5 46.5t-48 31t-75.5 9.5q-31 -33 -53 -79t-37.5 -98.5t-22.5 -106.5t-7 -101zM1067 1550q0 10 27.5 31t73.5 59.5 t104.5 99t118.5 146.5h36q20 -82 49 -141t56 -100t45 -65t18 -34q0 -16 -18 -16q-10 0 -38 26.5t-59.5 62.5t-59 68.5t-36.5 45.5q-27 -20 -72.5 -54t-91.5 -66t-86 -54.5t-59 -22.5q-8 0 -8 14z" />
<glyph unicode="&#xd5;" horiz-adv-x="1517" d="M158 340q0 113 35.5 231.5t100 230t153 213t190.5 179.5t216 129t228 61q66 61 120 78t104 17q123 0 181 -92.5t58 -235.5q0 -90 -25.5 -187.5t-66.5 -190.5t-92 -180t-103 -157q35 -16 73 -20t79 -4q49 0 97 12t93.5 32.5t83 45t64.5 49.5l12 -14q-80 -72 -171 -111 t-175 -39q-96 0 -174 29q-66 -82 -145.5 -163t-171 -144.5t-193.5 -102.5t-213 -39q-102 0 -171 31t-110.5 83t-59 118.5t-17.5 140.5zM367 322q0 -61 10 -119t33.5 -102t63.5 -70.5t99 -26.5q90 0 178.5 44t167 109.5t141 144.5t101.5 149q-63 35 -114.5 85t-87 112.5 t-55 133t-19.5 144.5q0 119 46 230.5t126 197.5l-4 4q-102 -20 -192.5 -78.5t-167.5 -141.5t-137 -185.5t-102 -211t-64.5 -216t-22.5 -203.5zM967 975q0 -68 10 -141.5t34.5 -142t64.5 -126t102 -92.5q45 74 82.5 161t64.5 178t41 182t14 175q0 53 -8 100.5t-26.5 83.5 t-49 56.5t-75.5 20.5q-37 0 -64 -12.5t-47 -33.5q45 -2 76 -16t49 -37.5t26.5 -54.5t8.5 -62q0 -25 -3 -42t-7 -33l-23 2q4 12 6 34.5t2 41.5q0 29 -8 56t-26.5 46.5t-48 31t-75.5 9.5q-31 -33 -53 -79t-37.5 -98.5t-22.5 -106.5t-7 -101zM1073 1608q4 33 16.5 67.5t34 63 t51 47t66.5 18.5q47 0 85 -12t73 -26.5t66.5 -27t62.5 -12.5q53 0 81.5 26t47.5 73h35q-6 -35 -20.5 -70t-38 -63.5t-54.5 -46t-70 -17.5q-41 0 -77.5 11.5t-71.5 27.5t-70 27.5t-69 11.5q-47 0 -75 -28.5t-44 -69.5h-29z" />
<glyph unicode="&#xd6;" horiz-adv-x="1517" d="M158 340q0 113 35.5 231.5t100 230t153 213t190.5 179.5t216 129t228 61q66 61 120 78t104 17q123 0 181 -92.5t58 -235.5q0 -90 -25.5 -187.5t-66.5 -190.5t-92 -180t-103 -157q35 -16 73 -20t79 -4q49 0 97 12t93.5 32.5t83 45t64.5 49.5l12 -14q-80 -72 -171 -111 t-175 -39q-96 0 -174 29q-66 -82 -145.5 -163t-171 -144.5t-193.5 -102.5t-213 -39q-102 0 -171 31t-110.5 83t-59 118.5t-17.5 140.5zM367 322q0 -61 10 -119t33.5 -102t63.5 -70.5t99 -26.5q90 0 178.5 44t167 109.5t141 144.5t101.5 149q-63 35 -114.5 85t-87 112.5 t-55 133t-19.5 144.5q0 119 46 230.5t126 197.5l-4 4q-102 -20 -192.5 -78.5t-167.5 -141.5t-137 -185.5t-102 -211t-64.5 -216t-22.5 -203.5zM967 975q0 -68 10 -141.5t34.5 -142t64.5 -126t102 -92.5q45 74 82.5 161t64.5 178t41 182t14 175q0 53 -8 100.5t-26.5 83.5 t-49 56.5t-75.5 20.5q-37 0 -64 -12.5t-47 -33.5q45 -2 76 -16t49 -37.5t26.5 -54.5t8.5 -62q0 -25 -3 -42t-7 -33l-23 2q4 12 6 34.5t2 41.5q0 29 -8 56t-26.5 46.5t-48 31t-75.5 9.5q-31 -33 -53 -79t-37.5 -98.5t-22.5 -106.5t-7 -101zM1094 1724q0 39 26.5 69t65.5 30 t65.5 -30t26.5 -69t-26.5 -68.5t-65.5 -29.5t-65.5 30t-26.5 68zM1462 1724q0 39 26.5 69t65.5 30t66 -30t27 -69t-27 -68.5t-66 -29.5t-65.5 30t-26.5 68z" />
<glyph unicode="&#xd7;" horiz-adv-x="1228" d="M102 27l523 315l-121 334l123 59l112 -329l557 335l15 -24l-561 -338l118 -322l-129 -59l-106 317l-516 -315z" />
<glyph unicode="&#xd8;" horiz-adv-x="1478" d="M162 344q0 106 35.5 223t99 228.5t148.5 214t182.5 179.5t203 122t207.5 45q39 0 76 -13.5t53 -29.5l70 106q-47 35 -99.5 51.5t-131.5 16.5q-55 0 -117 -18.5t-121 -50.5t-114.5 -76t-102.5 -93l-10 11q113 117 243.5 190.5t294.5 73.5q61 0 108.5 -11.5t88.5 -27.5 l102 160l27 -17l-100 -162q55 -31 94 -74.5t61.5 -96t32.5 -112t10 -120.5q0 -115 -42 -240t-114.5 -246.5t-171 -232.5t-210 -194.5t-231.5 -133t-238 -49.5q-35 0 -61.5 2t-53.5 8l-102 -170l-31 19l98 166q-51 25 -87 62.5t-57.5 84.5t-30.5 99.5t-9 105.5zM358 324 q0 -57 9.5 -120t38.5 -110l747 1198q-20 23 -53 31t-62 8q-90 0 -176 -49t-161.5 -131t-138 -187.5t-108.5 -217t-71 -222t-25 -200.5zM432 59q35 -35 70 -45t59 -10q98 0 197.5 49t188.5 133t166 192.5t134.5 228.5t89 241t31.5 227q0 86 -20.5 171t-85.5 151l-74 -113 q18 -29 25.5 -63.5t7.5 -65.5v-25q0 -12 -2 -26h-23q0 41 -3 86t-19 72z" />
<glyph unicode="&#xd9;" horiz-adv-x="1705" d="M188 918q0 119 71 223t181.5 183t246.5 125t265 46q92 0 155.5 -49t63.5 -148q0 -61 -47 -155t-118.5 -206t-153.5 -230.5t-153.5 -229t-119 -205t-47.5 -153.5q0 -41 23 -61.5t61 -20.5q68 0 162 57.5t192.5 147.5t189.5 199.5t155 211.5l475 772l225 9l-532 -828 q-70 -111 -119 -191.5t-78 -140t-42 -103.5t-13 -81q0 -35 13 -54.5t44 -19.5q61 0 141 50.5t166 128t172 171t160 179.5l19 -15q-18 -23 -50 -59.5t-70 -78.5t-79 -85t-78 -80q-123 -121 -221 -184t-199 -63q-102 0 -142 46t-40 115q0 70 33 140.5t69 128.5l-4 4 q-63 -76 -141 -154t-163 -140.5t-175 -101t-180 -38.5q-74 0 -110 40.5t-36 112.5q0 66 47.5 165t119 214t153.5 236.5t153.5 236.5t118.5 212t47 161q0 47 -35.5 73.5t-97.5 26.5q-98 0 -202.5 -46t-188.5 -120.5t-138 -173t-54 -203.5q0 -55 32.5 -101t92.5 -46 q82 0 147.5 50t118.5 118l16 -12q-59 -78 -137 -135.5t-178 -57.5q-86 0 -136.5 50t-50.5 137zM1223 1821q0 29 17 47t48 18q16 0 27.5 -13t19.5 -31.5t14.5 -40t10.5 -38.5q10 -45 40 -81.5t60.5 -66.5t54 -49.5t23.5 -29.5q0 -14 -12 -14q-20 0 -70.5 28.5t-103 73.5 t-91 97.5t-38.5 99.5z" />
<glyph unicode="&#xda;" horiz-adv-x="1705" d="M188 918q0 119 71 223t181.5 183t246.5 125t265 46q92 0 155.5 -49t63.5 -148q0 -61 -47 -155t-118.5 -206t-153.5 -230.5t-153.5 -229t-119 -205t-47.5 -153.5q0 -41 23 -61.5t61 -20.5q68 0 162 57.5t192.5 147.5t189.5 199.5t155 211.5l475 772l225 9l-532 -828 q-70 -111 -119 -191.5t-78 -140t-42 -103.5t-13 -81q0 -35 13 -54.5t44 -19.5q61 0 141 50.5t166 128t172 171t160 179.5l19 -15q-18 -23 -50 -59.5t-70 -78.5t-79 -85t-78 -80q-123 -121 -221 -184t-199 -63q-102 0 -142 46t-40 115q0 70 33 140.5t69 128.5l-4 4 q-63 -76 -141 -154t-163 -140.5t-175 -101t-180 -38.5q-74 0 -110 40.5t-36 112.5q0 66 47.5 165t119 214t153.5 236.5t153.5 236.5t118.5 212t47 161q0 47 -35.5 73.5t-97.5 26.5q-98 0 -202.5 -46t-188.5 -120.5t-138 -173t-54 -203.5q0 -55 32.5 -101t92.5 -46 q82 0 147.5 50t118.5 118l16 -12q-59 -78 -137 -135.5t-178 -57.5q-86 0 -136.5 50t-50.5 137zM1432 1536q0 10 23.5 29.5t54 49.5t60 66.5t40.5 81.5q4 16 10 38t14 40.5t20.5 31.5t26.5 13q31 0 48.5 -18t17.5 -47q0 -47 -39 -99.5t-91 -97.5t-101.5 -73.5t-71.5 -28.5 q-12 0 -12 14z" />
<glyph unicode="&#xdb;" horiz-adv-x="1705" d="M188 918q0 119 71 223t181.5 183t246.5 125t265 46q92 0 155.5 -49t63.5 -148q0 -61 -47 -155t-118.5 -206t-153.5 -230.5t-153.5 -229t-119 -205t-47.5 -153.5q0 -41 23 -61.5t61 -20.5q68 0 162 57.5t192.5 147.5t189.5 199.5t155 211.5l475 772l225 9l-532 -828 q-70 -111 -119 -191.5t-78 -140t-42 -103.5t-13 -81q0 -35 13 -54.5t44 -19.5q61 0 141 50.5t166 128t172 171t160 179.5l19 -15q-18 -23 -50 -59.5t-70 -78.5t-79 -85t-78 -80q-123 -121 -221 -184t-199 -63q-102 0 -142 46t-40 115q0 70 33 140.5t69 128.5l-4 4 q-63 -76 -141 -154t-163 -140.5t-175 -101t-180 -38.5q-74 0 -110 40.5t-36 112.5q0 66 47.5 165t119 214t153.5 236.5t153.5 236.5t118.5 212t47 161q0 47 -35.5 73.5t-97.5 26.5q-98 0 -202.5 -46t-188.5 -120.5t-138 -173t-54 -203.5q0 -55 32.5 -101t92.5 -46 q82 0 147.5 50t118.5 118l16 -12q-59 -78 -137 -135.5t-178 -57.5q-86 0 -136.5 50t-50.5 137zM1237 1550q0 10 27.5 31t73.5 59.5t104.5 99t118.5 146.5h36q20 -82 49 -141t56 -100t45 -65t18 -34q0 -16 -18 -16q-10 0 -38 26.5t-59.5 62.5t-59 68.5t-36.5 45.5 q-27 -20 -72.5 -54t-92 -66t-86 -54.5t-58.5 -22.5q-8 0 -8 14z" />
<glyph unicode="&#xdc;" horiz-adv-x="1705" d="M188 918q0 119 71 223t181.5 183t246.5 125t265 46q92 0 155.5 -49t63.5 -148q0 -61 -47 -155t-118.5 -206t-153.5 -230.5t-153.5 -229t-119 -205t-47.5 -153.5q0 -41 23 -61.5t61 -20.5q68 0 162 57.5t192.5 147.5t189.5 199.5t155 211.5l475 772l225 9l-532 -828 q-70 -111 -119 -191.5t-78 -140t-42 -103.5t-13 -81q0 -35 13 -54.5t44 -19.5q61 0 141 50.5t166 128t172 171t160 179.5l19 -15q-18 -23 -50 -59.5t-70 -78.5t-79 -85t-78 -80q-123 -121 -221 -184t-199 -63q-102 0 -142 46t-40 115q0 70 33 140.5t69 128.5l-4 4 q-63 -76 -141 -154t-163 -140.5t-175 -101t-180 -38.5q-74 0 -110 40.5t-36 112.5q0 66 47.5 165t119 214t153.5 236.5t153.5 236.5t118.5 212t47 161q0 47 -35.5 73.5t-97.5 26.5q-98 0 -202.5 -46t-188.5 -120.5t-138 -173t-54 -203.5q0 -55 32.5 -101t92.5 -46 q82 0 147.5 50t118.5 118l16 -12q-59 -78 -137 -135.5t-178 -57.5q-86 0 -136.5 50t-50.5 137zM1264 1724q0 39 26.5 69t65.5 30t65.5 -30t26.5 -69t-26.5 -68.5t-65.5 -29.5t-65.5 30t-26.5 68zM1632 1724q0 39 26.5 69t65.5 30t66 -30t27 -69t-27 -68.5t-66 -29.5 t-65.5 30t-26.5 68z" />
<glyph unicode="&#xdd;" horiz-adv-x="1593" d="M-190 -350q0 45 18 87t51 74.5t74 52t88 19.5q66 0 121 -16.5t112 -44.5l-2 -17q-29 10 -58.5 19.5t-59.5 9.5q-43 0 -75 -18.5t-53.5 -47t-32.5 -66.5t-11 -77q0 -43 12 -85t39.5 -75.5t73 -54t108.5 -20.5q102 0 195.5 46t181.5 127t171 189.5t165 235.5l282 434l-4 4 q-59 -74 -137 -152.5t-167 -144.5t-187.5 -107.5t-200.5 -41.5q-66 0 -103.5 35.5t-37.5 101.5q0 70 48 169t118.5 213.5t154.5 235.5t155 233.5t119 208t48 156.5q0 121 -109 121q-104 0 -207.5 -45t-187.5 -120t-136 -172t-52 -202q0 -27 7 -54t20.5 -48.5t35 -36 t49.5 -14.5q41 0 76 13t64.5 34.5t56 48.5t53.5 55l14 -10q-29 -33 -61.5 -64.5t-70.5 -57t-80 -41t-91 -15.5q-82 0 -137 43t-55 133q0 106 64.5 209.5t170 185.5t239.5 132.5t275 50.5q41 0 82 -8.5t75 -28t55.5 -51t21.5 -80.5q0 -72 -48 -173.5t-119 -216t-155 -235.5 t-154.5 -229.5t-118.5 -199.5t-48 -146q0 -82 82 -82q61 0 140 42t159 104.5t152.5 137t121.5 140t108.5 154.5t121 185.5t121 193.5t110.5 181t89 149.5t56 98.5l228 10l-944 -1491q-80 -117 -174.5 -220t-205 -181t-236.5 -123t-265 -45q-80 0 -152.5 14.5t-127 48t-87 88 t-32.5 134.5zM1425 1536q0 10 24 29.5t54.5 49.5t60 66.5t40.5 81.5q4 16 10 38t14 40.5t20.5 31.5t26.5 13q31 0 48.5 -18t17.5 -47q0 -47 -39 -99.5t-91 -97.5t-101.5 -73.5t-71.5 -28.5q-12 0 -13 14z" />
<glyph unicode="&#xde;" horiz-adv-x="1669" d="M-109 254q0 57 37 97t92 40q45 0 76 -25.5t31 -72.5q0 -31 -19.5 -58.5t-60.5 -31.5q4 -57 26.5 -98.5t55.5 -66t74 -35.5t80 -11q80 0 148.5 52t135 139t133 201t141 236.5t160.5 247.5t189.5 235.5t229.5 196.5t282 132v4h-94q-98 0 -189.5 -18.5t-170.5 -60.5 t-144.5 -109.5t-112.5 -166.5h-207q49 109 135.5 181.5t194 116.5t230 62.5t243.5 18.5q82 0 130 -2t87 -6v-20q-82 -4 -162.5 -55.5t-154.5 -125t-134.5 -155.5t-101.5 -150l4 -4q18 23 53 55.5t79.5 62.5t93.5 50t96 20q76 0 126 -44t50 -119q0 -78 -35 -167t-110.5 -165 t-191.5 -126t-279 -50q-37 0 -67 4t-48 8l8 21q23 -4 44.5 -6.5t49.5 -2.5q125 0 211 48.5t138.5 113t76 133t23.5 107.5q0 123 -98 123q-35 0 -79 -20.5t-87 -52.5t-82 -71t-64 -78q-61 -94 -118.5 -191t-118 -188.5t-126 -171t-143 -139t-172 -94.5t-209.5 -35 q-59 0 -126.5 15.5t-125 50.5t-95.5 89t-38 132z" />
<glyph unicode="&#xdf;" horiz-adv-x="1214" d="M-1257 -371q0 61 28.5 111.5t98.5 50.5q41 0 71.5 -26.5t30.5 -69.5q0 -39 -17.5 -67.5t-58.5 -33.5q-4 -10 -5 -15t-1 -17q0 -45 23.5 -77t58.5 -53.5t78 -31.5t80 -10q154 0 282.5 87t242.5 230t219.5 326.5t209.5 374t215 374t235.5 326.5t271 230t322.5 87 q55 0 110.5 -14t99.5 -44t73 -75t29 -108q0 -90 -43 -143.5t-107.5 -87t-139.5 -57.5t-139.5 -53.5t-107.5 -73.5t-43 -122q0 -55 18.5 -107.5t41.5 -105.5q23 -51 40 -100t17 -103q0 -82 -57.5 -143t-133.5 -82l5 -4q106 23 196 78t169 129t145.5 160t125.5 172l19 -17 q-72 -104 -152 -203.5t-176 -178.5t-210.5 -127t-254.5 -48q-47 0 -98 11.5t-94 38t-72 67.5t-29 98q0 39 12.5 76t36 64.5t57.5 44t75 16.5q57 0 93 -24.5t50 -82.5q-12 2 -23.5 3.5t-23.5 1.5q-68 0 -113 -44t-45 -114q0 -57 36 -94t93 -37q86 0 145.5 48t59.5 140 q0 53 -17.5 102.5t-40 96.5t-41 95t-18.5 95q0 72 43 122t107.5 90t139.5 79t139.5 88t107.5 119t43 170q0 68 -32 116t-107 48q-76 0 -154 -47t-155.5 -126t-152.5 -181.5t-144.5 -214t-133 -223t-118.5 -208.5q-131 -231 -254 -421.5t-258.5 -327.5t-294 -212t-361.5 -75 q-53 0 -117.5 13.5t-120 45t-93 82t-37.5 123.5z" />
<glyph unicode="&#xe0;" horiz-adv-x="1062" d="M-4 190q0 100 55 201t139 181.5t187.5 131t197.5 50.5q72 0 113 -31t68 -96l51 82l213 12q-18 -37 -53 -89t-76 -112.5t-83 -125t-77 -125t-56.5 -113t-21.5 -88.5q0 -51 52 -52q49 0 133 57.5t176 151.5q39 39 79 84t76.5 89t67.5 82t49 63l14 -8q-53 -72 -122.5 -159 t-168 -185.5t-193.5 -161t-189 -62.5q-66 0 -102 34t-36 83q0 16 2.5 30.5t6.5 22.5h-4q-63 -72 -143.5 -121t-172.5 -49q-49 0 -84 18.5t-56.5 50.5t-31.5 71.5t-10 82.5zM193 184q0 -59 19 -103t83 -44q43 2 90 35.5t91 85t84 114t69.5 126t47 119.5t17.5 95 q0 55 -20.5 86t-79.5 31q-47 0 -95 -28.5t-92.5 -75.5t-84 -105.5t-68.5 -120t-45 -118t-16 -97.5zM475 1143q0 29 17.5 47t48.5 18q16 0 27.5 -13t19.5 -31.5t14 -40t10 -38.5q10 -45 40 -81.5t60.5 -66.5t54.5 -49.5t24 -29.5q0 -14 -13 -14q-20 0 -70.5 28.5t-102.5 73.5 t-91 97.5t-39 99.5z" />
<glyph unicode="&#xe1;" horiz-adv-x="1062" d="M-4 190q0 100 55 201t139 181.5t187.5 131t197.5 50.5q72 0 113 -31t68 -96l51 82l213 12q-18 -37 -53 -89t-76 -112.5t-83 -125t-77 -125t-56.5 -113t-21.5 -88.5q0 -51 52 -52q49 0 133 57.5t176 151.5q39 39 79 84t76.5 89t67.5 82t49 63l14 -8q-53 -72 -122.5 -159 t-168 -185.5t-193.5 -161t-189 -62.5q-66 0 -102 34t-36 83q0 16 2.5 30.5t6.5 22.5h-4q-63 -72 -143.5 -121t-172.5 -49q-49 0 -84 18.5t-56.5 50.5t-31.5 71.5t-10 82.5zM193 184q0 -59 19 -103t83 -44q43 2 90 35.5t91 85t84 114t69.5 126t47 119.5t17.5 95 q0 55 -20.5 86t-79.5 31q-47 0 -95 -28.5t-92.5 -75.5t-84 -105.5t-68.5 -120t-45 -118t-16 -97.5zM684 858q0 10 23.5 29.5t54.5 49.5t60.5 66.5t39.5 81.5q4 16 10.5 38t14.5 40.5t20.5 31.5t26.5 13q31 0 48 -18t17 -47q0 -47 -38.5 -99.5t-91 -97.5t-101.5 -73.5 t-72 -28.5q-12 0 -12 14z" />
<glyph unicode="&#xe2;" horiz-adv-x="1062" d="M-4 190q0 100 55 201t139 181.5t187.5 131t197.5 50.5q72 0 113 -31t68 -96l51 82l213 12q-18 -37 -53 -89t-76 -112.5t-83 -125t-77 -125t-56.5 -113t-21.5 -88.5q0 -51 52 -52q49 0 133 57.5t176 151.5q39 39 79 84t76.5 89t67.5 82t49 63l14 -8q-53 -72 -122.5 -159 t-168 -185.5t-193.5 -161t-189 -62.5q-66 0 -102 34t-36 83q0 16 2.5 30.5t6.5 22.5h-4q-63 -72 -143.5 -121t-172.5 -49q-49 0 -84 18.5t-56.5 50.5t-31.5 71.5t-10 82.5zM193 184q0 -59 19 -103t83 -44q43 2 90 35.5t91 85t84 114t69.5 126t47 119.5t17.5 95 q0 55 -20.5 86t-79.5 31q-47 0 -95 -28.5t-92.5 -75.5t-84 -105.5t-68.5 -120t-45 -118t-16 -97.5zM489 872q0 10 28 31t74 59.5t104.5 99t117.5 146.5h37q20 -82 49 -141t55.5 -100t45 -64.5t18.5 -34.5q0 -16 -19 -16q-10 0 -37.5 26.5t-59.5 62.5t-59.5 68.5t-35.5 45.5 q-27 -20 -73 -54t-92 -66t-86 -54.5t-58 -22.5q-8 0 -9 14z" />
<glyph unicode="&#xe3;" horiz-adv-x="1062" d="M-4 190q0 100 55 201t139 181.5t187.5 131t197.5 50.5q72 0 113 -31t68 -96l51 82l213 12q-18 -37 -53 -89t-76 -112.5t-83 -125t-77 -125t-56.5 -113t-21.5 -88.5q0 -51 52 -52q49 0 133 57.5t176 151.5q39 39 79 84t76.5 89t67.5 82t49 63l14 -8q-53 -72 -122.5 -159 t-168 -185.5t-193.5 -161t-189 -62.5q-66 0 -102 34t-36 83q0 16 2.5 30.5t6.5 22.5h-4q-63 -72 -143.5 -121t-172.5 -49q-49 0 -84 18.5t-56.5 50.5t-31.5 71.5t-10 82.5zM193 184q0 -59 19 -103t83 -44q43 2 90 35.5t91 85t84 114t69.5 126t47 119.5t17.5 95 q0 55 -20.5 86t-79.5 31q-47 0 -95 -28.5t-92.5 -75.5t-84 -105.5t-68.5 -120t-45 -118t-16 -97.5zM496 930q4 33 16 67.5t33.5 63.5t51.5 47t67 18q47 0 84.5 -12t72.5 -26.5t67 -26.5t62 -12q53 0 82 25.5t47 72.5h35q-6 -35 -20.5 -70t-38 -63.5t-54 -46t-69.5 -17.5 q-41 0 -78 11.5t-71.5 28t-69.5 27.5t-70 11q-47 0 -74.5 -28.5t-44.5 -69.5h-28z" />
<glyph unicode="&#xe4;" horiz-adv-x="1062" d="M-4 190q0 100 55 201t139 181.5t187.5 131t197.5 50.5q72 0 113 -31t68 -96l51 82l213 12q-18 -37 -53 -89t-76 -112.5t-83 -125t-77 -125t-56.5 -113t-21.5 -88.5q0 -51 52 -52q49 0 133 57.5t176 151.5q39 39 79 84t76.5 89t67.5 82t49 63l14 -8q-53 -72 -122.5 -159 t-168 -185.5t-193.5 -161t-189 -62.5q-66 0 -102 34t-36 83q0 16 2.5 30.5t6.5 22.5h-4q-63 -72 -143.5 -121t-172.5 -49q-49 0 -84 18.5t-56.5 50.5t-31.5 71.5t-10 82.5zM193 184q0 -59 19 -103t83 -44q43 2 90 35.5t91 85t84 114t69.5 126t47 119.5t17.5 95 q0 55 -20.5 86t-79.5 31q-47 0 -95 -28.5t-92.5 -75.5t-84 -105.5t-68.5 -120t-45 -118t-16 -97.5zM516 1047q0 39 26.5 68.5t65.5 29.5t65.5 -30t26.5 -68q0 -39 -26.5 -69t-65.5 -30t-65.5 30t-26.5 69zM885 1047q0 39 26.5 68.5t65.5 29.5t65.5 -30t26.5 -68 q0 -39 -26.5 -69t-65.5 -30t-65.5 30t-26.5 69z" />
<glyph unicode="&#xe5;" horiz-adv-x="1062" d="M-4 190q0 100 55 201t139 181.5t187.5 131t197.5 50.5q72 0 113 -31t68 -96l51 82l213 12q-18 -37 -53 -89t-76 -112.5t-83 -125t-77 -125t-56.5 -113t-21.5 -88.5q0 -51 52 -52q49 0 133 57.5t176 151.5q39 39 79 84t76.5 89t67.5 82t49 63l14 -8q-53 -72 -122.5 -159 t-168 -185.5t-193.5 -161t-189 -62.5q-66 0 -102 34t-36 83q0 16 2.5 30.5t6.5 22.5h-4q-63 -72 -143.5 -121t-172.5 -49q-49 0 -84 18.5t-56.5 50.5t-31.5 71.5t-10 82.5zM193 184q0 -59 19 -103t83 -44q43 2 90 35.5t91 85t84 114t69.5 126t47 119.5t17.5 95 q0 55 -20.5 86t-79.5 31q-47 0 -95 -28.5t-92.5 -75.5t-84 -105.5t-68.5 -120t-45 -118t-16 -97.5zM631 991q0 53 23.5 98.5t61.5 79t88 53t101 19.5q31 0 61.5 -8t55.5 -25.5t40 -44t15 -61.5q0 -53 -23.5 -98.5t-61.5 -79t-87 -53t-102 -19.5q-31 0 -61.5 8t-55 25.5 t-40 44t-15.5 61.5zM721 952q0 -33 14.5 -56.5t50.5 -23.5q41 0 77 30t63.5 71t44 88t16.5 80t-14 56.5t-51 23.5q-39 0 -76 -30t-64.5 -71t-44 -87t-16.5 -81z" />
<glyph unicode="&#xe6;" horiz-adv-x="1402" d="M-12 180q0 106 53 210t137 184.5t189.5 130t210.5 49.5q59 0 104 -31t66 -86l43 84l184 8l-27 -43l4 -4q55 33 113.5 52.5t116.5 19.5q88 0 133 -34t45 -95q0 -49 -34 -90t-87 -74t-119.5 -57.5t-132 -43t-123 -31t-94.5 -20.5q-10 -41 -10 -73q0 -88 49 -143.5 t137 -55.5q86 0 189.5 51t207.5 150q80 76 154 158.5t129 154.5l14 -14q-63 -86 -135.5 -170t-173.5 -177q-141 -127 -271 -175t-245 -48q-117 0 -184.5 68.5t-67.5 173.5q0 20 4 41l-4 4q-90 -135 -180 -204.5t-211 -69.5q-88 0 -136 57t-48 143zM184 184q0 -59 21.5 -97 t75.5 -38q45 0 93 31t93 81t85 112.5t69.5 125t47 118.5t17.5 95q0 53 -28.5 85t-71.5 32q-70 0 -141.5 -59.5t-130 -144.5t-94.5 -179t-36 -162zM774 330q84 16 160 54t134 86t93 102.5t35 103.5q0 29 -15.5 41t-39.5 12q-51 0 -110.5 -43t-112 -105.5t-92.5 -131 t-52 -119.5z" />
<glyph unicode="&#xe7;" horiz-adv-x="833" d="M-29 -326q0 12 6.5 15.5t14.5 3.5q6 0 25.5 -8.5t47 -17.5t61.5 -16t71 -7q25 0 52 3t48.5 14t36 30.5t14.5 50.5q0 47 -29.5 62.5t-60.5 15.5q-29 0 -51.5 -4t-38.5 -4q-14 0 -14 14q0 8 13 30.5t29.5 49t32 50.5t21.5 34h51q-20 -31 -40.5 -61.5t-35.5 -65.5q14 4 37 5 t37 1q59 0 101 -28.5t42 -96.5q0 -43 -19.5 -71.5t-51 -46t-72.5 -25t-86 -7.5q-27 0 -68 6.5t-79.5 17.5t-66.5 25.5t-28 30.5zM6 229q0 98 57.5 192.5t147.5 168.5t198.5 119t211.5 45q94 0 149 -38t55 -93q0 -39 -15 -71t-40 -53.5t-55.5 -32.5t-61.5 -11q-27 0 -47 4 q14 47 30.5 96t16.5 98q0 35 -16 55.5t-45 20.5q-53 0 -121 -42t-127 -112.5t-100 -161.5t-41 -190q0 -78 47 -132t131 -54q100 0 199.5 55t188.5 134t163 164t125 147l18 -9q-76 -92 -164 -191t-189 -181t-217 -135.5t-245 -53.5q-123 0 -188.5 66.5t-65.5 195.5z" />
<glyph unicode="&#xe8;" horiz-adv-x="833" d="M-2 217q0 98 59.5 194.5t149.5 172t197.5 123t203.5 47.5q88 0 137.5 -34t49.5 -95q0 -49 -34 -90t-87 -74t-120 -57.5t-132.5 -43t-122.5 -31t-94 -20.5q-10 -41 -10 -73q0 -88 49 -143.5t137 -55.5q86 0 189.5 51t207.5 150q80 76 154 158.5t129 154.5l14 -14 q-63 -86 -136 -170t-173 -177q-141 -127 -271 -175t-245 -48q-117 0 -184.5 69.5t-67.5 180.5zM209 330q84 16 159.5 54t134 86t93.5 102.5t35 103.5q0 29 -15.5 41t-40.5 12q-51 0 -110 -43t-111.5 -105.5t-92.5 -131t-52 -119.5zM397 1143q0 29 17.5 47t48.5 18 q16 0 27.5 -13t19.5 -31.5t14 -40t11 -38.5q10 -45 39.5 -81.5t60.5 -66.5t54.5 -49.5t23.5 -29.5q0 -14 -13 -14q-20 0 -70 28.5t-102.5 73.5t-91.5 97.5t-39 99.5z" />
<glyph unicode="&#xe9;" horiz-adv-x="833" d="M-2 217q0 98 59.5 194.5t149.5 172t197.5 123t203.5 47.5q88 0 137.5 -34t49.5 -95q0 -49 -34 -90t-87 -74t-120 -57.5t-132.5 -43t-122.5 -31t-94 -20.5q-10 -41 -10 -73q0 -88 49 -143.5t137 -55.5q86 0 189.5 51t207.5 150q80 76 154 158.5t129 154.5l14 -14 q-63 -86 -136 -170t-173 -177q-141 -127 -271 -175t-245 -48q-117 0 -184.5 69.5t-67.5 180.5zM209 330q84 16 159.5 54t134 86t93.5 102.5t35 103.5q0 29 -15.5 41t-40.5 12q-51 0 -110 -43t-111.5 -105.5t-92.5 -131t-52 -119.5zM606 858q0 10 23.5 29.5t54.5 49.5 t60.5 66.5t39.5 81.5q4 16 10.5 38t14.5 40.5t20.5 31.5t26.5 13q31 0 48.5 -18t17.5 -47q0 -47 -39 -99.5t-91.5 -97.5t-101.5 -73.5t-72 -28.5q-12 0 -12 14z" />
<glyph unicode="&#xea;" horiz-adv-x="833" d="M-2 217q0 98 59.5 194.5t149.5 172t197.5 123t203.5 47.5q88 0 137.5 -34t49.5 -95q0 -49 -34 -90t-87 -74t-120 -57.5t-132.5 -43t-122.5 -31t-94 -20.5q-10 -41 -10 -73q0 -88 49 -143.5t137 -55.5q86 0 189.5 51t207.5 150q80 76 154 158.5t129 154.5l14 -14 q-63 -86 -136 -170t-173 -177q-141 -127 -271 -175t-245 -48q-117 0 -184.5 69.5t-67.5 180.5zM209 330q84 16 159.5 54t134 86t93.5 102.5t35 103.5q0 29 -15.5 41t-40.5 12q-51 0 -110 -43t-111.5 -105.5t-92.5 -131t-52 -119.5zM412 872q0 10 27.5 31t73.5 59.5t104.5 99 t117.5 146.5h37q20 -82 49 -141t55.5 -100t45 -64.5t18.5 -34.5q0 -16 -18 -16q-10 0 -38 26.5t-59.5 62.5t-59.5 68.5t-36 45.5q-27 -20 -73 -54t-92 -66t-86 -54.5t-58 -22.5q-8 0 -8 14z" />
<glyph unicode="&#xeb;" horiz-adv-x="833" d="M-2 217q0 98 59.5 194.5t149.5 172t197.5 123t203.5 47.5q88 0 137.5 -34t49.5 -95q0 -49 -34 -90t-87 -74t-120 -57.5t-132.5 -43t-122.5 -31t-94 -20.5q-10 -41 -10 -73q0 -88 49 -143.5t137 -55.5q86 0 189.5 51t207.5 150q80 76 154 158.5t129 154.5l14 -14 q-63 -86 -136 -170t-173 -177q-141 -127 -271 -175t-245 -48q-117 0 -184.5 69.5t-67.5 180.5zM209 330q84 16 159.5 54t134 86t93.5 102.5t35 103.5q0 29 -15.5 41t-40.5 12q-51 0 -110 -43t-111.5 -105.5t-92.5 -131t-52 -119.5zM438 1047q0 39 26.5 68.5t65.5 29.5 t66 -30t27 -68q0 -39 -27 -69t-66 -30t-65.5 30t-26.5 69zM807 1047q0 39 26.5 68.5t65.5 29.5t65.5 -30t26.5 -68q0 -39 -26.5 -69t-65.5 -30t-65.5 30t-26.5 69z" />
<glyph unicode="&#xec;" horiz-adv-x="530" d="M-33 113q0 41 15.5 85t52.5 109.5t98.5 162.5t153.5 241l211 10q-96 -152 -166 -259.5t-114 -183t-65.5 -124t-21.5 -78.5q0 -25 9.5 -40.5t27.5 -15.5q41 0 115.5 47.5t187.5 161.5q45 47 88 93.5t81 89.5t67.5 77.5t48.5 55.5l18 -13q-25 -33 -60.5 -74.5t-76.5 -87.5 t-84 -91.5t-84 -85.5q-119 -119 -204 -166t-156 -47q-68 0 -105 36.5t-37 96.5zM164 1143q0 29 17.5 47t47.5 18q16 0 27.5 -13t20 -31.5t14.5 -40t10 -38.5q10 -45 40 -81.5t60.5 -66.5t54 -49.5t23.5 -29.5q0 -14 -12 -14q-20 0 -70.5 28.5t-102.5 73.5t-91 97.5t-39 99.5 z" />
<glyph unicode="&#xed;" horiz-adv-x="530" d="M-33 113q0 41 15.5 85t52.5 109.5t98.5 162.5t153.5 241l211 10q-96 -152 -166 -259.5t-114 -183t-65.5 -124t-21.5 -78.5q0 -25 9.5 -40.5t27.5 -15.5q41 0 115.5 47.5t187.5 161.5q45 47 88 93.5t81 89.5t67.5 77.5t48.5 55.5l18 -13q-25 -33 -60.5 -74.5t-76.5 -87.5 t-84 -91.5t-84 -85.5q-119 -119 -204 -166t-156 -47q-68 0 -105 36.5t-37 96.5zM373 858q0 10 23.5 29.5t54 49.5t60.5 66.5t40 81.5q4 16 10 38t14.5 40.5t20.5 31.5t27 13q31 0 48 -18t17 -47q0 -47 -39 -99.5t-91 -97.5t-101 -73.5t-72 -28.5q-12 0 -12 14z" />
<glyph unicode="&#xee;" horiz-adv-x="530" d="M-33 113q0 41 15.5 85t52.5 109.5t98.5 162.5t153.5 241l211 10q-96 -152 -166 -259.5t-114 -183t-65.5 -124t-21.5 -78.5q0 -25 9.5 -40.5t27.5 -15.5q41 0 115.5 47.5t187.5 161.5q45 47 88 93.5t81 89.5t67.5 77.5t48.5 55.5l18 -13q-25 -33 -60.5 -74.5t-76.5 -87.5 t-84 -91.5t-84 -85.5q-119 -119 -204 -166t-156 -47q-68 0 -105 36.5t-37 96.5zM178 872q0 10 27.5 31t74 59.5t104.5 99t118 146.5h37q20 -82 48.5 -141t55.5 -100t45.5 -64.5t18.5 -34.5q0 -16 -19 -16q-10 0 -37.5 26.5t-59.5 62.5t-59.5 68.5t-35.5 45.5 q-27 -20 -73 -54t-92 -66t-86 -54.5t-59 -22.5q-8 0 -8 14z" />
<glyph unicode="&#xef;" horiz-adv-x="530" d="M-33 113q0 41 15.5 85t52.5 109.5t98.5 162.5t153.5 241l211 10q-96 -152 -166 -259.5t-114 -183t-65.5 -124t-21.5 -78.5q0 -25 9.5 -40.5t27.5 -15.5q41 0 115.5 47.5t187.5 161.5q45 47 88 93.5t81 89.5t67.5 77.5t48.5 55.5l18 -13q-25 -33 -60.5 -74.5t-76.5 -87.5 t-84 -91.5t-84 -85.5q-119 -119 -204 -166t-156 -47q-68 0 -105 36.5t-37 96.5zM205 1047q0 39 26.5 68.5t65.5 29.5t65.5 -30t26.5 -68q0 -39 -26.5 -69t-65.5 -30t-65.5 30t-26.5 69zM573 1047q0 39 27 68.5t66 29.5t65.5 -30t26.5 -68q0 -39 -26.5 -69t-65.5 -30t-66 30 t-27 69z" />
<glyph unicode="&#xf0;" d="M8 209q0 109 55.5 208t143.5 174t194.5 119t208.5 44q72 0 138 -33q6 80 12 170t16 156h-219q-12 0 -12 12t12 12h221q35 219 127 311.5t246 96.5q70 2 135.5 -22.5t116.5 -67.5l-19 -25q-33 23 -81 44.5t-103 21.5q-47 0 -85 -16.5t-65.5 -57.5t-45 -109.5t-27.5 -175.5 h233q12 0 13 -12q0 -12 -13 -12h-237q-6 -47 -12.5 -100.5t-16.5 -117t-26.5 -141.5t-45.5 -176q16 -47 52.5 -71.5t76.5 -24.5q55 0 104.5 32.5t104.5 98.5l13 -17q-41 -53 -97.5 -96t-124.5 -43q-47 0 -80.5 20.5t-62.5 55.5q-43 -131 -109.5 -226.5t-146.5 -155.5 t-169 -89t-177 -29q-113 0 -180.5 64.5t-67.5 177.5zM180 100q0 -51 21.5 -79.5t68.5 -28.5q51 0 102.5 34.5t98.5 90t87 125t69.5 139.5t46 133.5t16.5 106.5q0 51 -21.5 79.5t-68.5 28.5q-51 0 -102.5 -35t-98.5 -90t-87 -124.5t-69.5 -139.5t-46 -133.5t-16.5 -106.5z " />
<glyph unicode="&#xf1;" d="M-172 0q109 180 218.5 357.5t215.5 363.5l234 8l-267 -373l4 -4q29 37 83.5 104.5t124 133t149.5 115t160 49.5q68 0 102.5 -38t34.5 -93q0 -70 -44 -142.5t-97.5 -145.5t-97.5 -139.5t-44 -123.5q0 -25 12.5 -40.5t40.5 -15.5q29 0 95.5 44t179.5 163q88 94 161.5 183.5 t110.5 134.5l21 -11q-53 -63 -131 -157t-166 -187q-106 -113 -181 -159.5t-155 -46.5q-78 0 -115 43t-37 98q0 70 44 143.5t97.5 144t97.5 134t44 110.5q0 23 -14.5 37.5t-42.5 14.5q-41 0 -96.5 -38t-117 -98.5t-125 -137.5t-119.5 -153.5t-101.5 -148.5t-71.5 -123z M410 930q4 33 16 67.5t33.5 63.5t51.5 47t67 18q47 0 84.5 -12t72.5 -26.5t67 -26.5t62 -12q53 0 82 25.5t47 72.5h35q-6 -35 -20.5 -70t-38 -63.5t-54 -46t-69.5 -17.5q-41 0 -78 11.5t-71.5 28t-69.5 27.5t-70 11q-47 0 -74.5 -28.5t-44.5 -69.5h-28z" />
<glyph unicode="&#xf2;" d="M8 209q0 109 55.5 208t143.5 174t194.5 119t208.5 44q111 0 174.5 -59.5t77.5 -143.5q10 -61 46 -98t93 -37q55 0 104.5 32.5t104.5 98.5l13 -17q-41 -53 -97.5 -96t-124.5 -43q-47 0 -81.5 20.5t-63.5 57.5q-25 -102 -81 -193.5t-136 -160t-178.5 -108.5t-204.5 -40 q-113 0 -180.5 64.5t-67.5 177.5zM180 100q0 -51 21.5 -79.5t68.5 -28.5q51 0 102.5 34.5t98.5 90t87 125t69.5 139.5t46 133.5t16.5 106.5q0 51 -21.5 79.5t-68.5 28.5q-51 0 -102.5 -35t-98.5 -90t-87 -124.5t-69.5 -139.5t-46 -133.5t-16.5 -106.5zM389 1143 q0 29 17.5 47t48.5 18q16 0 27.5 -13t19.5 -31.5t14 -40t10 -38.5q10 -45 40 -81.5t60.5 -66.5t54.5 -49.5t24 -29.5q0 -14 -13 -14q-20 0 -70.5 28.5t-102.5 73.5t-91 97.5t-39 99.5z" />
<glyph unicode="&#xf3;" d="M8 209q0 109 55.5 208t143.5 174t194.5 119t208.5 44q111 0 174.5 -59.5t77.5 -143.5q10 -61 46 -98t93 -37q55 0 104.5 32.5t104.5 98.5l13 -17q-41 -53 -97.5 -96t-124.5 -43q-47 0 -81.5 20.5t-63.5 57.5q-25 -102 -81 -193.5t-136 -160t-178.5 -108.5t-204.5 -40 q-113 0 -180.5 64.5t-67.5 177.5zM180 100q0 -51 21.5 -79.5t68.5 -28.5q51 0 102.5 34.5t98.5 90t87 125t69.5 139.5t46 133.5t16.5 106.5q0 51 -21.5 79.5t-68.5 28.5q-51 0 -102.5 -35t-98.5 -90t-87 -124.5t-69.5 -139.5t-46 -133.5t-16.5 -106.5zM598 858 q0 10 23.5 29.5t54.5 49.5t60.5 66.5t39.5 81.5q4 16 10.5 38t14.5 40.5t20.5 31.5t26.5 13q31 0 48 -18t17 -47q0 -47 -38.5 -99.5t-91 -97.5t-101.5 -73.5t-72 -28.5q-12 0 -12 14z" />
<glyph unicode="&#xf4;" d="M8 209q0 109 55.5 208t143.5 174t194.5 119t208.5 44q111 0 174.5 -59.5t77.5 -143.5q10 -61 46 -98t93 -37q55 0 104.5 32.5t104.5 98.5l13 -17q-41 -53 -97.5 -96t-124.5 -43q-47 0 -81.5 20.5t-63.5 57.5q-25 -102 -81 -193.5t-136 -160t-178.5 -108.5t-204.5 -40 q-113 0 -180.5 64.5t-67.5 177.5zM180 100q0 -51 21.5 -79.5t68.5 -28.5q51 0 102.5 34.5t98.5 90t87 125t69.5 139.5t46 133.5t16.5 106.5q0 51 -21.5 79.5t-68.5 28.5q-51 0 -102.5 -35t-98.5 -90t-87 -124.5t-69.5 -139.5t-46 -133.5t-16.5 -106.5zM403 872q0 10 28 31 t74 59.5t104.5 99t117.5 146.5h37q20 -82 49 -141t55.5 -100t45 -64.5t18.5 -34.5q0 -16 -19 -16q-10 0 -37.5 26.5t-59.5 62.5t-59.5 68.5t-35.5 45.5q-27 -20 -73 -54t-92 -66t-86 -54.5t-58 -22.5q-8 0 -9 14z" />
<glyph unicode="&#xf5;" d="M8 209q0 109 55.5 208t143.5 174t194.5 119t208.5 44q111 0 174.5 -59.5t77.5 -143.5q10 -61 46 -98t93 -37q55 0 104.5 32.5t104.5 98.5l13 -17q-41 -53 -97.5 -96t-124.5 -43q-47 0 -81.5 20.5t-63.5 57.5q-25 -102 -81 -193.5t-136 -160t-178.5 -108.5t-204.5 -40 q-113 0 -180.5 64.5t-67.5 177.5zM180 100q0 -51 21.5 -79.5t68.5 -28.5q51 0 102.5 34.5t98.5 90t87 125t69.5 139.5t46 133.5t16.5 106.5q0 51 -21.5 79.5t-68.5 28.5q-51 0 -102.5 -35t-98.5 -90t-87 -124.5t-69.5 -139.5t-46 -133.5t-16.5 -106.5zM410 930q4 33 16 67.5 t33.5 63.5t51.5 47t67 18q47 0 84.5 -12t72.5 -26.5t67 -26.5t62 -12q53 0 82 25.5t47 72.5h35q-6 -35 -20.5 -70t-38 -63.5t-54 -46t-69.5 -17.5q-41 0 -78 11.5t-71.5 28t-69.5 27.5t-70 11q-47 0 -74.5 -28.5t-44.5 -69.5h-28z" />
<glyph unicode="&#xf6;" d="M8 209q0 109 55.5 208t143.5 174t194.5 119t208.5 44q111 0 174.5 -59.5t77.5 -143.5q10 -61 46 -98t93 -37q55 0 104.5 32.5t104.5 98.5l13 -17q-41 -53 -97.5 -96t-124.5 -43q-47 0 -81.5 20.5t-63.5 57.5q-25 -102 -81 -193.5t-136 -160t-178.5 -108.5t-204.5 -40 q-113 0 -180.5 64.5t-67.5 177.5zM180 100q0 -51 21.5 -79.5t68.5 -28.5q51 0 102.5 34.5t98.5 90t87 125t69.5 139.5t46 133.5t16.5 106.5q0 51 -21.5 79.5t-68.5 28.5q-51 0 -102.5 -35t-98.5 -90t-87 -124.5t-69.5 -139.5t-46 -133.5t-16.5 -106.5zM430 1047 q0 39 26.5 68.5t65.5 29.5t65.5 -30t26.5 -68q0 -39 -26.5 -69t-65.5 -30t-65.5 30t-26.5 69zM799 1047q0 39 26.5 68.5t65.5 29.5t65.5 -30t26.5 -68q0 -39 -26.5 -69t-65.5 -30t-65.5 30t-26.5 69z" />
<glyph unicode="&#xf7;" horiz-adv-x="1228" d="M309 360l25 31h653l-26 -31h-652zM401 80q0 33 20.5 54.5t55.5 21.5q29 0 51.5 -23.5t22.5 -52.5t-23.5 -51.5t-52.5 -22.5q-33 0 -53.5 21.5t-20.5 52.5zM754 662q0 29 20.5 51t52.5 22q29 0 49.5 -22.5t20.5 -50.5q0 -33 -21.5 -52.5t-50.5 -19.5q-31 0 -51 20.5 t-20 51.5z" />
<glyph unicode="&#xf8;" d="M8 209q0 109 55.5 208t143.5 174t194.5 119t208.5 44h17q8 0 16 -2l90 147l35 -22l-80 -134q74 -20 119 -72.5t55 -119.5q10 -61 46 -98t93 -37q55 0 104.5 32.5t104.5 98.5l13 -17q-41 -53 -97.5 -96t-124.5 -43q-47 0 -81.5 20.5t-63.5 57.5q-25 -102 -81 -193.5 t-136 -160t-178.5 -108.5t-204.5 -40h-20q-8 0 -19 2l-98 -159l-35 22l90 148q-78 20 -122 78.5t-44 150.5zM180 100q0 -49 21 -75l426 700q-12 4 -27 4q-51 0 -102.5 -35t-98.5 -90t-87 -124.5t-69.5 -139.5t-46 -133.5t-16.5 -106.5zM236 0q10 -8 34 -8q51 0 102.5 34.5 t98.5 90t87 125t69.5 139.5t46 133.5t16.5 106.5q0 57 -26 84z" />
<glyph unicode="&#xf9;" d="M-68 113q0 78 84 225t228 383l217 8q-162 -248 -263.5 -406.5t-101.5 -236.5q0 -25 13.5 -41t35.5 -16q39 0 93.5 32.5t114 88t117.5 127t105 149.5l177 287l211 16q-80 -133 -149 -237.5t-118 -185.5t-76.5 -140.5t-27.5 -104.5t39 -45q25 0 59.5 17.5t73.5 45t80 64.5 t78 74q45 47 89 95t81.5 93.5t68.5 83t51 64.5l17 -12q-49 -66 -125 -157t-162 -179q-104 -106 -192 -165.5t-175 -59.5q-61 0 -98 36.5t-37 92.5q0 39 7.5 69.5t17.5 46.5l-4 4q-37 -39 -80 -83t-92 -80.5t-105.5 -61t-122.5 -24.5q-63 0 -96 39.5t-33 93.5zM338 1143 q0 29 17.5 47t47.5 18q16 0 27.5 -13t20 -31.5t14.5 -40t10 -38.5q10 -45 40 -81.5t60.5 -66.5t54 -49.5t23.5 -29.5q0 -14 -12 -14q-20 0 -70.5 28.5t-102.5 73.5t-91 97.5t-39 99.5z" />
<glyph unicode="&#xfa;" d="M-68 113q0 78 84 225t228 383l217 8q-162 -248 -263.5 -406.5t-101.5 -236.5q0 -25 13.5 -41t35.5 -16q39 0 93.5 32.5t114 88t117.5 127t105 149.5l177 287l211 16q-80 -133 -149 -237.5t-118 -185.5t-76.5 -140.5t-27.5 -104.5t39 -45q25 0 59.5 17.5t73.5 45t80 64.5 t78 74q45 47 89 95t81.5 93.5t68.5 83t51 64.5l17 -12q-49 -66 -125 -157t-162 -179q-104 -106 -192 -165.5t-175 -59.5q-61 0 -98 36.5t-37 92.5q0 39 7.5 69.5t17.5 46.5l-4 4q-37 -39 -80 -83t-92 -80.5t-105.5 -61t-122.5 -24.5q-63 0 -96 39.5t-33 93.5zM547 858 q0 10 23.5 29.5t54 49.5t60.5 66.5t40 81.5q4 16 10 38t14.5 40.5t20.5 31.5t27 13q31 0 48 -18t17 -47q0 -47 -39 -99.5t-91 -97.5t-101 -73.5t-72 -28.5q-12 0 -12 14z" />
<glyph unicode="&#xfb;" d="M-68 113q0 78 84 225t228 383l217 8q-162 -248 -263.5 -406.5t-101.5 -236.5q0 -25 13.5 -41t35.5 -16q39 0 93.5 32.5t114 88t117.5 127t105 149.5l177 287l211 16q-80 -133 -149 -237.5t-118 -185.5t-76.5 -140.5t-27.5 -104.5t39 -45q25 0 59.5 17.5t73.5 45t80 64.5 t78 74q45 47 89 95t81.5 93.5t68.5 83t51 64.5l17 -12q-49 -66 -125 -157t-162 -179q-104 -106 -192 -165.5t-175 -59.5q-61 0 -98 36.5t-37 92.5q0 39 7.5 69.5t17.5 46.5l-4 4q-37 -39 -80 -83t-92 -80.5t-105.5 -61t-122.5 -24.5q-63 0 -96 39.5t-33 93.5zM352 872 q0 10 28 31t74 59.5t104 99t118 146.5h37q20 -82 49 -141t55.5 -100t45 -64.5t18.5 -34.5q0 -16 -19 -16q-10 0 -37.5 26.5t-59.5 62.5t-59.5 68.5t-35.5 45.5q-27 -20 -73 -54t-92 -66t-86 -54.5t-59 -22.5q-8 0 -8 14z" />
<glyph unicode="&#xfc;" d="M-68 113q0 78 84 225t228 383l217 8q-162 -248 -263.5 -406.5t-101.5 -236.5q0 -25 13.5 -41t35.5 -16q39 0 93.5 32.5t114 88t117.5 127t105 149.5l177 287l211 16q-80 -133 -149 -237.5t-118 -185.5t-76.5 -140.5t-27.5 -104.5t39 -45q25 0 59.5 17.5t73.5 45t80 64.5 t78 74q45 47 89 95t81.5 93.5t68.5 83t51 64.5l17 -12q-49 -66 -125 -157t-162 -179q-104 -106 -192 -165.5t-175 -59.5q-61 0 -98 36.5t-37 92.5q0 39 7.5 69.5t17.5 46.5l-4 4q-37 -39 -80 -83t-92 -80.5t-105.5 -61t-122.5 -24.5q-63 0 -96 39.5t-33 93.5zM379 1047 q0 39 26.5 68.5t65.5 29.5t65.5 -30t26.5 -68q0 -39 -26.5 -69t-65.5 -30t-65.5 30t-26.5 69zM748 1047q0 39 26.5 68.5t65.5 29.5t65.5 -30t26.5 -68q0 -39 -26.5 -69t-65.5 -30t-65.5 30t-26.5 69z" />
<glyph unicode="&#xfd;" d="M-766 -365q0 61 25.5 104.5t67.5 71t96.5 41t111.5 13.5q25 0 50.5 -2t41.5 -6v-19q-10 2 -37 2q-88 0 -136 -63.5t-48 -155.5q0 -109 66.5 -170t165.5 -61q104 0 196 44t172 116.5t150.5 166t131 191.5t114 192.5t98.5 169.5l-4 4q-31 -37 -77 -87t-103.5 -96 t-121 -78.5t-128.5 -32.5q-68 0 -97.5 38.5t-29.5 92.5q0 51 28.5 116.5t72.5 144.5t99.5 167t110.5 182l217 8q-172 -268 -268.5 -423.5t-96.5 -221.5q0 -25 15.5 -40t38.5 -15q37 0 94 37.5t121.5 101t130 146.5t119.5 171q45 74 79.5 135.5t51.5 100.5l200 8 q-111 -190 -214 -379.5t-216 -376.5q98 29 194.5 89.5t185.5 140.5t166 170t138 176l17 -14q-70 -100 -154 -195.5t-177 -174.5t-191.5 -136.5t-196.5 -81.5q-74 -125 -166 -231.5t-202.5 -184.5t-239.5 -122t-277 -44q-74 0 -143.5 13.5t-122.5 45t-86 84t-33 127.5z M598 858q0 10 23.5 29.5t54.5 49.5t60.5 66.5t39.5 81.5q4 16 10.5 38t14.5 40.5t20.5 31.5t26.5 13q31 0 48 -18t17 -47q0 -47 -38.5 -99.5t-91 -97.5t-101.5 -73.5t-72 -28.5q-12 0 -12 14z" />
<glyph unicode="&#xfe;" d="M-549 -664q131 209 265 427.5t281.5 459t315.5 511t365 585.5l219 12l-444 -635l4 -4q72 61 159 62q111 0 171.5 -60.5t74.5 -142.5q10 -61 46 -98t93 -37q55 0 104.5 32.5t104.5 98.5l13 -17q-41 -53 -97.5 -96t-124.5 -43q-47 0 -81.5 20.5t-63.5 57.5 q-25 -102 -82 -193.5t-134 -160t-167 -108.5t-180 -40q-74 0 -105.5 45t-31.5 109q0 39 7 70.5t13 52.5l-4 4l-504 -903zM180 119q0 -53 25.5 -90t73.5 -37q47 0 95 34.5t94 90t86 125t70.5 139.5t48 133.5t17.5 106.5q0 51 -21.5 79.5t-68.5 28.5t-97 -32.5t-97.5 -85 t-88.5 -118t-71.5 -133t-48 -131t-17.5 -110.5z" />
<glyph unicode="&#xff;" d="M-766 -365q0 61 25.5 104.5t67.5 71t96.5 41t111.5 13.5q25 0 50.5 -2t41.5 -6v-19q-10 2 -37 2q-88 0 -136 -63.5t-48 -155.5q0 -109 66.5 -170t165.5 -61q104 0 196 44t172 116.5t150.5 166t131 191.5t114 192.5t98.5 169.5l-4 4q-31 -37 -77 -87t-103.5 -96 t-121 -78.5t-128.5 -32.5q-68 0 -97.5 38.5t-29.5 92.5q0 51 28.5 116.5t72.5 144.5t99.5 167t110.5 182l217 8q-172 -268 -268.5 -423.5t-96.5 -221.5q0 -25 15.5 -40t38.5 -15q37 0 94 37.5t121.5 101t130 146.5t119.5 171q45 74 79.5 135.5t51.5 100.5l200 8 q-111 -190 -214 -379.5t-216 -376.5q98 29 194.5 89.5t185.5 140.5t166 170t138 176l17 -14q-70 -100 -154 -195.5t-177 -174.5t-191.5 -136.5t-196.5 -81.5q-74 -125 -166 -231.5t-202.5 -184.5t-239.5 -122t-277 -44q-74 0 -143.5 13.5t-122.5 45t-86 84t-33 127.5z M430 1047q0 39 26.5 68.5t65.5 29.5t65.5 -30t26.5 -68q0 -39 -26.5 -69t-65.5 -30t-65.5 30t-26.5 69zM799 1047q0 39 26.5 68.5t65.5 29.5t65.5 -30t26.5 -68q0 -39 -26.5 -69t-65.5 -30t-65.5 30t-26.5 69z" />
<glyph unicode="&#x152;" horiz-adv-x="2048" d="M133 371q0 117 40 236.5t106.5 229t154.5 206t183.5 168t191.5 112.5t180 41q63 0 102 -18.5t61 -50t29 -75.5t7 -96h-25q0 106 -34.5 160.5t-133.5 54.5q-90 0 -174 -50t-157.5 -132t-135 -186.5t-105.5 -211t-68.5 -205.5t-24.5 -173q0 -61 8 -126t32.5 -118t70.5 -87 t122 -34q70 0 139.5 33t122.5 74q-31 39 -51 91t-20 103q0 86 34.5 153t91 117t127 89t140.5 69q61 29 103 57.5t66.5 67.5t35 91.5t10.5 125.5q0 78 -21.5 152t-65.5 132.5t-108.5 93t-150.5 34.5q-158 0 -275.5 -62.5t-228.5 -183.5l-12 9q109 123 246 200.5t305 73.5 q133 0 240.5 -67.5t148.5 -198.5q70 88 186.5 148.5t249.5 60.5q55 0 114.5 -10.5t107.5 -36t79 -70.5t31 -113q0 -74 -34 -128t-87 -90t-118.5 -54.5t-131.5 -18.5q-39 0 -77 5.5t-74 17.5l2 18q45 -16 94 -16q129 0 203.5 66.5t74.5 201.5q0 96 -51 149.5t-149 53.5 q-68 0 -118 -24.5t-85 -65.5t-56.5 -97.5t-35.5 -119.5q-23 -106 -41.5 -152.5t-33.5 -66t-27.5 -27.5t-24.5 -39q-51 -131 -96.5 -221t-96.5 -160.5t-114.5 -134t-149.5 -145.5q119 -197 352 -197q86 0 163 24.5t136.5 69.5t94 108.5t34.5 139.5q0 39 -11 76t-34.5 64.5 t-57.5 45t-79 17.5q-70 0 -128 -40t-124 -93l-10 8q41 39 80 68.5t80 50t88 32t104 11.5q111 0 179.5 -62.5t68.5 -175.5q0 -102 -71.5 -175t-176 -119t-219.5 -66.5t-201 -20.5q-117 0 -220 29t-191 113q-84 -59 -179.5 -94t-199.5 -35q-86 0 -148.5 32.5t-101.5 86 t-57.5 125t-18.5 147.5zM950 365q0 -35 4 -69t17 -67q123 123 212 271.5t140 314.5q-74 -39 -141.5 -81t-118.5 -95t-82 -120.5t-31 -153.5z" />
<glyph unicode="&#x153;" horiz-adv-x="1402" d="M-10 209q0 109 55 208t143 174t194.5 119t209.5 44q98 0 151.5 -30t79.5 -101q84 59 175.5 95t175.5 36q88 0 137 -34t49 -95q0 -49 -34 -90t-87 -74t-119.5 -57.5t-132 -43t-123 -31t-94.5 -20.5q-10 -41 -10 -73q0 -88 49 -143.5t137 -55.5q86 0 189.5 51t207.5 150 q80 76 154 158.5t129 154.5l14 -14q-63 -86 -135.5 -170t-173.5 -177q-141 -127 -271 -175t-245 -48q-82 0 -138 34t-85 93q-94 -68 -178 -97.5t-176 -29.5q-113 0 -180.5 64.5t-67.5 177.5zM162 100q0 -51 21.5 -79.5t68.5 -28.5q51 0 102.5 34.5t98.5 90t87 125 t69.5 139.5t46 133.5t16.5 106.5q0 51 -21.5 79.5t-68.5 28.5q-51 0 -102.5 -35t-98.5 -90t-87 -124.5t-69.5 -139.5t-46 -133.5t-16.5 -106.5zM774 330q84 16 160 54t134 86t93 102.5t35 103.5q0 29 -15.5 41t-39.5 12q-51 0 -110.5 -43t-112 -105.5t-92.5 -131t-52 -119.5 z" />
<glyph unicode="&#x178;" horiz-adv-x="1593" d="M-190 -350q0 45 18 87t51 74.5t74 52t88 19.5q66 0 121 -16.5t112 -44.5l-2 -17q-29 10 -58.5 19.5t-59.5 9.5q-43 0 -75 -18.5t-53.5 -47t-32.5 -66.5t-11 -77q0 -43 12 -85t39.5 -75.5t73 -54t108.5 -20.5q102 0 195.5 46t181.5 127t171 189.5t165 235.5l282 434l-4 4 q-59 -74 -137 -152.5t-167 -144.5t-187.5 -107.5t-200.5 -41.5q-66 0 -103.5 35.5t-37.5 101.5q0 70 48 169t118.5 213.5t154.5 235.5t155 233.5t119 208t48 156.5q0 121 -109 121q-104 0 -207.5 -45t-187.5 -120t-136 -172t-52 -202q0 -27 7 -54t20.5 -48.5t35 -36 t49.5 -14.5q41 0 76 13t64.5 34.5t56 48.5t53.5 55l14 -10q-29 -33 -61.5 -64.5t-70.5 -57t-80 -41t-91 -15.5q-82 0 -137 43t-55 133q0 106 64.5 209.5t170 185.5t239.5 132.5t275 50.5q41 0 82 -8.5t75 -28t55.5 -51t21.5 -80.5q0 -72 -48 -173.5t-119 -216t-155 -235.5 t-154.5 -229.5t-118.5 -199.5t-48 -146q0 -82 82 -82q61 0 140 42t159 104.5t152.5 137t121.5 140t108.5 154.5t121 185.5t121 193.5t110.5 181t89 149.5t56 98.5l228 10l-944 -1491q-80 -117 -174.5 -220t-205 -181t-236.5 -123t-265 -45q-80 0 -152.5 14.5t-127 48t-87 88 t-32.5 134.5zM1257 1724q0 39 27 69t66 30t65.5 -30t26.5 -69t-26.5 -68.5t-65.5 -29.5t-66 30t-27 68zM1626 1724q0 39 26.5 69t65.5 30t65.5 -30t26.5 -69t-26.5 -68.5t-65.5 -29.5t-65.5 30t-26.5 68z" />
<glyph unicode="&#x2c6;" horiz-adv-x="530" d="M176 872q0 10 27.5 31t74 59.5t104.5 99t118 146.5h37q20 -82 48.5 -141t55.5 -100t45.5 -64.5t18.5 -34.5q0 -16 -19 -16q-10 0 -37.5 26.5t-59.5 62.5t-59.5 68.5t-35.5 45.5q-27 -20 -73 -54t-92 -66t-86 -54.5t-59 -22.5q-8 0 -8 14z" />
<glyph unicode="&#x2dc;" horiz-adv-x="530" d="M182 930q4 33 16.5 67.5t34 63.5t51 47t66.5 18q47 0 85 -12t73 -26.5t66.5 -26.5t62.5 -12q53 0 82 25.5t47 72.5h35q-6 -35 -20.5 -70t-38 -63.5t-54.5 -46t-70 -17.5q-41 0 -77.5 11.5t-71.5 28t-69.5 27.5t-69.5 11q-47 0 -75 -28.5t-44 -69.5h-29z" />
<glyph unicode="&#x2000;" horiz-adv-x="959" />
<glyph unicode="&#x2001;" horiz-adv-x="1919" />
<glyph unicode="&#x2002;" horiz-adv-x="959" />
<glyph unicode="&#x2003;" horiz-adv-x="1919" />
<glyph unicode="&#x2004;" horiz-adv-x="639" />
<glyph unicode="&#x2005;" horiz-adv-x="479" />
<glyph unicode="&#x2006;" horiz-adv-x="319" />
<glyph unicode="&#x2007;" horiz-adv-x="319" />
<glyph unicode="&#x2008;" horiz-adv-x="239" />
<glyph unicode="&#x2009;" horiz-adv-x="383" />
<glyph unicode="&#x200a;" horiz-adv-x="106" />
<glyph unicode="&#x2010;" horiz-adv-x="757" d="M41 295l88 131h481l-86 -131h-483z" />
<glyph unicode="&#x2011;" horiz-adv-x="757" d="M41 295l88 131h481l-86 -131h-483z" />
<glyph unicode="&#x2012;" horiz-adv-x="757" d="M41 295l88 131h481l-86 -131h-483z" />
<glyph unicode="&#x2013;" horiz-adv-x="1024" d="M-111 301l84 119h1024l-84 -119h-1024z" />
<glyph unicode="&#x2014;" horiz-adv-x="2048" d="M-111 301l84 119h2048l-84 -119h-2048z" />
<glyph unicode="&#x2018;" horiz-adv-x="454" d="M258 901q0 80 48 141.5t119 103.5t151.5 66.5t148.5 32.5v-20q-61 -10 -122.5 -28.5t-113 -50.5t-87 -80t-48.5 -120q10 2 22.5 5t24.5 3q37 0 59.5 -23.5t22.5 -60.5q0 -45 -25.5 -74.5t-74.5 -29.5q-59 0 -92 39t-33 96z" />
<glyph unicode="&#x2019;" horiz-adv-x="454" d="M229 770v21q61 10 123 28.5t113 50t87 80.5t48 119q-10 -2 -22.5 -5t-24.5 -3q-37 0 -59.5 23.5t-22.5 60.5q0 45 25.5 74.5t74.5 29.5q59 0 92 -39t33 -96q0 -80 -48 -141.5t-118.5 -103.5t-151.5 -66.5t-149 -32.5z" />
<glyph unicode="&#x201a;" horiz-adv-x="454" d="M-193 -254q61 10 123 28.5t113 50.5t87 80t48 120q-10 -2 -22.5 -5.5t-24.5 -3.5q-37 0 -59.5 23.5t-22.5 60.5q0 45 25.5 75t75.5 30q59 0 91.5 -39t32.5 -96q0 -80 -48 -141.5t-118.5 -103.5t-151.5 -66.5t-149 -32.5v20z" />
<glyph unicode="&#x201c;" horiz-adv-x="796" d="M279 901q0 80 48 141.5t118.5 103.5t151.5 66.5t148 32.5v-20q-61 -10 -122.5 -28.5t-112.5 -50.5t-87 -80t-48 -120q10 2 22.5 5t24.5 3q37 0 59.5 -23.5t22.5 -60.5q0 -45 -25.5 -74.5t-75.5 -29.5q-59 0 -91.5 39t-32.5 96zM621 901q0 80 48 141.5t118.5 103.5 t151.5 66.5t148 32.5v-20q-61 -10 -122.5 -28.5t-112.5 -50.5t-87 -80t-48 -120q10 2 22.5 5t24.5 3q37 0 59.5 -23.5t22.5 -60.5q0 -45 -25.5 -74.5t-75.5 -29.5q-59 0 -91.5 39t-32.5 96z" />
<glyph unicode="&#x201d;" horiz-adv-x="796" d="M229 770v21q61 10 123 28.5t113 50t87 80.5t48 119q-10 -2 -22.5 -5t-24.5 -3q-37 0 -59.5 23.5t-22.5 60.5q0 45 25.5 74.5t74.5 29.5q59 0 92 -39t33 -96q0 -80 -48 -141.5t-118.5 -103.5t-151.5 -66.5t-149 -32.5zM571 770v21q61 10 123 28.5t113 50t87 80.5t48 119 q-10 -2 -22.5 -5t-24.5 -3q-37 0 -59.5 23.5t-22.5 60.5q0 45 25.5 74.5t74.5 29.5q59 0 92 -39t33 -96q0 -80 -48 -141.5t-118.5 -103.5t-151.5 -66.5t-149 -32.5z" />
<glyph unicode="&#x201e;" horiz-adv-x="796" d="M-193 -254q61 10 123 28.5t113 50.5t87 80t48 120q-10 -2 -22.5 -5.5t-24.5 -3.5q-37 0 -59.5 23.5t-22.5 60.5q0 45 25.5 75t75.5 30q59 0 91.5 -39t32.5 -96q0 -80 -48 -141.5t-118.5 -103.5t-151.5 -66.5t-149 -32.5v20zM158 -254q61 10 122.5 28.5t112.5 50.5t87 80 t48 120q-10 -2 -22 -5.5t-25 -3.5q-37 0 -59.5 23.5t-22.5 60.5q0 45 26 75t75 30q59 0 92 -39t33 -96q0 -80 -48.5 -141.5t-119 -103.5t-151.5 -66.5t-148 -32.5v20z" />
<glyph unicode="&#x2022;" horiz-adv-x="1024" d="M238 721q0 74 28.5 139.5t77.5 114.5t114.5 77.5t139.5 28.5t139.5 -28.5t114.5 -77.5t77.5 -114.5t28.5 -139.5t-28.5 -139.5t-77.5 -114.5t-114.5 -78t-139.5 -29t-139.5 29t-114.5 78t-77.5 114.5t-28.5 139.5z" />
<glyph unicode="&#x2026;" horiz-adv-x="2048" d="M45 102q0 47 34 81t81 34t80.5 -33.5t33.5 -81.5q0 -47 -33.5 -80.5t-80.5 -33.5t-81 33.5t-34 80.5zM729 102q0 47 34 81t81 34t80.5 -33.5t33.5 -81.5q0 -47 -33.5 -80.5t-80.5 -33.5t-81 33.5t-34 80.5zM1413 102q0 47 34 81t81 34t80.5 -33.5t33.5 -81.5 q0 -47 -33.5 -80.5t-80.5 -33.5t-81 33.5t-34 80.5z" />
<glyph unicode="&#x202f;" horiz-adv-x="383" />
<glyph unicode="&#x2039;" horiz-adv-x="645" d="M137 354l481 346l15 -16l-320 -334l125 -317l-18 -13z" />
<glyph unicode="&#x203a;" horiz-adv-x="645" d="M55 39l332 328l-125 321l19 12l268 -333l-477 -347z" />
<glyph unicode="&#x205f;" horiz-adv-x="479" />
<glyph unicode="&#x2122;" horiz-adv-x="2027" d="M233 782q10 33 46 33q37 0 49 -29q6 -14 3 -25t-9 -22q-4 -29 -35 -39q4 -53 45 -76.5t98 -23.5q63 0 115.5 26.5t95.5 70.5t80 99.5t72 114.5l79 127q78 125 172.5 199t212.5 104q-43 4 -90 6.5t-92 4.5q-80 2 -180 0q-84 -2 -183.5 -18.5t-184.5 -49.5t-142 -85 t-57 -128q0 -37 16 -63.5t44 -43t62.5 -23.5t69.5 -7q45 0 95.5 16.5t91.5 45t67.5 68.5t26.5 87q0 16 -2 33.5t-6 32.5l12 2l6 -35q2 -10 3 -18.5t1 -14.5q0 -55 -25.5 -101t-67.5 -81t-96.5 -54.5t-113.5 -19.5q-92 0 -146.5 49t-54.5 127q0 70 47.5 133.5t140.5 114.5 t231 83t321 38q29 2 59.5 2h63.5q55 -2 108 -5t96 -3q43 -2 77 -1t56 -6q12 -4 21.5 -14t9.5 -27q0 -31 -32.5 -41t-108.5 -10q-39 0 -70 -1t-59 -3q-51 -16 -92 -47t-76 -75t-69 -99t-70 -121l-56 -92q-35 -59 -83 -115.5t-107.5 -99.5t-133 -69.5t-161.5 -26.5 q-53 0 -100.5 13t-75.5 48q-10 16 -10 37q-27 45 -5 98zM924 700q0 37 30 54q12 8 25.5 6t24.5 -10q12 0 26 -11q12 -10 12 -26t-10 -31.5t-28 -19.5q2 -20 16 -32t33 -16q23 -4 47 7q86 16 157.5 90.5t145.5 181.5q66 94 128 184t134 167t161 135.5t210 88.5l4 -12 q-74 -31 -121 -82t-82 -116.5t-60.5 -141.5t-54 -152.5t-64.5 -150.5t-91 -137l2 -2q72 61 133 136t137 171l94 125q135 190 267.5 274t263.5 84q66 0 65 -24q0 -10 -9 -13.5t-19 -3.5q-25 0 -48.5 5.5t-46.5 5.5q-29 0 -59.5 -28t-60 -71t-57 -97t-48.5 -108l-37 -90 q-31 -80 -63.5 -143t-74.5 -114.5t-95 -91.5t-127 -77q86 0 157.5 15.5t133 50.5t116 94.5t105.5 149.5q4 0 5 -1t5 -1q-92 -176 -220 -247t-271 -71q-47 0 -76 -5t-58 -5q-33 0 -32 16q0 10 9 14.5t19 4.5q23 0 41.5 -6.5t40.5 -6.5q53 16 93 75t77 136q37 82 77 172.5 t90 174t113.5 152.5t149.5 110l-2 2q-68 -16 -130 -57.5t-119.5 -96.5t-110.5 -119.5t-103 -132.5l-53 -74q-37 -51 -80 -103t-89 -100t-95 -90t-98 -69q-4 2 -6.5 4t-6.5 4q33 55 56 113q41 111 73.5 214t76.5 195.5t110.5 169t175.5 131.5l-4 5q-70 -25 -129.5 -66 t-111.5 -90t-95 -103.5t-80 -107.5l-68 -102q-49 -72 -95 -138.5t-95 -118t-104.5 -82t-122.5 -30.5q-49 0 -89 26.5t-40 79.5z" />
<glyph unicode="&#x25fc;" horiz-adv-x="757" d="M0 0v758h758v-758h-758z" />
<glyph unicode="&#xfb01;" horiz-adv-x="1138" d="M-1268 -367q0 59 25.5 104.5t67.5 76t96.5 47t111.5 16.5q27 0 49.5 -2t40.5 -6v-16q-98 -6 -158.5 -70t-60.5 -162q0 -106 59.5 -168.5t192.5 -62.5q121 0 231.5 66.5t212 175t192.5 246.5t174 282.5t159 282t143 241.5h-196l20 37h201q59 102 140 225t182.5 229.5 t222 178t258.5 71.5q43 0 83 -10t71.5 -30.5t51 -52.5t19.5 -75q0 -74 -53.5 -110.5t-124.5 -36.5q-16 0 -37 4q18 37 30.5 78t12.5 88q0 59 -24.5 90t-65.5 31q-51 0 -108.5 -40t-113 -103.5t-109.5 -141.5t-99 -153.5t-81 -140t-59 -101.5h426q80 0 133.5 4t73.5 10 l-54 -75t-79 -113.5t-88 -132t-82 -134t-60.5 -118.5t-23.5 -86q0 -25 11.5 -40.5t33.5 -15.5q41 0 117 46.5t190 162.5q45 47 88.5 93.5t81 89.5t67.5 77.5t48 55.5l12 -13q-25 -33 -60.5 -74.5t-76.5 -87.5t-84 -91.5t-84 -85.5q-117 -117 -202.5 -165t-157.5 -48 q-76 0 -112 43t-36 108q0 45 33 113.5t79 145.5t98.5 154t88.5 140h-403q-80 -129 -159 -277.5t-168 -295t-190.5 -281.5t-224 -238.5t-271 -165t-331.5 -61.5q-61 0 -130.5 13.5t-127 44t-95.5 82t-38 128.5z" />
<glyph unicode="&#xfb02;" horiz-adv-x="1138" d="M-1268 -367q0 59 25.5 104.5t66.5 76t94.5 47t106.5 16.5q25 0 49.5 -2t48.5 -6v-16q-98 -6 -158.5 -70t-60.5 -162q0 -106 59.5 -168.5t192.5 -62.5q121 0 231.5 66.5t212 175t192.5 246.5t174 282.5t159 282t143 241.5h-192l20 37h197q59 102 140 225t182.5 229.5 t221 178t255.5 71.5q78 0 117.5 -7t68.5 -17l266 45q-162 -279 -308 -509t-257 -405.5t-175.5 -293t-64.5 -172.5t45 -56q43 0 117 47t158 131q78 78 153.5 166t147.5 183l18 -7q-25 -33 -56.5 -73.5t-66 -82.5t-70.5 -84t-71 -77q-119 -121 -210 -180.5t-189 -59.5 q-61 0 -100.5 35t-39.5 98q0 57 36 133t85 156t99.5 156t76.5 133h-405q-80 -129 -159 -277.5t-168 -295t-190.5 -281.5t-224 -238.5t-271 -165t-331.5 -61.5q-61 0 -130.5 13.5t-127 44t-95.5 82t-38 128.5zM489 721h406q47 84 97 166t92 152.5t70 128t28 94.5 q0 72 -35 105.5t-84 33.5q-55 0 -112.5 -40t-114 -103.5t-109.5 -141.5t-99 -153.5t-81 -140t-58 -101.5z" />
</font>
</defs>
</svg>
